%TF.GenerationSoftware,KiCad,Pcbnew,6.0.11-2627ca5db0~126~ubuntu22.04.1*%
%TF.CreationDate,2023-02-23T11:24:01+01:00*%
%TF.ProjectId,motordriver,6d6f746f-7264-4726-9976-65722e6b6963,rev?*%
%TF.SameCoordinates,Original*%
%TF.FileFunction,Soldermask,Bot*%
%TF.FilePolarity,Negative*%
%FSLAX46Y46*%
G04 Gerber Fmt 4.6, Leading zero omitted, Abs format (unit mm)*
G04 Created by KiCad (PCBNEW 6.0.11-2627ca5db0~126~ubuntu22.04.1) date 2023-02-23 11:24:01*
%MOMM*%
%LPD*%
G01*
G04 APERTURE LIST*
G04 Aperture macros list*
%AMRoundRect*
0 Rectangle with rounded corners*
0 $1 Rounding radius*
0 $2 $3 $4 $5 $6 $7 $8 $9 X,Y pos of 4 corners*
0 Add a 4 corners polygon primitive as box body*
4,1,4,$2,$3,$4,$5,$6,$7,$8,$9,$2,$3,0*
0 Add four circle primitives for the rounded corners*
1,1,$1+$1,$2,$3*
1,1,$1+$1,$4,$5*
1,1,$1+$1,$6,$7*
1,1,$1+$1,$8,$9*
0 Add four rect primitives between the rounded corners*
20,1,$1+$1,$2,$3,$4,$5,0*
20,1,$1+$1,$4,$5,$6,$7,0*
20,1,$1+$1,$6,$7,$8,$9,0*
20,1,$1+$1,$8,$9,$2,$3,0*%
G04 Aperture macros list end*
%ADD10RoundRect,0.250000X-0.625000X0.350000X-0.625000X-0.350000X0.625000X-0.350000X0.625000X0.350000X0*%
%ADD11O,1.750000X1.200000*%
%ADD12R,2.400000X1.600000*%
%ADD13O,2.400000X1.600000*%
%ADD14C,0.800000*%
%ADD15C,6.400000*%
%ADD16RoundRect,0.250000X0.625000X-0.350000X0.625000X0.350000X-0.625000X0.350000X-0.625000X-0.350000X0*%
G04 APERTURE END LIST*
D10*
%TO.C,SW1*%
X156350000Y-105915000D03*
D11*
X156350000Y-107915000D03*
%TD*%
D12*
%TO.C,U1*%
X142175000Y-99315000D03*
D13*
X142175000Y-101855000D03*
X142175000Y-104395000D03*
X142175000Y-106935000D03*
X149795000Y-106935000D03*
X149795000Y-104395000D03*
X149795000Y-101855000D03*
X149795000Y-99315000D03*
%TD*%
D14*
%TO.C,H3*%
X158800000Y-114515000D03*
D15*
X156400000Y-114515000D03*
D14*
X158097056Y-112817944D03*
X154000000Y-114515000D03*
X156400000Y-116915000D03*
X154702944Y-116212056D03*
X154702944Y-112817944D03*
X156400000Y-112115000D03*
X158097056Y-116212056D03*
%TD*%
D16*
%TO.C,M1*%
X123400000Y-100315000D03*
D11*
X123400000Y-98315000D03*
%TD*%
D14*
%TO.C,H4*%
X158097056Y-93412056D03*
X156400000Y-89315000D03*
X154702944Y-90017944D03*
X154000000Y-91715000D03*
X154702944Y-93412056D03*
D15*
X156400000Y-91715000D03*
D14*
X156400000Y-94115000D03*
X158097056Y-90017944D03*
X158800000Y-91715000D03*
%TD*%
D12*
%TO.C,U2*%
X129775000Y-99315000D03*
D13*
X129775000Y-101855000D03*
X129775000Y-104395000D03*
X129775000Y-106935000D03*
X137395000Y-106935000D03*
X137395000Y-104395000D03*
X137395000Y-101855000D03*
X137395000Y-99315000D03*
%TD*%
D10*
%TO.C,SW2*%
X156350000Y-98315000D03*
D11*
X156350000Y-100315000D03*
%TD*%
D14*
%TO.C,H2*%
X123400000Y-116915000D03*
X121000000Y-114515000D03*
X125097056Y-116212056D03*
X125800000Y-114515000D03*
X123400000Y-112115000D03*
X121702944Y-116212056D03*
X125097056Y-112817944D03*
D15*
X123400000Y-114515000D03*
D14*
X121702944Y-112817944D03*
%TD*%
D16*
%TO.C,J1*%
X123400000Y-107915000D03*
D11*
X123400000Y-105915000D03*
%TD*%
D14*
%TO.C,H1*%
X125097056Y-93412056D03*
X121702944Y-93412056D03*
D15*
X123400000Y-91715000D03*
D14*
X121702944Y-90017944D03*
X125097056Y-90017944D03*
X123400000Y-94115000D03*
X125800000Y-91715000D03*
X123400000Y-89315000D03*
X121000000Y-91715000D03*
%TD*%
M02*
