%TF.GenerationSoftware,KiCad,Pcbnew,6.0.11-2627ca5db0~126~ubuntu22.04.1*%
%TF.CreationDate,2023-02-23T11:24:36+01:00*%
%TF.ProjectId,motordriver,6d6f746f-7264-4726-9976-65722e6b6963,rev?*%
%TF.SameCoordinates,Original*%
%TF.FileFunction,Drillmap*%
%TF.FilePolarity,Positive*%
%FSLAX45Y45*%
G04 Gerber Fmt 4.5, Leading zero omitted, Abs format (unit mm)*
G04 Created by KiCad (PCBNEW 6.0.11-2627ca5db0~126~ubuntu22.04.1) date 2023-02-23 11:24:36*
%MOMM*%
%LPD*%
G01*
G04 APERTURE LIST*
%ADD10C,0.100000*%
%ADD11C,0.200000*%
%ADD12C,0.040000*%
%ADD13C,0.050000*%
%ADD14C,0.075000*%
%ADD15C,0.080000*%
%ADD16C,0.320000*%
G04 APERTURE END LIST*
D10*
X15640000Y-11831500D02*
G75*
G03*
X16020000Y-11451500I0J380000D01*
G01*
X11959474Y-11451500D02*
G75*
G03*
X12320000Y-11831500I380526J0D01*
G01*
X16020000Y-9171500D02*
X16020000Y-11451500D01*
X15640000Y-11831500D02*
X12320000Y-11831500D01*
X12340000Y-8791500D02*
G75*
G03*
X11960000Y-9171500I0J-380000D01*
G01*
X11959474Y-11451500D02*
X11960000Y-9171500D01*
X16020000Y-9171500D02*
G75*
G03*
X15640000Y-8791500I-380000J0D01*
G01*
X12340000Y-8791500D02*
X15640000Y-8791500D01*
D11*
D12*
X12740000Y-10071500D02*
X12780000Y-10111500D01*
X12780000Y-10071500D02*
X12740000Y-10111500D01*
X12760000Y-10911500D02*
X12800000Y-10951500D01*
X12800000Y-10911500D02*
X12760000Y-10951500D01*
X12760000Y-11031500D02*
X12800000Y-11071500D01*
X12800000Y-11031500D02*
X12760000Y-11071500D01*
X12880000Y-10911500D02*
X12920000Y-10951500D01*
X12920000Y-10911500D02*
X12880000Y-10951500D01*
X12880000Y-11031500D02*
X12920000Y-11071500D01*
X12920000Y-11031500D02*
X12880000Y-11071500D01*
X12960000Y-9051500D02*
X13000000Y-9091500D01*
X13000000Y-9051500D02*
X12960000Y-9091500D01*
X13000000Y-10911500D02*
X13040000Y-10951500D01*
X13040000Y-10911500D02*
X13000000Y-10951500D01*
X13000000Y-11031500D02*
X13040000Y-11071500D01*
X13040000Y-11031500D02*
X13000000Y-11071500D01*
X13120000Y-10911500D02*
X13160000Y-10951500D01*
X13160000Y-10911500D02*
X13120000Y-10951500D01*
X13120000Y-11031500D02*
X13160000Y-11071500D01*
X13160000Y-11031500D02*
X13120000Y-11071500D01*
X13240000Y-10911500D02*
X13280000Y-10951500D01*
X13280000Y-10911500D02*
X13240000Y-10951500D01*
X13240000Y-11031500D02*
X13280000Y-11071500D01*
X13280000Y-11031500D02*
X13240000Y-11071500D01*
X13360000Y-10911500D02*
X13400000Y-10951500D01*
X13400000Y-10911500D02*
X13360000Y-10951500D01*
X13360000Y-11031500D02*
X13400000Y-11071500D01*
X13400000Y-11031500D02*
X13360000Y-11071500D01*
X13480000Y-10911500D02*
X13520000Y-10951500D01*
X13520000Y-10911500D02*
X13480000Y-10951500D01*
X13480000Y-11031500D02*
X13520000Y-11071500D01*
X13520000Y-11031500D02*
X13480000Y-11071500D01*
X13600000Y-10911500D02*
X13640000Y-10951500D01*
X13640000Y-10911500D02*
X13600000Y-10951500D01*
X13600000Y-11031500D02*
X13640000Y-11071500D01*
X13640000Y-11031500D02*
X13600000Y-11071500D01*
X13720000Y-10911500D02*
X13760000Y-10951500D01*
X13760000Y-10911500D02*
X13720000Y-10951500D01*
X13720000Y-11031500D02*
X13760000Y-11071500D01*
X13760000Y-11031500D02*
X13720000Y-11071500D01*
X13840000Y-10911500D02*
X13880000Y-10951500D01*
X13880000Y-10911500D02*
X13840000Y-10951500D01*
X13840000Y-11031500D02*
X13880000Y-11071500D01*
X13880000Y-11031500D02*
X13840000Y-11071500D01*
X13960000Y-10911500D02*
X14000000Y-10951500D01*
X14000000Y-10911500D02*
X13960000Y-10951500D01*
X13960000Y-11031500D02*
X14000000Y-11071500D01*
X14000000Y-11031500D02*
X13960000Y-11071500D01*
X14080000Y-10911500D02*
X14120000Y-10951500D01*
X14120000Y-10911500D02*
X14080000Y-10951500D01*
X14080000Y-11031500D02*
X14120000Y-11071500D01*
X14120000Y-11031500D02*
X14080000Y-11071500D01*
X14200000Y-10911500D02*
X14240000Y-10951500D01*
X14240000Y-10911500D02*
X14200000Y-10951500D01*
X14200000Y-11031500D02*
X14240000Y-11071500D01*
X14240000Y-11031500D02*
X14200000Y-11071500D01*
X14320000Y-10911500D02*
X14360000Y-10951500D01*
X14360000Y-10911500D02*
X14320000Y-10951500D01*
X14320000Y-11031500D02*
X14360000Y-11071500D01*
X14360000Y-11031500D02*
X14320000Y-11071500D01*
X14440000Y-10911500D02*
X14480000Y-10951500D01*
X14480000Y-10911500D02*
X14440000Y-10951500D01*
X14440000Y-11031500D02*
X14480000Y-11071500D01*
X14480000Y-11031500D02*
X14440000Y-11071500D01*
X14560000Y-10911500D02*
X14600000Y-10951500D01*
X14600000Y-10911500D02*
X14560000Y-10951500D01*
X14560000Y-11031500D02*
X14600000Y-11071500D01*
X14600000Y-11031500D02*
X14560000Y-11071500D01*
X14620000Y-9660000D02*
X14660000Y-9700000D01*
X14660000Y-9660000D02*
X14620000Y-9700000D01*
X14680000Y-10911500D02*
X14720000Y-10951500D01*
X14720000Y-10911500D02*
X14680000Y-10951500D01*
X14680000Y-11031500D02*
X14720000Y-11071500D01*
X14720000Y-11031500D02*
X14680000Y-11071500D01*
X14700000Y-9960000D02*
X14740000Y-10000000D01*
X14740000Y-9960000D02*
X14700000Y-10000000D01*
X14800000Y-10911500D02*
X14840000Y-10951500D01*
X14840000Y-10911500D02*
X14800000Y-10951500D01*
X14800000Y-11031500D02*
X14840000Y-11071500D01*
X14840000Y-11031500D02*
X14800000Y-11071500D01*
X14920000Y-10911500D02*
X14960000Y-10951500D01*
X14960000Y-10911500D02*
X14920000Y-10951500D01*
X14920000Y-11031500D02*
X14960000Y-11071500D01*
X14960000Y-11031500D02*
X14920000Y-11071500D01*
X14960000Y-9051500D02*
X15000000Y-9091500D01*
X15000000Y-9051500D02*
X14960000Y-9091500D01*
X15040000Y-10911500D02*
X15080000Y-10951500D01*
X15080000Y-10911500D02*
X15040000Y-10951500D01*
X15040000Y-11031500D02*
X15080000Y-11071500D01*
X15080000Y-11031500D02*
X15040000Y-11071500D01*
X15160000Y-10911500D02*
X15200000Y-10951500D01*
X15200000Y-10911500D02*
X15160000Y-10951500D01*
X15160000Y-11031500D02*
X15200000Y-11071500D01*
X15200000Y-11031500D02*
X15160000Y-11071500D01*
D13*
X12125000Y-9171500D02*
G75*
G03*
X12125000Y-9171500I-25000J0D01*
G01*
X12125000Y-11451500D02*
G75*
G03*
X12125000Y-11451500I-25000J0D01*
G01*
X12195294Y-9001794D02*
G75*
G03*
X12195294Y-9001794I-25000J0D01*
G01*
X12195294Y-9341206D02*
G75*
G03*
X12195294Y-9341206I-25000J0D01*
G01*
X12195294Y-11281794D02*
G75*
G03*
X12195294Y-11281794I-25000J0D01*
G01*
X12195294Y-11621206D02*
G75*
G03*
X12195294Y-11621206I-25000J0D01*
G01*
X12365000Y-8931500D02*
G75*
G03*
X12365000Y-8931500I-25000J0D01*
G01*
X12365000Y-9411500D02*
G75*
G03*
X12365000Y-9411500I-25000J0D01*
G01*
X12365000Y-11211500D02*
G75*
G03*
X12365000Y-11211500I-25000J0D01*
G01*
X12365000Y-11691500D02*
G75*
G03*
X12365000Y-11691500I-25000J0D01*
G01*
X12534706Y-9001794D02*
G75*
G03*
X12534706Y-9001794I-25000J0D01*
G01*
X12534706Y-9341206D02*
G75*
G03*
X12534706Y-9341206I-25000J0D01*
G01*
X12534706Y-11281794D02*
G75*
G03*
X12534706Y-11281794I-25000J0D01*
G01*
X12534706Y-11621206D02*
G75*
G03*
X12534706Y-11621206I-25000J0D01*
G01*
X12605000Y-9171500D02*
G75*
G03*
X12605000Y-9171500I-25000J0D01*
G01*
X12605000Y-11451500D02*
G75*
G03*
X12605000Y-11451500I-25000J0D01*
G01*
X15425000Y-9171500D02*
G75*
G03*
X15425000Y-9171500I-25000J0D01*
G01*
X15425000Y-11451500D02*
G75*
G03*
X15425000Y-11451500I-25000J0D01*
G01*
X15495294Y-9001794D02*
G75*
G03*
X15495294Y-9001794I-25000J0D01*
G01*
X15495294Y-9341206D02*
G75*
G03*
X15495294Y-9341206I-25000J0D01*
G01*
X15495294Y-11281794D02*
G75*
G03*
X15495294Y-11281794I-25000J0D01*
G01*
X15495294Y-11621206D02*
G75*
G03*
X15495294Y-11621206I-25000J0D01*
G01*
X15665000Y-8931500D02*
G75*
G03*
X15665000Y-8931500I-25000J0D01*
G01*
X15665000Y-9411500D02*
G75*
G03*
X15665000Y-9411500I-25000J0D01*
G01*
X15665000Y-11211500D02*
G75*
G03*
X15665000Y-11211500I-25000J0D01*
G01*
X15665000Y-11691500D02*
G75*
G03*
X15665000Y-11691500I-25000J0D01*
G01*
X15834706Y-9001794D02*
G75*
G03*
X15834706Y-9001794I-25000J0D01*
G01*
X15834706Y-9341206D02*
G75*
G03*
X15834706Y-9341206I-25000J0D01*
G01*
X15834706Y-11281794D02*
G75*
G03*
X15834706Y-11281794I-25000J0D01*
G01*
X15834706Y-11621206D02*
G75*
G03*
X15834706Y-11621206I-25000J0D01*
G01*
X15905000Y-9171500D02*
G75*
G03*
X15905000Y-9171500I-25000J0D01*
G01*
X15905000Y-11451500D02*
G75*
G03*
X15905000Y-11451500I-25000J0D01*
G01*
D14*
X12340000Y-9794000D02*
X12340000Y-9869000D01*
X12302500Y-9831500D02*
X12377500Y-9831500D01*
X12340000Y-9994000D02*
X12340000Y-10069000D01*
X12302500Y-10031500D02*
X12377500Y-10031500D01*
X12340000Y-10554000D02*
X12340000Y-10629000D01*
X12302500Y-10591500D02*
X12377500Y-10591500D01*
X12340000Y-10754000D02*
X12340000Y-10829000D01*
X12302500Y-10791500D02*
X12377500Y-10791500D01*
X15635000Y-9794000D02*
X15635000Y-9869000D01*
X15597500Y-9831500D02*
X15672500Y-9831500D01*
X15635000Y-9994000D02*
X15635000Y-10069000D01*
X15597500Y-10031500D02*
X15672500Y-10031500D01*
X15635000Y-10554000D02*
X15635000Y-10629000D01*
X15597500Y-10591500D02*
X15672500Y-10591500D01*
X15635000Y-10754000D02*
X15635000Y-10829000D01*
X15597500Y-10791500D02*
X15672500Y-10791500D01*
D15*
X13005784Y-9959785D02*
X13005784Y-9903216D01*
X12949215Y-9903216D01*
X12949215Y-9959785D01*
X13005784Y-9959785D01*
X13005784Y-10213785D02*
X13005784Y-10157216D01*
X12949215Y-10157216D01*
X12949215Y-10213785D01*
X13005784Y-10213785D01*
X13005784Y-10467785D02*
X13005784Y-10411216D01*
X12949215Y-10411216D01*
X12949215Y-10467785D01*
X13005784Y-10467785D01*
X13005784Y-10721785D02*
X13005784Y-10665216D01*
X12949215Y-10665216D01*
X12949215Y-10721785D01*
X13005784Y-10721785D01*
X13767784Y-9959785D02*
X13767784Y-9903216D01*
X13711215Y-9903216D01*
X13711215Y-9959785D01*
X13767784Y-9959785D01*
X13767784Y-10213785D02*
X13767784Y-10157216D01*
X13711215Y-10157216D01*
X13711215Y-10213785D01*
X13767784Y-10213785D01*
X13767784Y-10467785D02*
X13767784Y-10411216D01*
X13711215Y-10411216D01*
X13711215Y-10467785D01*
X13767784Y-10467785D01*
X13767784Y-10721785D02*
X13767784Y-10665216D01*
X13711215Y-10665216D01*
X13711215Y-10721785D01*
X13767784Y-10721785D01*
X14245784Y-9959785D02*
X14245784Y-9903216D01*
X14189215Y-9903216D01*
X14189215Y-9959785D01*
X14245784Y-9959785D01*
X14245784Y-10213785D02*
X14245784Y-10157216D01*
X14189215Y-10157216D01*
X14189215Y-10213785D01*
X14245784Y-10213785D01*
X14245784Y-10467785D02*
X14245784Y-10411216D01*
X14189215Y-10411216D01*
X14189215Y-10467785D01*
X14245784Y-10467785D01*
X14245784Y-10721785D02*
X14245784Y-10665216D01*
X14189215Y-10665216D01*
X14189215Y-10721785D01*
X14245784Y-10721785D01*
X15007784Y-9959785D02*
X15007784Y-9903216D01*
X14951215Y-9903216D01*
X14951215Y-9959785D01*
X15007784Y-9959785D01*
X15007784Y-10213785D02*
X15007784Y-10157216D01*
X14951215Y-10157216D01*
X14951215Y-10213785D01*
X15007784Y-10213785D01*
X15007784Y-10467785D02*
X15007784Y-10411216D01*
X14951215Y-10411216D01*
X14951215Y-10467785D01*
X15007784Y-10467785D01*
X15007784Y-10721785D02*
X15007784Y-10665216D01*
X14951215Y-10665216D01*
X14951215Y-10721785D01*
X15007784Y-10721785D01*
D16*
X12340000Y-9331500D02*
X12500000Y-9171500D01*
X12340000Y-9011500D01*
X12180000Y-9171500D01*
X12340000Y-9331500D01*
X12340000Y-11611500D02*
X12500000Y-11451500D01*
X12340000Y-11291500D01*
X12180000Y-11451500D01*
X12340000Y-11611500D01*
X15640000Y-9331500D02*
X15800000Y-9171500D01*
X15640000Y-9011500D01*
X15480000Y-9171500D01*
X15640000Y-9331500D01*
X15640000Y-11611500D02*
X15800000Y-11451500D01*
X15640000Y-11291500D01*
X15480000Y-11451500D01*
X15640000Y-11611500D01*
D11*
X12212093Y-12146976D02*
X12212093Y-11946976D01*
X12259712Y-11946976D01*
X12288284Y-11956500D01*
X12307331Y-11975548D01*
X12316855Y-11994595D01*
X12326379Y-12032690D01*
X12326379Y-12061262D01*
X12316855Y-12099357D01*
X12307331Y-12118405D01*
X12288284Y-12137452D01*
X12259712Y-12146976D01*
X12212093Y-12146976D01*
X12412093Y-12146976D02*
X12412093Y-12013643D01*
X12412093Y-12051738D02*
X12421617Y-12032690D01*
X12431141Y-12023167D01*
X12450188Y-12013643D01*
X12469236Y-12013643D01*
X12535903Y-12146976D02*
X12535903Y-12013643D01*
X12535903Y-11946976D02*
X12526379Y-11956500D01*
X12535903Y-11966024D01*
X12545426Y-11956500D01*
X12535903Y-11946976D01*
X12535903Y-11966024D01*
X12659712Y-12146976D02*
X12640664Y-12137452D01*
X12631141Y-12118405D01*
X12631141Y-11946976D01*
X12764474Y-12146976D02*
X12745426Y-12137452D01*
X12735903Y-12118405D01*
X12735903Y-11946976D01*
X12993045Y-12146976D02*
X12993045Y-11946976D01*
X13059712Y-12089833D01*
X13126379Y-11946976D01*
X13126379Y-12146976D01*
X13307331Y-12146976D02*
X13307331Y-12042214D01*
X13297807Y-12023167D01*
X13278760Y-12013643D01*
X13240664Y-12013643D01*
X13221617Y-12023167D01*
X13307331Y-12137452D02*
X13288284Y-12146976D01*
X13240664Y-12146976D01*
X13221617Y-12137452D01*
X13212093Y-12118405D01*
X13212093Y-12099357D01*
X13221617Y-12080309D01*
X13240664Y-12070786D01*
X13288284Y-12070786D01*
X13307331Y-12061262D01*
X13402569Y-12013643D02*
X13402569Y-12213643D01*
X13402569Y-12023167D02*
X13421617Y-12013643D01*
X13459712Y-12013643D01*
X13478760Y-12023167D01*
X13488284Y-12032690D01*
X13497807Y-12051738D01*
X13497807Y-12108881D01*
X13488284Y-12127928D01*
X13478760Y-12137452D01*
X13459712Y-12146976D01*
X13421617Y-12146976D01*
X13402569Y-12137452D01*
X13583522Y-12127928D02*
X13593045Y-12137452D01*
X13583522Y-12146976D01*
X13573998Y-12137452D01*
X13583522Y-12127928D01*
X13583522Y-12146976D01*
X13583522Y-12023167D02*
X13593045Y-12032690D01*
X13583522Y-12042214D01*
X13573998Y-12032690D01*
X13583522Y-12023167D01*
X13583522Y-12042214D01*
D12*
X11914474Y-12456500D02*
X11954474Y-12496500D01*
X11954474Y-12456500D02*
X11914474Y-12496500D01*
D11*
X12250188Y-12366976D02*
X12269236Y-12366976D01*
X12288284Y-12376500D01*
X12297807Y-12386024D01*
X12307331Y-12405071D01*
X12316855Y-12443167D01*
X12316855Y-12490786D01*
X12307331Y-12528881D01*
X12297807Y-12547928D01*
X12288284Y-12557452D01*
X12269236Y-12566976D01*
X12250188Y-12566976D01*
X12231141Y-12557452D01*
X12221617Y-12547928D01*
X12212093Y-12528881D01*
X12202569Y-12490786D01*
X12202569Y-12443167D01*
X12212093Y-12405071D01*
X12221617Y-12386024D01*
X12231141Y-12376500D01*
X12250188Y-12366976D01*
X12402569Y-12547928D02*
X12412093Y-12557452D01*
X12402569Y-12566976D01*
X12393045Y-12557452D01*
X12402569Y-12547928D01*
X12402569Y-12566976D01*
X12583522Y-12433643D02*
X12583522Y-12566976D01*
X12535903Y-12357452D02*
X12488284Y-12500309D01*
X12612093Y-12500309D01*
X12726379Y-12366976D02*
X12745426Y-12366976D01*
X12764474Y-12376500D01*
X12773998Y-12386024D01*
X12783522Y-12405071D01*
X12793045Y-12443167D01*
X12793045Y-12490786D01*
X12783522Y-12528881D01*
X12773998Y-12547928D01*
X12764474Y-12557452D01*
X12745426Y-12566976D01*
X12726379Y-12566976D01*
X12707331Y-12557452D01*
X12697807Y-12547928D01*
X12688284Y-12528881D01*
X12678760Y-12490786D01*
X12678760Y-12443167D01*
X12688284Y-12405071D01*
X12697807Y-12386024D01*
X12707331Y-12376500D01*
X12726379Y-12366976D01*
X12916855Y-12366976D02*
X12935903Y-12366976D01*
X12954950Y-12376500D01*
X12964474Y-12386024D01*
X12973998Y-12405071D01*
X12983522Y-12443167D01*
X12983522Y-12490786D01*
X12973998Y-12528881D01*
X12964474Y-12547928D01*
X12954950Y-12557452D01*
X12935903Y-12566976D01*
X12916855Y-12566976D01*
X12897807Y-12557452D01*
X12888284Y-12547928D01*
X12878760Y-12528881D01*
X12869236Y-12490786D01*
X12869236Y-12443167D01*
X12878760Y-12405071D01*
X12888284Y-12386024D01*
X12897807Y-12376500D01*
X12916855Y-12366976D01*
X13069236Y-12566976D02*
X13069236Y-12433643D01*
X13069236Y-12452690D02*
X13078760Y-12443167D01*
X13097807Y-12433643D01*
X13126379Y-12433643D01*
X13145426Y-12443167D01*
X13154950Y-12462214D01*
X13154950Y-12566976D01*
X13154950Y-12462214D02*
X13164474Y-12443167D01*
X13183522Y-12433643D01*
X13212093Y-12433643D01*
X13231141Y-12443167D01*
X13240664Y-12462214D01*
X13240664Y-12566976D01*
X13335903Y-12566976D02*
X13335903Y-12433643D01*
X13335903Y-12452690D02*
X13345426Y-12443167D01*
X13364474Y-12433643D01*
X13393045Y-12433643D01*
X13412093Y-12443167D01*
X13421617Y-12462214D01*
X13421617Y-12566976D01*
X13421617Y-12462214D02*
X13431141Y-12443167D01*
X13450188Y-12433643D01*
X13478760Y-12433643D01*
X13497807Y-12443167D01*
X13507331Y-12462214D01*
X13507331Y-12566976D01*
X13897807Y-12357452D02*
X13726379Y-12614595D01*
X14154950Y-12366976D02*
X14173998Y-12366976D01*
X14193045Y-12376500D01*
X14202569Y-12386024D01*
X14212093Y-12405071D01*
X14221617Y-12443167D01*
X14221617Y-12490786D01*
X14212093Y-12528881D01*
X14202569Y-12547928D01*
X14193045Y-12557452D01*
X14173998Y-12566976D01*
X14154950Y-12566976D01*
X14135903Y-12557452D01*
X14126379Y-12547928D01*
X14116855Y-12528881D01*
X14107331Y-12490786D01*
X14107331Y-12443167D01*
X14116855Y-12405071D01*
X14126379Y-12386024D01*
X14135903Y-12376500D01*
X14154950Y-12366976D01*
X14307331Y-12547928D02*
X14316855Y-12557452D01*
X14307331Y-12566976D01*
X14297807Y-12557452D01*
X14307331Y-12547928D01*
X14307331Y-12566976D01*
X14440664Y-12366976D02*
X14459712Y-12366976D01*
X14478760Y-12376500D01*
X14488284Y-12386024D01*
X14497807Y-12405071D01*
X14507331Y-12443167D01*
X14507331Y-12490786D01*
X14497807Y-12528881D01*
X14488284Y-12547928D01*
X14478760Y-12557452D01*
X14459712Y-12566976D01*
X14440664Y-12566976D01*
X14421617Y-12557452D01*
X14412093Y-12547928D01*
X14402569Y-12528881D01*
X14393045Y-12490786D01*
X14393045Y-12443167D01*
X14402569Y-12405071D01*
X14412093Y-12386024D01*
X14421617Y-12376500D01*
X14440664Y-12366976D01*
X14697807Y-12566976D02*
X14583522Y-12566976D01*
X14640664Y-12566976D02*
X14640664Y-12366976D01*
X14621617Y-12395548D01*
X14602569Y-12414595D01*
X14583522Y-12424119D01*
X14878760Y-12366976D02*
X14783522Y-12366976D01*
X14773998Y-12462214D01*
X14783522Y-12452690D01*
X14802569Y-12443167D01*
X14850188Y-12443167D01*
X14869236Y-12452690D01*
X14878760Y-12462214D01*
X14888284Y-12481262D01*
X14888284Y-12528881D01*
X14878760Y-12547928D01*
X14869236Y-12557452D01*
X14850188Y-12566976D01*
X14802569Y-12566976D01*
X14783522Y-12557452D01*
X14773998Y-12547928D01*
X14954950Y-12366976D02*
X15088284Y-12366976D01*
X15002569Y-12566976D01*
X15154950Y-12366976D02*
X15154950Y-12405071D01*
X15231141Y-12366976D02*
X15231141Y-12405071D01*
X15526379Y-12643167D02*
X15516855Y-12633643D01*
X15497807Y-12605071D01*
X15488284Y-12586024D01*
X15478760Y-12557452D01*
X15469236Y-12509833D01*
X15469236Y-12471738D01*
X15478760Y-12424119D01*
X15488284Y-12395548D01*
X15497807Y-12376500D01*
X15516855Y-12347928D01*
X15526379Y-12338405D01*
X15688284Y-12433643D02*
X15688284Y-12566976D01*
X15640664Y-12357452D02*
X15593045Y-12500309D01*
X15716855Y-12500309D01*
X15773998Y-12366976D02*
X15907331Y-12366976D01*
X15821617Y-12566976D01*
X16135903Y-12566976D02*
X16135903Y-12366976D01*
X16221617Y-12566976D02*
X16221617Y-12462214D01*
X16212093Y-12443167D01*
X16193045Y-12433643D01*
X16164474Y-12433643D01*
X16145426Y-12443167D01*
X16135903Y-12452690D01*
X16345426Y-12566976D02*
X16326379Y-12557452D01*
X16316855Y-12547928D01*
X16307331Y-12528881D01*
X16307331Y-12471738D01*
X16316855Y-12452690D01*
X16326379Y-12443167D01*
X16345426Y-12433643D01*
X16373998Y-12433643D01*
X16393045Y-12443167D01*
X16402569Y-12452690D01*
X16412093Y-12471738D01*
X16412093Y-12528881D01*
X16402569Y-12547928D01*
X16393045Y-12557452D01*
X16373998Y-12566976D01*
X16345426Y-12566976D01*
X16526379Y-12566976D02*
X16507331Y-12557452D01*
X16497807Y-12538405D01*
X16497807Y-12366976D01*
X16678760Y-12557452D02*
X16659712Y-12566976D01*
X16621617Y-12566976D01*
X16602569Y-12557452D01*
X16593045Y-12538405D01*
X16593045Y-12462214D01*
X16602569Y-12443167D01*
X16621617Y-12433643D01*
X16659712Y-12433643D01*
X16678760Y-12443167D01*
X16688284Y-12462214D01*
X16688284Y-12481262D01*
X16593045Y-12500309D01*
X16764474Y-12557452D02*
X16783522Y-12566976D01*
X16821617Y-12566976D01*
X16840665Y-12557452D01*
X16850188Y-12538405D01*
X16850188Y-12528881D01*
X16840665Y-12509833D01*
X16821617Y-12500309D01*
X16793046Y-12500309D01*
X16773998Y-12490786D01*
X16764474Y-12471738D01*
X16764474Y-12462214D01*
X16773998Y-12443167D01*
X16793046Y-12433643D01*
X16821617Y-12433643D01*
X16840665Y-12443167D01*
X16916855Y-12643167D02*
X16926379Y-12633643D01*
X16945426Y-12605071D01*
X16954950Y-12586024D01*
X16964474Y-12557452D01*
X16973998Y-12509833D01*
X16973998Y-12471738D01*
X16964474Y-12424119D01*
X16954950Y-12395548D01*
X16945426Y-12376500D01*
X16926379Y-12347928D01*
X16916855Y-12338405D01*
D13*
X11954474Y-12740500D02*
G75*
G03*
X11954474Y-12740500I-25000J0D01*
G01*
D11*
X12250188Y-12630976D02*
X12269236Y-12630976D01*
X12288284Y-12640500D01*
X12297807Y-12650024D01*
X12307331Y-12669071D01*
X12316855Y-12707167D01*
X12316855Y-12754786D01*
X12307331Y-12792881D01*
X12297807Y-12811928D01*
X12288284Y-12821452D01*
X12269236Y-12830976D01*
X12250188Y-12830976D01*
X12231141Y-12821452D01*
X12221617Y-12811928D01*
X12212093Y-12792881D01*
X12202569Y-12754786D01*
X12202569Y-12707167D01*
X12212093Y-12669071D01*
X12221617Y-12650024D01*
X12231141Y-12640500D01*
X12250188Y-12630976D01*
X12402569Y-12811928D02*
X12412093Y-12821452D01*
X12402569Y-12830976D01*
X12393045Y-12821452D01*
X12402569Y-12811928D01*
X12402569Y-12830976D01*
X12593045Y-12630976D02*
X12497807Y-12630976D01*
X12488284Y-12726214D01*
X12497807Y-12716690D01*
X12516855Y-12707167D01*
X12564474Y-12707167D01*
X12583522Y-12716690D01*
X12593045Y-12726214D01*
X12602569Y-12745262D01*
X12602569Y-12792881D01*
X12593045Y-12811928D01*
X12583522Y-12821452D01*
X12564474Y-12830976D01*
X12516855Y-12830976D01*
X12497807Y-12821452D01*
X12488284Y-12811928D01*
X12726379Y-12630976D02*
X12745426Y-12630976D01*
X12764474Y-12640500D01*
X12773998Y-12650024D01*
X12783522Y-12669071D01*
X12793045Y-12707167D01*
X12793045Y-12754786D01*
X12783522Y-12792881D01*
X12773998Y-12811928D01*
X12764474Y-12821452D01*
X12745426Y-12830976D01*
X12726379Y-12830976D01*
X12707331Y-12821452D01*
X12697807Y-12811928D01*
X12688284Y-12792881D01*
X12678760Y-12754786D01*
X12678760Y-12707167D01*
X12688284Y-12669071D01*
X12697807Y-12650024D01*
X12707331Y-12640500D01*
X12726379Y-12630976D01*
X12916855Y-12630976D02*
X12935903Y-12630976D01*
X12954950Y-12640500D01*
X12964474Y-12650024D01*
X12973998Y-12669071D01*
X12983522Y-12707167D01*
X12983522Y-12754786D01*
X12973998Y-12792881D01*
X12964474Y-12811928D01*
X12954950Y-12821452D01*
X12935903Y-12830976D01*
X12916855Y-12830976D01*
X12897807Y-12821452D01*
X12888284Y-12811928D01*
X12878760Y-12792881D01*
X12869236Y-12754786D01*
X12869236Y-12707167D01*
X12878760Y-12669071D01*
X12888284Y-12650024D01*
X12897807Y-12640500D01*
X12916855Y-12630976D01*
X13069236Y-12830976D02*
X13069236Y-12697643D01*
X13069236Y-12716690D02*
X13078760Y-12707167D01*
X13097807Y-12697643D01*
X13126379Y-12697643D01*
X13145426Y-12707167D01*
X13154950Y-12726214D01*
X13154950Y-12830976D01*
X13154950Y-12726214D02*
X13164474Y-12707167D01*
X13183522Y-12697643D01*
X13212093Y-12697643D01*
X13231141Y-12707167D01*
X13240664Y-12726214D01*
X13240664Y-12830976D01*
X13335903Y-12830976D02*
X13335903Y-12697643D01*
X13335903Y-12716690D02*
X13345426Y-12707167D01*
X13364474Y-12697643D01*
X13393045Y-12697643D01*
X13412093Y-12707167D01*
X13421617Y-12726214D01*
X13421617Y-12830976D01*
X13421617Y-12726214D02*
X13431141Y-12707167D01*
X13450188Y-12697643D01*
X13478760Y-12697643D01*
X13497807Y-12707167D01*
X13507331Y-12726214D01*
X13507331Y-12830976D01*
X13897807Y-12621452D02*
X13726379Y-12878595D01*
X14154950Y-12630976D02*
X14173998Y-12630976D01*
X14193045Y-12640500D01*
X14202569Y-12650024D01*
X14212093Y-12669071D01*
X14221617Y-12707167D01*
X14221617Y-12754786D01*
X14212093Y-12792881D01*
X14202569Y-12811928D01*
X14193045Y-12821452D01*
X14173998Y-12830976D01*
X14154950Y-12830976D01*
X14135903Y-12821452D01*
X14126379Y-12811928D01*
X14116855Y-12792881D01*
X14107331Y-12754786D01*
X14107331Y-12707167D01*
X14116855Y-12669071D01*
X14126379Y-12650024D01*
X14135903Y-12640500D01*
X14154950Y-12630976D01*
X14307331Y-12811928D02*
X14316855Y-12821452D01*
X14307331Y-12830976D01*
X14297807Y-12821452D01*
X14307331Y-12811928D01*
X14307331Y-12830976D01*
X14440664Y-12630976D02*
X14459712Y-12630976D01*
X14478760Y-12640500D01*
X14488284Y-12650024D01*
X14497807Y-12669071D01*
X14507331Y-12707167D01*
X14507331Y-12754786D01*
X14497807Y-12792881D01*
X14488284Y-12811928D01*
X14478760Y-12821452D01*
X14459712Y-12830976D01*
X14440664Y-12830976D01*
X14421617Y-12821452D01*
X14412093Y-12811928D01*
X14402569Y-12792881D01*
X14393045Y-12754786D01*
X14393045Y-12707167D01*
X14402569Y-12669071D01*
X14412093Y-12650024D01*
X14421617Y-12640500D01*
X14440664Y-12630976D01*
X14697807Y-12830976D02*
X14583522Y-12830976D01*
X14640664Y-12830976D02*
X14640664Y-12630976D01*
X14621617Y-12659548D01*
X14602569Y-12678595D01*
X14583522Y-12688119D01*
X14793045Y-12830976D02*
X14831141Y-12830976D01*
X14850188Y-12821452D01*
X14859712Y-12811928D01*
X14878760Y-12783357D01*
X14888284Y-12745262D01*
X14888284Y-12669071D01*
X14878760Y-12650024D01*
X14869236Y-12640500D01*
X14850188Y-12630976D01*
X14812093Y-12630976D01*
X14793045Y-12640500D01*
X14783522Y-12650024D01*
X14773998Y-12669071D01*
X14773998Y-12716690D01*
X14783522Y-12735738D01*
X14793045Y-12745262D01*
X14812093Y-12754786D01*
X14850188Y-12754786D01*
X14869236Y-12745262D01*
X14878760Y-12735738D01*
X14888284Y-12716690D01*
X14954950Y-12630976D02*
X15088284Y-12630976D01*
X15002569Y-12830976D01*
X15154950Y-12630976D02*
X15154950Y-12669071D01*
X15231141Y-12630976D02*
X15231141Y-12669071D01*
X15526379Y-12907167D02*
X15516855Y-12897643D01*
X15497807Y-12869071D01*
X15488284Y-12850024D01*
X15478760Y-12821452D01*
X15469236Y-12773833D01*
X15469236Y-12735738D01*
X15478760Y-12688119D01*
X15488284Y-12659548D01*
X15497807Y-12640500D01*
X15516855Y-12611928D01*
X15526379Y-12602405D01*
X15583522Y-12630976D02*
X15707331Y-12630976D01*
X15640664Y-12707167D01*
X15669236Y-12707167D01*
X15688284Y-12716690D01*
X15697807Y-12726214D01*
X15707331Y-12745262D01*
X15707331Y-12792881D01*
X15697807Y-12811928D01*
X15688284Y-12821452D01*
X15669236Y-12830976D01*
X15612093Y-12830976D01*
X15593045Y-12821452D01*
X15583522Y-12811928D01*
X15783522Y-12650024D02*
X15793045Y-12640500D01*
X15812093Y-12630976D01*
X15859712Y-12630976D01*
X15878760Y-12640500D01*
X15888284Y-12650024D01*
X15897807Y-12669071D01*
X15897807Y-12688119D01*
X15888284Y-12716690D01*
X15773998Y-12830976D01*
X15897807Y-12830976D01*
X16135903Y-12830976D02*
X16135903Y-12630976D01*
X16221617Y-12830976D02*
X16221617Y-12726214D01*
X16212093Y-12707167D01*
X16193045Y-12697643D01*
X16164474Y-12697643D01*
X16145426Y-12707167D01*
X16135903Y-12716690D01*
X16345426Y-12830976D02*
X16326379Y-12821452D01*
X16316855Y-12811928D01*
X16307331Y-12792881D01*
X16307331Y-12735738D01*
X16316855Y-12716690D01*
X16326379Y-12707167D01*
X16345426Y-12697643D01*
X16373998Y-12697643D01*
X16393045Y-12707167D01*
X16402569Y-12716690D01*
X16412093Y-12735738D01*
X16412093Y-12792881D01*
X16402569Y-12811928D01*
X16393045Y-12821452D01*
X16373998Y-12830976D01*
X16345426Y-12830976D01*
X16526379Y-12830976D02*
X16507331Y-12821452D01*
X16497807Y-12802405D01*
X16497807Y-12630976D01*
X16678760Y-12821452D02*
X16659712Y-12830976D01*
X16621617Y-12830976D01*
X16602569Y-12821452D01*
X16593045Y-12802405D01*
X16593045Y-12726214D01*
X16602569Y-12707167D01*
X16621617Y-12697643D01*
X16659712Y-12697643D01*
X16678760Y-12707167D01*
X16688284Y-12726214D01*
X16688284Y-12745262D01*
X16593045Y-12764309D01*
X16764474Y-12821452D02*
X16783522Y-12830976D01*
X16821617Y-12830976D01*
X16840665Y-12821452D01*
X16850188Y-12802405D01*
X16850188Y-12792881D01*
X16840665Y-12773833D01*
X16821617Y-12764309D01*
X16793046Y-12764309D01*
X16773998Y-12754786D01*
X16764474Y-12735738D01*
X16764474Y-12726214D01*
X16773998Y-12707167D01*
X16793046Y-12697643D01*
X16821617Y-12697643D01*
X16840665Y-12707167D01*
X16916855Y-12907167D02*
X16926379Y-12897643D01*
X16945426Y-12869071D01*
X16954950Y-12850024D01*
X16964474Y-12821452D01*
X16973998Y-12773833D01*
X16973998Y-12735738D01*
X16964474Y-12688119D01*
X16954950Y-12659548D01*
X16945426Y-12640500D01*
X16926379Y-12611928D01*
X16916855Y-12602405D01*
D14*
X11916974Y-12967000D02*
X11916974Y-13042000D01*
X11879474Y-13004500D02*
X11954474Y-13004500D01*
D11*
X12250188Y-12894976D02*
X12269236Y-12894976D01*
X12288284Y-12904500D01*
X12297807Y-12914024D01*
X12307331Y-12933071D01*
X12316855Y-12971167D01*
X12316855Y-13018786D01*
X12307331Y-13056881D01*
X12297807Y-13075928D01*
X12288284Y-13085452D01*
X12269236Y-13094976D01*
X12250188Y-13094976D01*
X12231141Y-13085452D01*
X12221617Y-13075928D01*
X12212093Y-13056881D01*
X12202569Y-13018786D01*
X12202569Y-12971167D01*
X12212093Y-12933071D01*
X12221617Y-12914024D01*
X12231141Y-12904500D01*
X12250188Y-12894976D01*
X12402569Y-13075928D02*
X12412093Y-13085452D01*
X12402569Y-13094976D01*
X12393045Y-13085452D01*
X12402569Y-13075928D01*
X12402569Y-13094976D01*
X12478760Y-12894976D02*
X12612093Y-12894976D01*
X12526379Y-13094976D01*
X12783522Y-12894976D02*
X12688284Y-12894976D01*
X12678760Y-12990214D01*
X12688284Y-12980690D01*
X12707331Y-12971167D01*
X12754950Y-12971167D01*
X12773998Y-12980690D01*
X12783522Y-12990214D01*
X12793045Y-13009262D01*
X12793045Y-13056881D01*
X12783522Y-13075928D01*
X12773998Y-13085452D01*
X12754950Y-13094976D01*
X12707331Y-13094976D01*
X12688284Y-13085452D01*
X12678760Y-13075928D01*
X12916855Y-12894976D02*
X12935903Y-12894976D01*
X12954950Y-12904500D01*
X12964474Y-12914024D01*
X12973998Y-12933071D01*
X12983522Y-12971167D01*
X12983522Y-13018786D01*
X12973998Y-13056881D01*
X12964474Y-13075928D01*
X12954950Y-13085452D01*
X12935903Y-13094976D01*
X12916855Y-13094976D01*
X12897807Y-13085452D01*
X12888284Y-13075928D01*
X12878760Y-13056881D01*
X12869236Y-13018786D01*
X12869236Y-12971167D01*
X12878760Y-12933071D01*
X12888284Y-12914024D01*
X12897807Y-12904500D01*
X12916855Y-12894976D01*
X13069236Y-13094976D02*
X13069236Y-12961643D01*
X13069236Y-12980690D02*
X13078760Y-12971167D01*
X13097807Y-12961643D01*
X13126379Y-12961643D01*
X13145426Y-12971167D01*
X13154950Y-12990214D01*
X13154950Y-13094976D01*
X13154950Y-12990214D02*
X13164474Y-12971167D01*
X13183522Y-12961643D01*
X13212093Y-12961643D01*
X13231141Y-12971167D01*
X13240664Y-12990214D01*
X13240664Y-13094976D01*
X13335903Y-13094976D02*
X13335903Y-12961643D01*
X13335903Y-12980690D02*
X13345426Y-12971167D01*
X13364474Y-12961643D01*
X13393045Y-12961643D01*
X13412093Y-12971167D01*
X13421617Y-12990214D01*
X13421617Y-13094976D01*
X13421617Y-12990214D02*
X13431141Y-12971167D01*
X13450188Y-12961643D01*
X13478760Y-12961643D01*
X13497807Y-12971167D01*
X13507331Y-12990214D01*
X13507331Y-13094976D01*
X13897807Y-12885452D02*
X13726379Y-13142595D01*
X14154950Y-12894976D02*
X14173998Y-12894976D01*
X14193045Y-12904500D01*
X14202569Y-12914024D01*
X14212093Y-12933071D01*
X14221617Y-12971167D01*
X14221617Y-13018786D01*
X14212093Y-13056881D01*
X14202569Y-13075928D01*
X14193045Y-13085452D01*
X14173998Y-13094976D01*
X14154950Y-13094976D01*
X14135903Y-13085452D01*
X14126379Y-13075928D01*
X14116855Y-13056881D01*
X14107331Y-13018786D01*
X14107331Y-12971167D01*
X14116855Y-12933071D01*
X14126379Y-12914024D01*
X14135903Y-12904500D01*
X14154950Y-12894976D01*
X14307331Y-13075928D02*
X14316855Y-13085452D01*
X14307331Y-13094976D01*
X14297807Y-13085452D01*
X14307331Y-13075928D01*
X14307331Y-13094976D01*
X14440664Y-12894976D02*
X14459712Y-12894976D01*
X14478760Y-12904500D01*
X14488284Y-12914024D01*
X14497807Y-12933071D01*
X14507331Y-12971167D01*
X14507331Y-13018786D01*
X14497807Y-13056881D01*
X14488284Y-13075928D01*
X14478760Y-13085452D01*
X14459712Y-13094976D01*
X14440664Y-13094976D01*
X14421617Y-13085452D01*
X14412093Y-13075928D01*
X14402569Y-13056881D01*
X14393045Y-13018786D01*
X14393045Y-12971167D01*
X14402569Y-12933071D01*
X14412093Y-12914024D01*
X14421617Y-12904500D01*
X14440664Y-12894976D01*
X14583522Y-12914024D02*
X14593045Y-12904500D01*
X14612093Y-12894976D01*
X14659712Y-12894976D01*
X14678760Y-12904500D01*
X14688284Y-12914024D01*
X14697807Y-12933071D01*
X14697807Y-12952119D01*
X14688284Y-12980690D01*
X14573998Y-13094976D01*
X14697807Y-13094976D01*
X14793045Y-13094976D02*
X14831141Y-13094976D01*
X14850188Y-13085452D01*
X14859712Y-13075928D01*
X14878760Y-13047357D01*
X14888284Y-13009262D01*
X14888284Y-12933071D01*
X14878760Y-12914024D01*
X14869236Y-12904500D01*
X14850188Y-12894976D01*
X14812093Y-12894976D01*
X14793045Y-12904500D01*
X14783522Y-12914024D01*
X14773998Y-12933071D01*
X14773998Y-12980690D01*
X14783522Y-12999738D01*
X14793045Y-13009262D01*
X14812093Y-13018786D01*
X14850188Y-13018786D01*
X14869236Y-13009262D01*
X14878760Y-12999738D01*
X14888284Y-12980690D01*
X15069236Y-12894976D02*
X14973998Y-12894976D01*
X14964474Y-12990214D01*
X14973998Y-12980690D01*
X14993045Y-12971167D01*
X15040664Y-12971167D01*
X15059712Y-12980690D01*
X15069236Y-12990214D01*
X15078760Y-13009262D01*
X15078760Y-13056881D01*
X15069236Y-13075928D01*
X15059712Y-13085452D01*
X15040664Y-13094976D01*
X14993045Y-13094976D01*
X14973998Y-13085452D01*
X14964474Y-13075928D01*
X15154950Y-12894976D02*
X15154950Y-12933071D01*
X15231141Y-12894976D02*
X15231141Y-12933071D01*
X15526379Y-13171167D02*
X15516855Y-13161643D01*
X15497807Y-13133071D01*
X15488284Y-13114024D01*
X15478760Y-13085452D01*
X15469236Y-13037833D01*
X15469236Y-12999738D01*
X15478760Y-12952119D01*
X15488284Y-12923548D01*
X15497807Y-12904500D01*
X15516855Y-12875928D01*
X15526379Y-12866405D01*
X15631141Y-12980690D02*
X15612093Y-12971167D01*
X15602569Y-12961643D01*
X15593045Y-12942595D01*
X15593045Y-12933071D01*
X15602569Y-12914024D01*
X15612093Y-12904500D01*
X15631141Y-12894976D01*
X15669236Y-12894976D01*
X15688284Y-12904500D01*
X15697807Y-12914024D01*
X15707331Y-12933071D01*
X15707331Y-12942595D01*
X15697807Y-12961643D01*
X15688284Y-12971167D01*
X15669236Y-12980690D01*
X15631141Y-12980690D01*
X15612093Y-12990214D01*
X15602569Y-12999738D01*
X15593045Y-13018786D01*
X15593045Y-13056881D01*
X15602569Y-13075928D01*
X15612093Y-13085452D01*
X15631141Y-13094976D01*
X15669236Y-13094976D01*
X15688284Y-13085452D01*
X15697807Y-13075928D01*
X15707331Y-13056881D01*
X15707331Y-13018786D01*
X15697807Y-12999738D01*
X15688284Y-12990214D01*
X15669236Y-12980690D01*
X15945426Y-13094976D02*
X15945426Y-12894976D01*
X16031141Y-13094976D02*
X16031141Y-12990214D01*
X16021617Y-12971167D01*
X16002569Y-12961643D01*
X15973998Y-12961643D01*
X15954950Y-12971167D01*
X15945426Y-12980690D01*
X16154950Y-13094976D02*
X16135903Y-13085452D01*
X16126379Y-13075928D01*
X16116855Y-13056881D01*
X16116855Y-12999738D01*
X16126379Y-12980690D01*
X16135903Y-12971167D01*
X16154950Y-12961643D01*
X16183522Y-12961643D01*
X16202569Y-12971167D01*
X16212093Y-12980690D01*
X16221617Y-12999738D01*
X16221617Y-13056881D01*
X16212093Y-13075928D01*
X16202569Y-13085452D01*
X16183522Y-13094976D01*
X16154950Y-13094976D01*
X16335903Y-13094976D02*
X16316855Y-13085452D01*
X16307331Y-13066405D01*
X16307331Y-12894976D01*
X16488284Y-13085452D02*
X16469236Y-13094976D01*
X16431141Y-13094976D01*
X16412093Y-13085452D01*
X16402569Y-13066405D01*
X16402569Y-12990214D01*
X16412093Y-12971167D01*
X16431141Y-12961643D01*
X16469236Y-12961643D01*
X16488284Y-12971167D01*
X16497807Y-12990214D01*
X16497807Y-13009262D01*
X16402569Y-13028309D01*
X16573998Y-13085452D02*
X16593045Y-13094976D01*
X16631141Y-13094976D01*
X16650188Y-13085452D01*
X16659712Y-13066405D01*
X16659712Y-13056881D01*
X16650188Y-13037833D01*
X16631141Y-13028309D01*
X16602569Y-13028309D01*
X16583522Y-13018786D01*
X16573998Y-12999738D01*
X16573998Y-12990214D01*
X16583522Y-12971167D01*
X16602569Y-12961643D01*
X16631141Y-12961643D01*
X16650188Y-12971167D01*
X16726379Y-13171167D02*
X16735903Y-13161643D01*
X16754950Y-13133071D01*
X16764474Y-13114024D01*
X16773998Y-13085452D01*
X16783522Y-13037833D01*
X16783522Y-12999738D01*
X16773998Y-12952119D01*
X16764474Y-12923548D01*
X16754950Y-12904500D01*
X16735903Y-12875928D01*
X16726379Y-12866405D01*
D15*
X11942759Y-13296784D02*
X11942759Y-13240215D01*
X11886190Y-13240215D01*
X11886190Y-13296784D01*
X11942759Y-13296784D01*
D11*
X12250188Y-13158976D02*
X12269236Y-13158976D01*
X12288284Y-13168500D01*
X12297807Y-13178024D01*
X12307331Y-13197071D01*
X12316855Y-13235167D01*
X12316855Y-13282786D01*
X12307331Y-13320881D01*
X12297807Y-13339928D01*
X12288284Y-13349452D01*
X12269236Y-13358976D01*
X12250188Y-13358976D01*
X12231141Y-13349452D01*
X12221617Y-13339928D01*
X12212093Y-13320881D01*
X12202569Y-13282786D01*
X12202569Y-13235167D01*
X12212093Y-13197071D01*
X12221617Y-13178024D01*
X12231141Y-13168500D01*
X12250188Y-13158976D01*
X12402569Y-13339928D02*
X12412093Y-13349452D01*
X12402569Y-13358976D01*
X12393045Y-13349452D01*
X12402569Y-13339928D01*
X12402569Y-13358976D01*
X12526379Y-13244690D02*
X12507331Y-13235167D01*
X12497807Y-13225643D01*
X12488284Y-13206595D01*
X12488284Y-13197071D01*
X12497807Y-13178024D01*
X12507331Y-13168500D01*
X12526379Y-13158976D01*
X12564474Y-13158976D01*
X12583522Y-13168500D01*
X12593045Y-13178024D01*
X12602569Y-13197071D01*
X12602569Y-13206595D01*
X12593045Y-13225643D01*
X12583522Y-13235167D01*
X12564474Y-13244690D01*
X12526379Y-13244690D01*
X12507331Y-13254214D01*
X12497807Y-13263738D01*
X12488284Y-13282786D01*
X12488284Y-13320881D01*
X12497807Y-13339928D01*
X12507331Y-13349452D01*
X12526379Y-13358976D01*
X12564474Y-13358976D01*
X12583522Y-13349452D01*
X12593045Y-13339928D01*
X12602569Y-13320881D01*
X12602569Y-13282786D01*
X12593045Y-13263738D01*
X12583522Y-13254214D01*
X12564474Y-13244690D01*
X12726379Y-13158976D02*
X12745426Y-13158976D01*
X12764474Y-13168500D01*
X12773998Y-13178024D01*
X12783522Y-13197071D01*
X12793045Y-13235167D01*
X12793045Y-13282786D01*
X12783522Y-13320881D01*
X12773998Y-13339928D01*
X12764474Y-13349452D01*
X12745426Y-13358976D01*
X12726379Y-13358976D01*
X12707331Y-13349452D01*
X12697807Y-13339928D01*
X12688284Y-13320881D01*
X12678760Y-13282786D01*
X12678760Y-13235167D01*
X12688284Y-13197071D01*
X12697807Y-13178024D01*
X12707331Y-13168500D01*
X12726379Y-13158976D01*
X12916855Y-13158976D02*
X12935903Y-13158976D01*
X12954950Y-13168500D01*
X12964474Y-13178024D01*
X12973998Y-13197071D01*
X12983522Y-13235167D01*
X12983522Y-13282786D01*
X12973998Y-13320881D01*
X12964474Y-13339928D01*
X12954950Y-13349452D01*
X12935903Y-13358976D01*
X12916855Y-13358976D01*
X12897807Y-13349452D01*
X12888284Y-13339928D01*
X12878760Y-13320881D01*
X12869236Y-13282786D01*
X12869236Y-13235167D01*
X12878760Y-13197071D01*
X12888284Y-13178024D01*
X12897807Y-13168500D01*
X12916855Y-13158976D01*
X13069236Y-13358976D02*
X13069236Y-13225643D01*
X13069236Y-13244690D02*
X13078760Y-13235167D01*
X13097807Y-13225643D01*
X13126379Y-13225643D01*
X13145426Y-13235167D01*
X13154950Y-13254214D01*
X13154950Y-13358976D01*
X13154950Y-13254214D02*
X13164474Y-13235167D01*
X13183522Y-13225643D01*
X13212093Y-13225643D01*
X13231141Y-13235167D01*
X13240664Y-13254214D01*
X13240664Y-13358976D01*
X13335903Y-13358976D02*
X13335903Y-13225643D01*
X13335903Y-13244690D02*
X13345426Y-13235167D01*
X13364474Y-13225643D01*
X13393045Y-13225643D01*
X13412093Y-13235167D01*
X13421617Y-13254214D01*
X13421617Y-13358976D01*
X13421617Y-13254214D02*
X13431141Y-13235167D01*
X13450188Y-13225643D01*
X13478760Y-13225643D01*
X13497807Y-13235167D01*
X13507331Y-13254214D01*
X13507331Y-13358976D01*
X13897807Y-13149452D02*
X13726379Y-13406595D01*
X14154950Y-13158976D02*
X14173998Y-13158976D01*
X14193045Y-13168500D01*
X14202569Y-13178024D01*
X14212093Y-13197071D01*
X14221617Y-13235167D01*
X14221617Y-13282786D01*
X14212093Y-13320881D01*
X14202569Y-13339928D01*
X14193045Y-13349452D01*
X14173998Y-13358976D01*
X14154950Y-13358976D01*
X14135903Y-13349452D01*
X14126379Y-13339928D01*
X14116855Y-13320881D01*
X14107331Y-13282786D01*
X14107331Y-13235167D01*
X14116855Y-13197071D01*
X14126379Y-13178024D01*
X14135903Y-13168500D01*
X14154950Y-13158976D01*
X14307331Y-13339928D02*
X14316855Y-13349452D01*
X14307331Y-13358976D01*
X14297807Y-13349452D01*
X14307331Y-13339928D01*
X14307331Y-13358976D01*
X14440664Y-13158976D02*
X14459712Y-13158976D01*
X14478760Y-13168500D01*
X14488284Y-13178024D01*
X14497807Y-13197071D01*
X14507331Y-13235167D01*
X14507331Y-13282786D01*
X14497807Y-13320881D01*
X14488284Y-13339928D01*
X14478760Y-13349452D01*
X14459712Y-13358976D01*
X14440664Y-13358976D01*
X14421617Y-13349452D01*
X14412093Y-13339928D01*
X14402569Y-13320881D01*
X14393045Y-13282786D01*
X14393045Y-13235167D01*
X14402569Y-13197071D01*
X14412093Y-13178024D01*
X14421617Y-13168500D01*
X14440664Y-13158976D01*
X14573998Y-13158976D02*
X14697807Y-13158976D01*
X14631141Y-13235167D01*
X14659712Y-13235167D01*
X14678760Y-13244690D01*
X14688284Y-13254214D01*
X14697807Y-13273262D01*
X14697807Y-13320881D01*
X14688284Y-13339928D01*
X14678760Y-13349452D01*
X14659712Y-13358976D01*
X14602569Y-13358976D01*
X14583522Y-13349452D01*
X14573998Y-13339928D01*
X14888284Y-13358976D02*
X14773998Y-13358976D01*
X14831141Y-13358976D02*
X14831141Y-13158976D01*
X14812093Y-13187548D01*
X14793045Y-13206595D01*
X14773998Y-13216119D01*
X15069236Y-13158976D02*
X14973998Y-13158976D01*
X14964474Y-13254214D01*
X14973998Y-13244690D01*
X14993045Y-13235167D01*
X15040664Y-13235167D01*
X15059712Y-13244690D01*
X15069236Y-13254214D01*
X15078760Y-13273262D01*
X15078760Y-13320881D01*
X15069236Y-13339928D01*
X15059712Y-13349452D01*
X15040664Y-13358976D01*
X14993045Y-13358976D01*
X14973998Y-13349452D01*
X14964474Y-13339928D01*
X15154950Y-13158976D02*
X15154950Y-13197071D01*
X15231141Y-13158976D02*
X15231141Y-13197071D01*
X15526379Y-13435167D02*
X15516855Y-13425643D01*
X15497807Y-13397071D01*
X15488284Y-13378024D01*
X15478760Y-13349452D01*
X15469236Y-13301833D01*
X15469236Y-13263738D01*
X15478760Y-13216119D01*
X15488284Y-13187548D01*
X15497807Y-13168500D01*
X15516855Y-13139928D01*
X15526379Y-13130405D01*
X15707331Y-13358976D02*
X15593045Y-13358976D01*
X15650188Y-13358976D02*
X15650188Y-13158976D01*
X15631141Y-13187548D01*
X15612093Y-13206595D01*
X15593045Y-13216119D01*
X15878760Y-13158976D02*
X15840664Y-13158976D01*
X15821617Y-13168500D01*
X15812093Y-13178024D01*
X15793045Y-13206595D01*
X15783522Y-13244690D01*
X15783522Y-13320881D01*
X15793045Y-13339928D01*
X15802569Y-13349452D01*
X15821617Y-13358976D01*
X15859712Y-13358976D01*
X15878760Y-13349452D01*
X15888284Y-13339928D01*
X15897807Y-13320881D01*
X15897807Y-13273262D01*
X15888284Y-13254214D01*
X15878760Y-13244690D01*
X15859712Y-13235167D01*
X15821617Y-13235167D01*
X15802569Y-13244690D01*
X15793045Y-13254214D01*
X15783522Y-13273262D01*
X16135903Y-13358976D02*
X16135903Y-13158976D01*
X16221617Y-13358976D02*
X16221617Y-13254214D01*
X16212093Y-13235167D01*
X16193045Y-13225643D01*
X16164474Y-13225643D01*
X16145426Y-13235167D01*
X16135903Y-13244690D01*
X16345426Y-13358976D02*
X16326379Y-13349452D01*
X16316855Y-13339928D01*
X16307331Y-13320881D01*
X16307331Y-13263738D01*
X16316855Y-13244690D01*
X16326379Y-13235167D01*
X16345426Y-13225643D01*
X16373998Y-13225643D01*
X16393045Y-13235167D01*
X16402569Y-13244690D01*
X16412093Y-13263738D01*
X16412093Y-13320881D01*
X16402569Y-13339928D01*
X16393045Y-13349452D01*
X16373998Y-13358976D01*
X16345426Y-13358976D01*
X16526379Y-13358976D02*
X16507331Y-13349452D01*
X16497807Y-13330405D01*
X16497807Y-13158976D01*
X16678760Y-13349452D02*
X16659712Y-13358976D01*
X16621617Y-13358976D01*
X16602569Y-13349452D01*
X16593045Y-13330405D01*
X16593045Y-13254214D01*
X16602569Y-13235167D01*
X16621617Y-13225643D01*
X16659712Y-13225643D01*
X16678760Y-13235167D01*
X16688284Y-13254214D01*
X16688284Y-13273262D01*
X16593045Y-13292309D01*
X16764474Y-13349452D02*
X16783522Y-13358976D01*
X16821617Y-13358976D01*
X16840665Y-13349452D01*
X16850188Y-13330405D01*
X16850188Y-13320881D01*
X16840665Y-13301833D01*
X16821617Y-13292309D01*
X16793046Y-13292309D01*
X16773998Y-13282786D01*
X16764474Y-13263738D01*
X16764474Y-13254214D01*
X16773998Y-13235167D01*
X16793046Y-13225643D01*
X16821617Y-13225643D01*
X16840665Y-13235167D01*
X16916855Y-13435167D02*
X16926379Y-13425643D01*
X16945426Y-13397071D01*
X16954950Y-13378024D01*
X16964474Y-13349452D01*
X16973998Y-13301833D01*
X16973998Y-13263738D01*
X16964474Y-13216119D01*
X16954950Y-13187548D01*
X16945426Y-13168500D01*
X16926379Y-13139928D01*
X16916855Y-13130405D01*
X11854474Y-13632500D02*
X11954474Y-13532500D01*
X11854474Y-13432500D01*
X11754474Y-13532500D01*
X11854474Y-13632500D01*
X12193045Y-13422976D02*
X12316855Y-13422976D01*
X12250188Y-13499167D01*
X12278760Y-13499167D01*
X12297807Y-13508690D01*
X12307331Y-13518214D01*
X12316855Y-13537262D01*
X12316855Y-13584881D01*
X12307331Y-13603928D01*
X12297807Y-13613452D01*
X12278760Y-13622976D01*
X12221617Y-13622976D01*
X12202569Y-13613452D01*
X12193045Y-13603928D01*
X12402569Y-13603928D02*
X12412093Y-13613452D01*
X12402569Y-13622976D01*
X12393045Y-13613452D01*
X12402569Y-13603928D01*
X12402569Y-13622976D01*
X12488284Y-13442024D02*
X12497807Y-13432500D01*
X12516855Y-13422976D01*
X12564474Y-13422976D01*
X12583522Y-13432500D01*
X12593045Y-13442024D01*
X12602569Y-13461071D01*
X12602569Y-13480119D01*
X12593045Y-13508690D01*
X12478760Y-13622976D01*
X12602569Y-13622976D01*
X12726379Y-13422976D02*
X12745426Y-13422976D01*
X12764474Y-13432500D01*
X12773998Y-13442024D01*
X12783522Y-13461071D01*
X12793045Y-13499167D01*
X12793045Y-13546786D01*
X12783522Y-13584881D01*
X12773998Y-13603928D01*
X12764474Y-13613452D01*
X12745426Y-13622976D01*
X12726379Y-13622976D01*
X12707331Y-13613452D01*
X12697807Y-13603928D01*
X12688284Y-13584881D01*
X12678760Y-13546786D01*
X12678760Y-13499167D01*
X12688284Y-13461071D01*
X12697807Y-13442024D01*
X12707331Y-13432500D01*
X12726379Y-13422976D01*
X12916855Y-13422976D02*
X12935903Y-13422976D01*
X12954950Y-13432500D01*
X12964474Y-13442024D01*
X12973998Y-13461071D01*
X12983522Y-13499167D01*
X12983522Y-13546786D01*
X12973998Y-13584881D01*
X12964474Y-13603928D01*
X12954950Y-13613452D01*
X12935903Y-13622976D01*
X12916855Y-13622976D01*
X12897807Y-13613452D01*
X12888284Y-13603928D01*
X12878760Y-13584881D01*
X12869236Y-13546786D01*
X12869236Y-13499167D01*
X12878760Y-13461071D01*
X12888284Y-13442024D01*
X12897807Y-13432500D01*
X12916855Y-13422976D01*
X13069236Y-13622976D02*
X13069236Y-13489643D01*
X13069236Y-13508690D02*
X13078760Y-13499167D01*
X13097807Y-13489643D01*
X13126379Y-13489643D01*
X13145426Y-13499167D01*
X13154950Y-13518214D01*
X13154950Y-13622976D01*
X13154950Y-13518214D02*
X13164474Y-13499167D01*
X13183522Y-13489643D01*
X13212093Y-13489643D01*
X13231141Y-13499167D01*
X13240664Y-13518214D01*
X13240664Y-13622976D01*
X13335903Y-13622976D02*
X13335903Y-13489643D01*
X13335903Y-13508690D02*
X13345426Y-13499167D01*
X13364474Y-13489643D01*
X13393045Y-13489643D01*
X13412093Y-13499167D01*
X13421617Y-13518214D01*
X13421617Y-13622976D01*
X13421617Y-13518214D02*
X13431141Y-13499167D01*
X13450188Y-13489643D01*
X13478760Y-13489643D01*
X13497807Y-13499167D01*
X13507331Y-13518214D01*
X13507331Y-13622976D01*
X13897807Y-13413452D02*
X13726379Y-13670595D01*
X14154950Y-13422976D02*
X14173998Y-13422976D01*
X14193045Y-13432500D01*
X14202569Y-13442024D01*
X14212093Y-13461071D01*
X14221617Y-13499167D01*
X14221617Y-13546786D01*
X14212093Y-13584881D01*
X14202569Y-13603928D01*
X14193045Y-13613452D01*
X14173998Y-13622976D01*
X14154950Y-13622976D01*
X14135903Y-13613452D01*
X14126379Y-13603928D01*
X14116855Y-13584881D01*
X14107331Y-13546786D01*
X14107331Y-13499167D01*
X14116855Y-13461071D01*
X14126379Y-13442024D01*
X14135903Y-13432500D01*
X14154950Y-13422976D01*
X14307331Y-13603928D02*
X14316855Y-13613452D01*
X14307331Y-13622976D01*
X14297807Y-13613452D01*
X14307331Y-13603928D01*
X14307331Y-13622976D01*
X14507331Y-13622976D02*
X14393045Y-13622976D01*
X14450188Y-13622976D02*
X14450188Y-13422976D01*
X14431141Y-13451548D01*
X14412093Y-13470595D01*
X14393045Y-13480119D01*
X14583522Y-13442024D02*
X14593045Y-13432500D01*
X14612093Y-13422976D01*
X14659712Y-13422976D01*
X14678760Y-13432500D01*
X14688284Y-13442024D01*
X14697807Y-13461071D01*
X14697807Y-13480119D01*
X14688284Y-13508690D01*
X14573998Y-13622976D01*
X14697807Y-13622976D01*
X14869236Y-13422976D02*
X14831141Y-13422976D01*
X14812093Y-13432500D01*
X14802569Y-13442024D01*
X14783522Y-13470595D01*
X14773998Y-13508690D01*
X14773998Y-13584881D01*
X14783522Y-13603928D01*
X14793045Y-13613452D01*
X14812093Y-13622976D01*
X14850188Y-13622976D01*
X14869236Y-13613452D01*
X14878760Y-13603928D01*
X14888284Y-13584881D01*
X14888284Y-13537262D01*
X14878760Y-13518214D01*
X14869236Y-13508690D01*
X14850188Y-13499167D01*
X14812093Y-13499167D01*
X14793045Y-13508690D01*
X14783522Y-13518214D01*
X14773998Y-13537262D01*
X15012093Y-13422976D02*
X15031141Y-13422976D01*
X15050188Y-13432500D01*
X15059712Y-13442024D01*
X15069236Y-13461071D01*
X15078760Y-13499167D01*
X15078760Y-13546786D01*
X15069236Y-13584881D01*
X15059712Y-13603928D01*
X15050188Y-13613452D01*
X15031141Y-13622976D01*
X15012093Y-13622976D01*
X14993045Y-13613452D01*
X14983522Y-13603928D01*
X14973998Y-13584881D01*
X14964474Y-13546786D01*
X14964474Y-13499167D01*
X14973998Y-13461071D01*
X14983522Y-13442024D01*
X14993045Y-13432500D01*
X15012093Y-13422976D01*
X15154950Y-13422976D02*
X15154950Y-13461071D01*
X15231141Y-13422976D02*
X15231141Y-13461071D01*
X15526379Y-13699167D02*
X15516855Y-13689643D01*
X15497807Y-13661071D01*
X15488284Y-13642024D01*
X15478760Y-13613452D01*
X15469236Y-13565833D01*
X15469236Y-13527738D01*
X15478760Y-13480119D01*
X15488284Y-13451548D01*
X15497807Y-13432500D01*
X15516855Y-13403928D01*
X15526379Y-13394405D01*
X15688284Y-13489643D02*
X15688284Y-13622976D01*
X15640664Y-13413452D02*
X15593045Y-13556309D01*
X15716855Y-13556309D01*
X15945426Y-13622976D02*
X15945426Y-13422976D01*
X16031141Y-13622976D02*
X16031141Y-13518214D01*
X16021617Y-13499167D01*
X16002569Y-13489643D01*
X15973998Y-13489643D01*
X15954950Y-13499167D01*
X15945426Y-13508690D01*
X16154950Y-13622976D02*
X16135903Y-13613452D01*
X16126379Y-13603928D01*
X16116855Y-13584881D01*
X16116855Y-13527738D01*
X16126379Y-13508690D01*
X16135903Y-13499167D01*
X16154950Y-13489643D01*
X16183522Y-13489643D01*
X16202569Y-13499167D01*
X16212093Y-13508690D01*
X16221617Y-13527738D01*
X16221617Y-13584881D01*
X16212093Y-13603928D01*
X16202569Y-13613452D01*
X16183522Y-13622976D01*
X16154950Y-13622976D01*
X16335903Y-13622976D02*
X16316855Y-13613452D01*
X16307331Y-13594405D01*
X16307331Y-13422976D01*
X16488284Y-13613452D02*
X16469236Y-13622976D01*
X16431141Y-13622976D01*
X16412093Y-13613452D01*
X16402569Y-13594405D01*
X16402569Y-13518214D01*
X16412093Y-13499167D01*
X16431141Y-13489643D01*
X16469236Y-13489643D01*
X16488284Y-13499167D01*
X16497807Y-13518214D01*
X16497807Y-13537262D01*
X16402569Y-13556309D01*
X16573998Y-13613452D02*
X16593045Y-13622976D01*
X16631141Y-13622976D01*
X16650188Y-13613452D01*
X16659712Y-13594405D01*
X16659712Y-13584881D01*
X16650188Y-13565833D01*
X16631141Y-13556309D01*
X16602569Y-13556309D01*
X16583522Y-13546786D01*
X16573998Y-13527738D01*
X16573998Y-13518214D01*
X16583522Y-13499167D01*
X16602569Y-13489643D01*
X16631141Y-13489643D01*
X16650188Y-13499167D01*
X16726379Y-13699167D02*
X16735903Y-13689643D01*
X16754950Y-13661071D01*
X16764474Y-13642024D01*
X16773998Y-13613452D01*
X16783522Y-13565833D01*
X16783522Y-13527738D01*
X16773998Y-13480119D01*
X16764474Y-13451548D01*
X16754950Y-13432500D01*
X16735903Y-13403928D01*
X16726379Y-13394405D01*
M02*
