%TF.GenerationSoftware,KiCad,Pcbnew,6.0.11-2627ca5db0~126~ubuntu22.04.1*%
%TF.CreationDate,2023-02-23T11:24:01+01:00*%
%TF.ProjectId,motordriver,6d6f746f-7264-4726-9976-65722e6b6963,rev?*%
%TF.SameCoordinates,Original*%
%TF.FileFunction,Legend,Top*%
%TF.FilePolarity,Positive*%
%FSLAX46Y46*%
G04 Gerber Fmt 4.6, Leading zero omitted, Abs format (unit mm)*
G04 Created by KiCad (PCBNEW 6.0.11-2627ca5db0~126~ubuntu22.04.1) date 2023-02-23 11:24:01*
%MOMM*%
%LPD*%
G01*
G04 APERTURE LIST*
G04 Aperture macros list*
%AMRoundRect*
0 Rectangle with rounded corners*
0 $1 Rounding radius*
0 $2 $3 $4 $5 $6 $7 $8 $9 X,Y pos of 4 corners*
0 Add a 4 corners polygon primitive as box body*
4,1,4,$2,$3,$4,$5,$6,$7,$8,$9,$2,$3,0*
0 Add four circle primitives for the rounded corners*
1,1,$1+$1,$2,$3*
1,1,$1+$1,$4,$5*
1,1,$1+$1,$6,$7*
1,1,$1+$1,$8,$9*
0 Add four rect primitives between the rounded corners*
20,1,$1+$1,$2,$3,$4,$5,0*
20,1,$1+$1,$4,$5,$6,$7,0*
20,1,$1+$1,$6,$7,$8,$9,0*
20,1,$1+$1,$8,$9,$2,$3,0*%
G04 Aperture macros list end*
%ADD10C,0.150000*%
%ADD11C,0.010000*%
%ADD12C,0.120000*%
%ADD13RoundRect,0.250000X-0.625000X0.350000X-0.625000X-0.350000X0.625000X-0.350000X0.625000X0.350000X0*%
%ADD14O,1.750000X1.200000*%
%ADD15RoundRect,0.250000X-0.625000X0.312500X-0.625000X-0.312500X0.625000X-0.312500X0.625000X0.312500X0*%
%ADD16R,2.400000X1.600000*%
%ADD17O,2.400000X1.600000*%
%ADD18C,0.800000*%
%ADD19C,6.400000*%
%ADD20RoundRect,0.250000X0.625000X-0.350000X0.625000X0.350000X-0.625000X0.350000X-0.625000X-0.350000X0*%
%ADD21RoundRect,0.250000X0.650000X-0.325000X0.650000X0.325000X-0.650000X0.325000X-0.650000X-0.325000X0*%
G04 APERTURE END LIST*
D10*
%TO.C,SW1*%
X159654761Y-108248333D02*
X159702380Y-108105476D01*
X159702380Y-107867380D01*
X159654761Y-107772142D01*
X159607142Y-107724523D01*
X159511904Y-107676904D01*
X159416666Y-107676904D01*
X159321428Y-107724523D01*
X159273809Y-107772142D01*
X159226190Y-107867380D01*
X159178571Y-108057857D01*
X159130952Y-108153095D01*
X159083333Y-108200714D01*
X158988095Y-108248333D01*
X158892857Y-108248333D01*
X158797619Y-108200714D01*
X158750000Y-108153095D01*
X158702380Y-108057857D01*
X158702380Y-107819761D01*
X158750000Y-107676904D01*
X158702380Y-107343571D02*
X159702380Y-107105476D01*
X158988095Y-106915000D01*
X159702380Y-106724523D01*
X158702380Y-106486428D01*
X159702380Y-105581666D02*
X159702380Y-106153095D01*
X159702380Y-105867380D02*
X158702380Y-105867380D01*
X158845238Y-105962619D01*
X158940476Y-106057857D01*
X158988095Y-106153095D01*
%TO.C,R3*%
X134833333Y-95852380D02*
X134500000Y-95376190D01*
X134261904Y-95852380D02*
X134261904Y-94852380D01*
X134642857Y-94852380D01*
X134738095Y-94900000D01*
X134785714Y-94947619D01*
X134833333Y-95042857D01*
X134833333Y-95185714D01*
X134785714Y-95280952D01*
X134738095Y-95328571D01*
X134642857Y-95376190D01*
X134261904Y-95376190D01*
X135166666Y-94852380D02*
X135785714Y-94852380D01*
X135452380Y-95233333D01*
X135595238Y-95233333D01*
X135690476Y-95280952D01*
X135738095Y-95328571D01*
X135785714Y-95423809D01*
X135785714Y-95661904D01*
X135738095Y-95757142D01*
X135690476Y-95804761D01*
X135595238Y-95852380D01*
X135309523Y-95852380D01*
X135214285Y-95804761D01*
X135166666Y-95757142D01*
%TO.C,U1*%
X149638095Y-96452380D02*
X149638095Y-97261904D01*
X149685714Y-97357142D01*
X149733333Y-97404761D01*
X149828571Y-97452380D01*
X150019047Y-97452380D01*
X150114285Y-97404761D01*
X150161904Y-97357142D01*
X150209523Y-97261904D01*
X150209523Y-96452380D01*
X151209523Y-97452380D02*
X150638095Y-97452380D01*
X150923809Y-97452380D02*
X150923809Y-96452380D01*
X150828571Y-96595238D01*
X150733333Y-96690476D01*
X150638095Y-96738095D01*
%TO.C,M1*%
X120952380Y-100124523D02*
X119952380Y-100124523D01*
X120666666Y-99791190D01*
X119952380Y-99457857D01*
X120952380Y-99457857D01*
X120952380Y-98457857D02*
X120952380Y-99029285D01*
X120952380Y-98743571D02*
X119952380Y-98743571D01*
X120095238Y-98838809D01*
X120190476Y-98934047D01*
X120238095Y-99029285D01*
%TO.C,R4*%
X138033333Y-95852380D02*
X137700000Y-95376190D01*
X137461904Y-95852380D02*
X137461904Y-94852380D01*
X137842857Y-94852380D01*
X137938095Y-94900000D01*
X137985714Y-94947619D01*
X138033333Y-95042857D01*
X138033333Y-95185714D01*
X137985714Y-95280952D01*
X137938095Y-95328571D01*
X137842857Y-95376190D01*
X137461904Y-95376190D01*
X138890476Y-95185714D02*
X138890476Y-95852380D01*
X138652380Y-94804761D02*
X138414285Y-95519047D01*
X139033333Y-95519047D01*
%TO.C,C2*%
X131633333Y-95757142D02*
X131585714Y-95804761D01*
X131442857Y-95852380D01*
X131347619Y-95852380D01*
X131204761Y-95804761D01*
X131109523Y-95709523D01*
X131061904Y-95614285D01*
X131014285Y-95423809D01*
X131014285Y-95280952D01*
X131061904Y-95090476D01*
X131109523Y-94995238D01*
X131204761Y-94900000D01*
X131347619Y-94852380D01*
X131442857Y-94852380D01*
X131585714Y-94900000D01*
X131633333Y-94947619D01*
X132014285Y-94947619D02*
X132061904Y-94900000D01*
X132157142Y-94852380D01*
X132395238Y-94852380D01*
X132490476Y-94900000D01*
X132538095Y-94947619D01*
X132585714Y-95042857D01*
X132585714Y-95138095D01*
X132538095Y-95280952D01*
X131966666Y-95852380D01*
X132585714Y-95852380D01*
%TO.C,U2*%
X128438095Y-96452380D02*
X128438095Y-97261904D01*
X128485714Y-97357142D01*
X128533333Y-97404761D01*
X128628571Y-97452380D01*
X128819047Y-97452380D01*
X128914285Y-97404761D01*
X128961904Y-97357142D01*
X129009523Y-97261904D01*
X129009523Y-96452380D01*
X129438095Y-96547619D02*
X129485714Y-96500000D01*
X129580952Y-96452380D01*
X129819047Y-96452380D01*
X129914285Y-96500000D01*
X129961904Y-96547619D01*
X130009523Y-96642857D01*
X130009523Y-96738095D01*
X129961904Y-96880952D01*
X129390476Y-97452380D01*
X130009523Y-97452380D01*
%TO.C,R2*%
X141033333Y-95852380D02*
X140700000Y-95376190D01*
X140461904Y-95852380D02*
X140461904Y-94852380D01*
X140842857Y-94852380D01*
X140938095Y-94900000D01*
X140985714Y-94947619D01*
X141033333Y-95042857D01*
X141033333Y-95185714D01*
X140985714Y-95280952D01*
X140938095Y-95328571D01*
X140842857Y-95376190D01*
X140461904Y-95376190D01*
X141414285Y-94947619D02*
X141461904Y-94900000D01*
X141557142Y-94852380D01*
X141795238Y-94852380D01*
X141890476Y-94900000D01*
X141938095Y-94947619D01*
X141985714Y-95042857D01*
X141985714Y-95138095D01*
X141938095Y-95280952D01*
X141366666Y-95852380D01*
X141985714Y-95852380D01*
%TO.C,SW2*%
X159654761Y-100648333D02*
X159702380Y-100505476D01*
X159702380Y-100267380D01*
X159654761Y-100172142D01*
X159607142Y-100124523D01*
X159511904Y-100076904D01*
X159416666Y-100076904D01*
X159321428Y-100124523D01*
X159273809Y-100172142D01*
X159226190Y-100267380D01*
X159178571Y-100457857D01*
X159130952Y-100553095D01*
X159083333Y-100600714D01*
X158988095Y-100648333D01*
X158892857Y-100648333D01*
X158797619Y-100600714D01*
X158750000Y-100553095D01*
X158702380Y-100457857D01*
X158702380Y-100219761D01*
X158750000Y-100076904D01*
X158702380Y-99743571D02*
X159702380Y-99505476D01*
X158988095Y-99315000D01*
X159702380Y-99124523D01*
X158702380Y-98886428D01*
X158797619Y-98553095D02*
X158750000Y-98505476D01*
X158702380Y-98410238D01*
X158702380Y-98172142D01*
X158750000Y-98076904D01*
X158797619Y-98029285D01*
X158892857Y-97981666D01*
X158988095Y-97981666D01*
X159130952Y-98029285D01*
X159702380Y-98600714D01*
X159702380Y-97981666D01*
%TO.C,C1*%
X147433333Y-95757142D02*
X147385714Y-95804761D01*
X147242857Y-95852380D01*
X147147619Y-95852380D01*
X147004761Y-95804761D01*
X146909523Y-95709523D01*
X146861904Y-95614285D01*
X146814285Y-95423809D01*
X146814285Y-95280952D01*
X146861904Y-95090476D01*
X146909523Y-94995238D01*
X147004761Y-94900000D01*
X147147619Y-94852380D01*
X147242857Y-94852380D01*
X147385714Y-94900000D01*
X147433333Y-94947619D01*
X148385714Y-95852380D02*
X147814285Y-95852380D01*
X148100000Y-95852380D02*
X148100000Y-94852380D01*
X148004761Y-94995238D01*
X147909523Y-95090476D01*
X147814285Y-95138095D01*
%TO.C,J1*%
X119952380Y-107248333D02*
X120666666Y-107248333D01*
X120809523Y-107295952D01*
X120904761Y-107391190D01*
X120952380Y-107534047D01*
X120952380Y-107629285D01*
X120952380Y-106248333D02*
X120952380Y-106819761D01*
X120952380Y-106534047D02*
X119952380Y-106534047D01*
X120095238Y-106629285D01*
X120190476Y-106724523D01*
X120238095Y-106819761D01*
%TO.C,R1*%
X144433333Y-95852380D02*
X144100000Y-95376190D01*
X143861904Y-95852380D02*
X143861904Y-94852380D01*
X144242857Y-94852380D01*
X144338095Y-94900000D01*
X144385714Y-94947619D01*
X144433333Y-95042857D01*
X144433333Y-95185714D01*
X144385714Y-95280952D01*
X144338095Y-95328571D01*
X144242857Y-95376190D01*
X143861904Y-95376190D01*
X145385714Y-95852380D02*
X144814285Y-95852380D01*
X145100000Y-95852380D02*
X145100000Y-94852380D01*
X145004761Y-94995238D01*
X144909523Y-95090476D01*
X144814285Y-95138095D01*
%TO.C,REF\u002A\u002A*%
G36*
X147955814Y-111868931D02*
G01*
X148039635Y-112313555D01*
X148348920Y-112441053D01*
X148658206Y-112568551D01*
X149029246Y-112316246D01*
X149133157Y-112245996D01*
X149227087Y-112183272D01*
X149306652Y-112130938D01*
X149367470Y-112091857D01*
X149405157Y-112068893D01*
X149415421Y-112063942D01*
X149433910Y-112076676D01*
X149473420Y-112111882D01*
X149529522Y-112165062D01*
X149597787Y-112231718D01*
X149673786Y-112307354D01*
X149753092Y-112387472D01*
X149831275Y-112467574D01*
X149903907Y-112543164D01*
X149966559Y-112609745D01*
X150014803Y-112662818D01*
X150044210Y-112697887D01*
X150051241Y-112709623D01*
X150041123Y-112731260D01*
X150012759Y-112778662D01*
X149969129Y-112847193D01*
X149913218Y-112932215D01*
X149848006Y-113029093D01*
X149810219Y-113084350D01*
X149741343Y-113185248D01*
X149680140Y-113276299D01*
X149629578Y-113352970D01*
X149592628Y-113410728D01*
X149572258Y-113445043D01*
X149569197Y-113452254D01*
X149576136Y-113472748D01*
X149595051Y-113520513D01*
X149623087Y-113588832D01*
X149657391Y-113670989D01*
X149695109Y-113760270D01*
X149733387Y-113849958D01*
X149769370Y-113933338D01*
X149800206Y-114003694D01*
X149823039Y-114054310D01*
X149835017Y-114078471D01*
X149835724Y-114079422D01*
X149854531Y-114084036D01*
X149904618Y-114094328D01*
X149980793Y-114109287D01*
X150077865Y-114127901D01*
X150190643Y-114149159D01*
X150256442Y-114161418D01*
X150376950Y-114184362D01*
X150485797Y-114206195D01*
X150577476Y-114225722D01*
X150646481Y-114241748D01*
X150687304Y-114253079D01*
X150695511Y-114256674D01*
X150703548Y-114281006D01*
X150710033Y-114335959D01*
X150714970Y-114415108D01*
X150718364Y-114512026D01*
X150720218Y-114620287D01*
X150720538Y-114733465D01*
X150719327Y-114845135D01*
X150716590Y-114948868D01*
X150712331Y-115038241D01*
X150706555Y-115106826D01*
X150699267Y-115148197D01*
X150694895Y-115156810D01*
X150668764Y-115167133D01*
X150613393Y-115181892D01*
X150536107Y-115199352D01*
X150444230Y-115217780D01*
X150412158Y-115223741D01*
X150257524Y-115252066D01*
X150135375Y-115274876D01*
X150041673Y-115293080D01*
X149972384Y-115307583D01*
X149923471Y-115319292D01*
X149890897Y-115329115D01*
X149870628Y-115337956D01*
X149858626Y-115346724D01*
X149856947Y-115348457D01*
X149840184Y-115376371D01*
X149814614Y-115430695D01*
X149782788Y-115504777D01*
X149747260Y-115591965D01*
X149710583Y-115685608D01*
X149675311Y-115779052D01*
X149643996Y-115865647D01*
X149619193Y-115938740D01*
X149603454Y-115991678D01*
X149599332Y-116017811D01*
X149599676Y-116018726D01*
X149613641Y-116040086D01*
X149645322Y-116087084D01*
X149691391Y-116154827D01*
X149748518Y-116238423D01*
X149813373Y-116332982D01*
X149831843Y-116359854D01*
X149897699Y-116457275D01*
X149955650Y-116546163D01*
X150002538Y-116621412D01*
X150035207Y-116677920D01*
X150050500Y-116710581D01*
X150051241Y-116714593D01*
X150038392Y-116735684D01*
X150002888Y-116777464D01*
X149949293Y-116835445D01*
X149882171Y-116905135D01*
X149806087Y-116982045D01*
X149725604Y-117061683D01*
X149645287Y-117139561D01*
X149569699Y-117211186D01*
X149503405Y-117272070D01*
X149450969Y-117317721D01*
X149416955Y-117343650D01*
X149407545Y-117347883D01*
X149385643Y-117337912D01*
X149340800Y-117311020D01*
X149280321Y-117271736D01*
X149233789Y-117240117D01*
X149149475Y-117182098D01*
X149049626Y-117113784D01*
X148949473Y-117045579D01*
X148895627Y-117009075D01*
X148713371Y-116885800D01*
X148560381Y-116968520D01*
X148490682Y-117004759D01*
X148431414Y-117032926D01*
X148391311Y-117048991D01*
X148381103Y-117051226D01*
X148368829Y-117034722D01*
X148344613Y-116988082D01*
X148310263Y-116915609D01*
X148267588Y-116821606D01*
X148218394Y-116710374D01*
X148164490Y-116586215D01*
X148107684Y-116453432D01*
X148049782Y-116316327D01*
X147992593Y-116179202D01*
X147937924Y-116046358D01*
X147887584Y-115922098D01*
X147843380Y-115810725D01*
X147807119Y-115716539D01*
X147780609Y-115643844D01*
X147765658Y-115596941D01*
X147763254Y-115580833D01*
X147782311Y-115560286D01*
X147824036Y-115526933D01*
X147879706Y-115487702D01*
X147884378Y-115484599D01*
X148028264Y-115369423D01*
X148144283Y-115235053D01*
X148231430Y-115085784D01*
X148288699Y-114925913D01*
X148315086Y-114759737D01*
X148309585Y-114591552D01*
X148271190Y-114425655D01*
X148198895Y-114266342D01*
X148177626Y-114231487D01*
X148066996Y-114090737D01*
X147936302Y-113977714D01*
X147790064Y-113893003D01*
X147632808Y-113837194D01*
X147469057Y-113810874D01*
X147303333Y-113814630D01*
X147140162Y-113849050D01*
X146984065Y-113914723D01*
X146839567Y-114012235D01*
X146794869Y-114051813D01*
X146681112Y-114175703D01*
X146598218Y-114306124D01*
X146541356Y-114452315D01*
X146509687Y-114597088D01*
X146501869Y-114759860D01*
X146527938Y-114923440D01*
X146585245Y-115082298D01*
X146671144Y-115230906D01*
X146782986Y-115363735D01*
X146918123Y-115475256D01*
X146935883Y-115487011D01*
X146992150Y-115525508D01*
X147034923Y-115558863D01*
X147055372Y-115580160D01*
X147055669Y-115580833D01*
X147051279Y-115603871D01*
X147033876Y-115656157D01*
X147005268Y-115733390D01*
X146967265Y-115831268D01*
X146921674Y-115945491D01*
X146870303Y-116071758D01*
X146814962Y-116205767D01*
X146757458Y-116343218D01*
X146699601Y-116479808D01*
X146643198Y-116611237D01*
X146590058Y-116733205D01*
X146541990Y-116841409D01*
X146500801Y-116931549D01*
X146468301Y-116999323D01*
X146446297Y-117040430D01*
X146437436Y-117051226D01*
X146410360Y-117042819D01*
X146359697Y-117020272D01*
X146294183Y-116987613D01*
X146258159Y-116968520D01*
X146105168Y-116885800D01*
X145922912Y-117009075D01*
X145829875Y-117072228D01*
X145728015Y-117141727D01*
X145632562Y-117207165D01*
X145584750Y-117240117D01*
X145517505Y-117285273D01*
X145460564Y-117321057D01*
X145421354Y-117342938D01*
X145408619Y-117347563D01*
X145390083Y-117335085D01*
X145349059Y-117300252D01*
X145289525Y-117246678D01*
X145215458Y-117177983D01*
X145130835Y-117097781D01*
X145077315Y-117046286D01*
X144983681Y-116954286D01*
X144902759Y-116871999D01*
X144837823Y-116802945D01*
X144792142Y-116750644D01*
X144768989Y-116718616D01*
X144766768Y-116712116D01*
X144777076Y-116687394D01*
X144805561Y-116637405D01*
X144849063Y-116567212D01*
X144904423Y-116481875D01*
X144968480Y-116386456D01*
X144986697Y-116359854D01*
X145053073Y-116263167D01*
X145112622Y-116176117D01*
X145162016Y-116103595D01*
X145197925Y-116050493D01*
X145217019Y-116021703D01*
X145218864Y-116018726D01*
X145216105Y-115995782D01*
X145201462Y-115945336D01*
X145177487Y-115874041D01*
X145146734Y-115788547D01*
X145111756Y-115695507D01*
X145075107Y-115601574D01*
X145039339Y-115513399D01*
X145007006Y-115437634D01*
X144980662Y-115380931D01*
X144962858Y-115349943D01*
X144961593Y-115348457D01*
X144950706Y-115339601D01*
X144932318Y-115330843D01*
X144902394Y-115321277D01*
X144856897Y-115309996D01*
X144791791Y-115296093D01*
X144703039Y-115278663D01*
X144586607Y-115256798D01*
X144438458Y-115229591D01*
X144406382Y-115223741D01*
X144311314Y-115205374D01*
X144228435Y-115187405D01*
X144165070Y-115171569D01*
X144128542Y-115159600D01*
X144123644Y-115156810D01*
X144115573Y-115132072D01*
X144109013Y-115076790D01*
X144103967Y-114997389D01*
X144100441Y-114900296D01*
X144098439Y-114791938D01*
X144097964Y-114678740D01*
X144099023Y-114567128D01*
X144101618Y-114463529D01*
X144105754Y-114374368D01*
X144111437Y-114306072D01*
X144118669Y-114265066D01*
X144123029Y-114256674D01*
X144147302Y-114248208D01*
X144202574Y-114234435D01*
X144283338Y-114216550D01*
X144384088Y-114195748D01*
X144499317Y-114173223D01*
X144562098Y-114161418D01*
X144681213Y-114139151D01*
X144787435Y-114118979D01*
X144875573Y-114101915D01*
X144940434Y-114088969D01*
X144976826Y-114081155D01*
X144982816Y-114079422D01*
X144992939Y-114059890D01*
X145014338Y-114012843D01*
X145044161Y-113945003D01*
X145079555Y-113863091D01*
X145117668Y-113773828D01*
X145155647Y-113683935D01*
X145190640Y-113600135D01*
X145219794Y-113529147D01*
X145240257Y-113477694D01*
X145249177Y-113452497D01*
X145249343Y-113451396D01*
X145239231Y-113431519D01*
X145210883Y-113385777D01*
X145167277Y-113318717D01*
X145111394Y-113234884D01*
X145046213Y-113138826D01*
X145008321Y-113083650D01*
X144939275Y-112982481D01*
X144877950Y-112890630D01*
X144827337Y-112812744D01*
X144790429Y-112753469D01*
X144770218Y-112717451D01*
X144767299Y-112709377D01*
X144779847Y-112690584D01*
X144814537Y-112650457D01*
X144866937Y-112593493D01*
X144932616Y-112524185D01*
X145007144Y-112447031D01*
X145086087Y-112366525D01*
X145165017Y-112287163D01*
X145239500Y-112213440D01*
X145305106Y-112149852D01*
X145357404Y-112100894D01*
X145391961Y-112071061D01*
X145403522Y-112063942D01*
X145422346Y-112073953D01*
X145467369Y-112102078D01*
X145534213Y-112145454D01*
X145618501Y-112201218D01*
X145715856Y-112266506D01*
X145789293Y-112316246D01*
X146160333Y-112568551D01*
X146778905Y-112313555D01*
X146862725Y-111868931D01*
X146946546Y-111424307D01*
X147871994Y-111424307D01*
X147955814Y-111868931D01*
G37*
D11*
X147955814Y-111868931D02*
X148039635Y-112313555D01*
X148348920Y-112441053D01*
X148658206Y-112568551D01*
X149029246Y-112316246D01*
X149133157Y-112245996D01*
X149227087Y-112183272D01*
X149306652Y-112130938D01*
X149367470Y-112091857D01*
X149405157Y-112068893D01*
X149415421Y-112063942D01*
X149433910Y-112076676D01*
X149473420Y-112111882D01*
X149529522Y-112165062D01*
X149597787Y-112231718D01*
X149673786Y-112307354D01*
X149753092Y-112387472D01*
X149831275Y-112467574D01*
X149903907Y-112543164D01*
X149966559Y-112609745D01*
X150014803Y-112662818D01*
X150044210Y-112697887D01*
X150051241Y-112709623D01*
X150041123Y-112731260D01*
X150012759Y-112778662D01*
X149969129Y-112847193D01*
X149913218Y-112932215D01*
X149848006Y-113029093D01*
X149810219Y-113084350D01*
X149741343Y-113185248D01*
X149680140Y-113276299D01*
X149629578Y-113352970D01*
X149592628Y-113410728D01*
X149572258Y-113445043D01*
X149569197Y-113452254D01*
X149576136Y-113472748D01*
X149595051Y-113520513D01*
X149623087Y-113588832D01*
X149657391Y-113670989D01*
X149695109Y-113760270D01*
X149733387Y-113849958D01*
X149769370Y-113933338D01*
X149800206Y-114003694D01*
X149823039Y-114054310D01*
X149835017Y-114078471D01*
X149835724Y-114079422D01*
X149854531Y-114084036D01*
X149904618Y-114094328D01*
X149980793Y-114109287D01*
X150077865Y-114127901D01*
X150190643Y-114149159D01*
X150256442Y-114161418D01*
X150376950Y-114184362D01*
X150485797Y-114206195D01*
X150577476Y-114225722D01*
X150646481Y-114241748D01*
X150687304Y-114253079D01*
X150695511Y-114256674D01*
X150703548Y-114281006D01*
X150710033Y-114335959D01*
X150714970Y-114415108D01*
X150718364Y-114512026D01*
X150720218Y-114620287D01*
X150720538Y-114733465D01*
X150719327Y-114845135D01*
X150716590Y-114948868D01*
X150712331Y-115038241D01*
X150706555Y-115106826D01*
X150699267Y-115148197D01*
X150694895Y-115156810D01*
X150668764Y-115167133D01*
X150613393Y-115181892D01*
X150536107Y-115199352D01*
X150444230Y-115217780D01*
X150412158Y-115223741D01*
X150257524Y-115252066D01*
X150135375Y-115274876D01*
X150041673Y-115293080D01*
X149972384Y-115307583D01*
X149923471Y-115319292D01*
X149890897Y-115329115D01*
X149870628Y-115337956D01*
X149858626Y-115346724D01*
X149856947Y-115348457D01*
X149840184Y-115376371D01*
X149814614Y-115430695D01*
X149782788Y-115504777D01*
X149747260Y-115591965D01*
X149710583Y-115685608D01*
X149675311Y-115779052D01*
X149643996Y-115865647D01*
X149619193Y-115938740D01*
X149603454Y-115991678D01*
X149599332Y-116017811D01*
X149599676Y-116018726D01*
X149613641Y-116040086D01*
X149645322Y-116087084D01*
X149691391Y-116154827D01*
X149748518Y-116238423D01*
X149813373Y-116332982D01*
X149831843Y-116359854D01*
X149897699Y-116457275D01*
X149955650Y-116546163D01*
X150002538Y-116621412D01*
X150035207Y-116677920D01*
X150050500Y-116710581D01*
X150051241Y-116714593D01*
X150038392Y-116735684D01*
X150002888Y-116777464D01*
X149949293Y-116835445D01*
X149882171Y-116905135D01*
X149806087Y-116982045D01*
X149725604Y-117061683D01*
X149645287Y-117139561D01*
X149569699Y-117211186D01*
X149503405Y-117272070D01*
X149450969Y-117317721D01*
X149416955Y-117343650D01*
X149407545Y-117347883D01*
X149385643Y-117337912D01*
X149340800Y-117311020D01*
X149280321Y-117271736D01*
X149233789Y-117240117D01*
X149149475Y-117182098D01*
X149049626Y-117113784D01*
X148949473Y-117045579D01*
X148895627Y-117009075D01*
X148713371Y-116885800D01*
X148560381Y-116968520D01*
X148490682Y-117004759D01*
X148431414Y-117032926D01*
X148391311Y-117048991D01*
X148381103Y-117051226D01*
X148368829Y-117034722D01*
X148344613Y-116988082D01*
X148310263Y-116915609D01*
X148267588Y-116821606D01*
X148218394Y-116710374D01*
X148164490Y-116586215D01*
X148107684Y-116453432D01*
X148049782Y-116316327D01*
X147992593Y-116179202D01*
X147937924Y-116046358D01*
X147887584Y-115922098D01*
X147843380Y-115810725D01*
X147807119Y-115716539D01*
X147780609Y-115643844D01*
X147765658Y-115596941D01*
X147763254Y-115580833D01*
X147782311Y-115560286D01*
X147824036Y-115526933D01*
X147879706Y-115487702D01*
X147884378Y-115484599D01*
X148028264Y-115369423D01*
X148144283Y-115235053D01*
X148231430Y-115085784D01*
X148288699Y-114925913D01*
X148315086Y-114759737D01*
X148309585Y-114591552D01*
X148271190Y-114425655D01*
X148198895Y-114266342D01*
X148177626Y-114231487D01*
X148066996Y-114090737D01*
X147936302Y-113977714D01*
X147790064Y-113893003D01*
X147632808Y-113837194D01*
X147469057Y-113810874D01*
X147303333Y-113814630D01*
X147140162Y-113849050D01*
X146984065Y-113914723D01*
X146839567Y-114012235D01*
X146794869Y-114051813D01*
X146681112Y-114175703D01*
X146598218Y-114306124D01*
X146541356Y-114452315D01*
X146509687Y-114597088D01*
X146501869Y-114759860D01*
X146527938Y-114923440D01*
X146585245Y-115082298D01*
X146671144Y-115230906D01*
X146782986Y-115363735D01*
X146918123Y-115475256D01*
X146935883Y-115487011D01*
X146992150Y-115525508D01*
X147034923Y-115558863D01*
X147055372Y-115580160D01*
X147055669Y-115580833D01*
X147051279Y-115603871D01*
X147033876Y-115656157D01*
X147005268Y-115733390D01*
X146967265Y-115831268D01*
X146921674Y-115945491D01*
X146870303Y-116071758D01*
X146814962Y-116205767D01*
X146757458Y-116343218D01*
X146699601Y-116479808D01*
X146643198Y-116611237D01*
X146590058Y-116733205D01*
X146541990Y-116841409D01*
X146500801Y-116931549D01*
X146468301Y-116999323D01*
X146446297Y-117040430D01*
X146437436Y-117051226D01*
X146410360Y-117042819D01*
X146359697Y-117020272D01*
X146294183Y-116987613D01*
X146258159Y-116968520D01*
X146105168Y-116885800D01*
X145922912Y-117009075D01*
X145829875Y-117072228D01*
X145728015Y-117141727D01*
X145632562Y-117207165D01*
X145584750Y-117240117D01*
X145517505Y-117285273D01*
X145460564Y-117321057D01*
X145421354Y-117342938D01*
X145408619Y-117347563D01*
X145390083Y-117335085D01*
X145349059Y-117300252D01*
X145289525Y-117246678D01*
X145215458Y-117177983D01*
X145130835Y-117097781D01*
X145077315Y-117046286D01*
X144983681Y-116954286D01*
X144902759Y-116871999D01*
X144837823Y-116802945D01*
X144792142Y-116750644D01*
X144768989Y-116718616D01*
X144766768Y-116712116D01*
X144777076Y-116687394D01*
X144805561Y-116637405D01*
X144849063Y-116567212D01*
X144904423Y-116481875D01*
X144968480Y-116386456D01*
X144986697Y-116359854D01*
X145053073Y-116263167D01*
X145112622Y-116176117D01*
X145162016Y-116103595D01*
X145197925Y-116050493D01*
X145217019Y-116021703D01*
X145218864Y-116018726D01*
X145216105Y-115995782D01*
X145201462Y-115945336D01*
X145177487Y-115874041D01*
X145146734Y-115788547D01*
X145111756Y-115695507D01*
X145075107Y-115601574D01*
X145039339Y-115513399D01*
X145007006Y-115437634D01*
X144980662Y-115380931D01*
X144962858Y-115349943D01*
X144961593Y-115348457D01*
X144950706Y-115339601D01*
X144932318Y-115330843D01*
X144902394Y-115321277D01*
X144856897Y-115309996D01*
X144791791Y-115296093D01*
X144703039Y-115278663D01*
X144586607Y-115256798D01*
X144438458Y-115229591D01*
X144406382Y-115223741D01*
X144311314Y-115205374D01*
X144228435Y-115187405D01*
X144165070Y-115171569D01*
X144128542Y-115159600D01*
X144123644Y-115156810D01*
X144115573Y-115132072D01*
X144109013Y-115076790D01*
X144103967Y-114997389D01*
X144100441Y-114900296D01*
X144098439Y-114791938D01*
X144097964Y-114678740D01*
X144099023Y-114567128D01*
X144101618Y-114463529D01*
X144105754Y-114374368D01*
X144111437Y-114306072D01*
X144118669Y-114265066D01*
X144123029Y-114256674D01*
X144147302Y-114248208D01*
X144202574Y-114234435D01*
X144283338Y-114216550D01*
X144384088Y-114195748D01*
X144499317Y-114173223D01*
X144562098Y-114161418D01*
X144681213Y-114139151D01*
X144787435Y-114118979D01*
X144875573Y-114101915D01*
X144940434Y-114088969D01*
X144976826Y-114081155D01*
X144982816Y-114079422D01*
X144992939Y-114059890D01*
X145014338Y-114012843D01*
X145044161Y-113945003D01*
X145079555Y-113863091D01*
X145117668Y-113773828D01*
X145155647Y-113683935D01*
X145190640Y-113600135D01*
X145219794Y-113529147D01*
X145240257Y-113477694D01*
X145249177Y-113452497D01*
X145249343Y-113451396D01*
X145239231Y-113431519D01*
X145210883Y-113385777D01*
X145167277Y-113318717D01*
X145111394Y-113234884D01*
X145046213Y-113138826D01*
X145008321Y-113083650D01*
X144939275Y-112982481D01*
X144877950Y-112890630D01*
X144827337Y-112812744D01*
X144790429Y-112753469D01*
X144770218Y-112717451D01*
X144767299Y-112709377D01*
X144779847Y-112690584D01*
X144814537Y-112650457D01*
X144866937Y-112593493D01*
X144932616Y-112524185D01*
X145007144Y-112447031D01*
X145086087Y-112366525D01*
X145165017Y-112287163D01*
X145239500Y-112213440D01*
X145305106Y-112149852D01*
X145357404Y-112100894D01*
X145391961Y-112071061D01*
X145403522Y-112063942D01*
X145422346Y-112073953D01*
X145467369Y-112102078D01*
X145534213Y-112145454D01*
X145618501Y-112201218D01*
X145715856Y-112266506D01*
X145789293Y-112316246D01*
X146160333Y-112568551D01*
X146778905Y-112313555D01*
X146862725Y-111868931D01*
X146946546Y-111424307D01*
X147871994Y-111424307D01*
X147955814Y-111868931D01*
G36*
X134328429Y-112349071D02*
G01*
X134488570Y-112370245D01*
X134652510Y-112410385D01*
X134822313Y-112469889D01*
X135000043Y-112549154D01*
X135011310Y-112554699D01*
X135069005Y-112582725D01*
X135120552Y-112606802D01*
X135162191Y-112625249D01*
X135190162Y-112636386D01*
X135199733Y-112638933D01*
X135218950Y-112643941D01*
X135223561Y-112648147D01*
X135218458Y-112658580D01*
X135202418Y-112684868D01*
X135177288Y-112724257D01*
X135144914Y-112773991D01*
X135107143Y-112831315D01*
X135065822Y-112893476D01*
X135022798Y-112957718D01*
X134979917Y-113021285D01*
X134939026Y-113081425D01*
X134901971Y-113135380D01*
X134870600Y-113180397D01*
X134846759Y-113213721D01*
X134832294Y-113232597D01*
X134830309Y-113234787D01*
X134820191Y-113230138D01*
X134797850Y-113212962D01*
X134767280Y-113186440D01*
X134751536Y-113171964D01*
X134655047Y-113096682D01*
X134548336Y-113041241D01*
X134432832Y-113006141D01*
X134309962Y-112991880D01*
X134240561Y-112993051D01*
X134119423Y-113010212D01*
X134010205Y-113046094D01*
X133912582Y-113100959D01*
X133826228Y-113175070D01*
X133750815Y-113268688D01*
X133686018Y-113382076D01*
X133648601Y-113468667D01*
X133604748Y-113604366D01*
X133572428Y-113751850D01*
X133551557Y-113907314D01*
X133542051Y-114066956D01*
X133543827Y-114226973D01*
X133556803Y-114383561D01*
X133580894Y-114532918D01*
X133616018Y-114671240D01*
X133662092Y-114794724D01*
X133678373Y-114828978D01*
X133746620Y-114943064D01*
X133827079Y-115039557D01*
X133918570Y-115117670D01*
X134019911Y-115176617D01*
X134129920Y-115215612D01*
X134247415Y-115233868D01*
X134288883Y-115235211D01*
X134410441Y-115224290D01*
X134530878Y-115191474D01*
X134648666Y-115137439D01*
X134762277Y-115062865D01*
X134853685Y-114984539D01*
X134900215Y-114940008D01*
X135081483Y-115237271D01*
X135126580Y-115311433D01*
X135167819Y-115379646D01*
X135203735Y-115439459D01*
X135232866Y-115488420D01*
X135253750Y-115524079D01*
X135264924Y-115543984D01*
X135266375Y-115547079D01*
X135258146Y-115556718D01*
X135232567Y-115573999D01*
X135192873Y-115597283D01*
X135142297Y-115624934D01*
X135084074Y-115655315D01*
X135021437Y-115686790D01*
X134957621Y-115717722D01*
X134895860Y-115746473D01*
X134839388Y-115771408D01*
X134791438Y-115790889D01*
X134767986Y-115799318D01*
X134634221Y-115837133D01*
X134496327Y-115862136D01*
X134348622Y-115875140D01*
X134221833Y-115877468D01*
X134153878Y-115876373D01*
X134088277Y-115874275D01*
X134030847Y-115871434D01*
X133987403Y-115868106D01*
X133973298Y-115866422D01*
X133834284Y-115837587D01*
X133692757Y-115792468D01*
X133555275Y-115733750D01*
X133428394Y-115664120D01*
X133350889Y-115611441D01*
X133223481Y-115503239D01*
X133105178Y-115376671D01*
X132998172Y-115234866D01*
X132904652Y-115080951D01*
X132826810Y-114918053D01*
X132782956Y-114800756D01*
X132732708Y-114617128D01*
X132699209Y-114422581D01*
X132682449Y-114221325D01*
X132682416Y-114017568D01*
X132699101Y-113815521D01*
X132732493Y-113619392D01*
X132782580Y-113433391D01*
X132786397Y-113421803D01*
X132849281Y-113259750D01*
X132926028Y-113111832D01*
X133019242Y-112973865D01*
X133131527Y-112841661D01*
X133175392Y-112796399D01*
X133311534Y-112672457D01*
X133451491Y-112569915D01*
X133597411Y-112487656D01*
X133751442Y-112424564D01*
X133915732Y-112379523D01*
X134011289Y-112362033D01*
X134170023Y-112346466D01*
X134328429Y-112349071D01*
G37*
X134328429Y-112349071D02*
X134488570Y-112370245D01*
X134652510Y-112410385D01*
X134822313Y-112469889D01*
X135000043Y-112549154D01*
X135011310Y-112554699D01*
X135069005Y-112582725D01*
X135120552Y-112606802D01*
X135162191Y-112625249D01*
X135190162Y-112636386D01*
X135199733Y-112638933D01*
X135218950Y-112643941D01*
X135223561Y-112648147D01*
X135218458Y-112658580D01*
X135202418Y-112684868D01*
X135177288Y-112724257D01*
X135144914Y-112773991D01*
X135107143Y-112831315D01*
X135065822Y-112893476D01*
X135022798Y-112957718D01*
X134979917Y-113021285D01*
X134939026Y-113081425D01*
X134901971Y-113135380D01*
X134870600Y-113180397D01*
X134846759Y-113213721D01*
X134832294Y-113232597D01*
X134830309Y-113234787D01*
X134820191Y-113230138D01*
X134797850Y-113212962D01*
X134767280Y-113186440D01*
X134751536Y-113171964D01*
X134655047Y-113096682D01*
X134548336Y-113041241D01*
X134432832Y-113006141D01*
X134309962Y-112991880D01*
X134240561Y-112993051D01*
X134119423Y-113010212D01*
X134010205Y-113046094D01*
X133912582Y-113100959D01*
X133826228Y-113175070D01*
X133750815Y-113268688D01*
X133686018Y-113382076D01*
X133648601Y-113468667D01*
X133604748Y-113604366D01*
X133572428Y-113751850D01*
X133551557Y-113907314D01*
X133542051Y-114066956D01*
X133543827Y-114226973D01*
X133556803Y-114383561D01*
X133580894Y-114532918D01*
X133616018Y-114671240D01*
X133662092Y-114794724D01*
X133678373Y-114828978D01*
X133746620Y-114943064D01*
X133827079Y-115039557D01*
X133918570Y-115117670D01*
X134019911Y-115176617D01*
X134129920Y-115215612D01*
X134247415Y-115233868D01*
X134288883Y-115235211D01*
X134410441Y-115224290D01*
X134530878Y-115191474D01*
X134648666Y-115137439D01*
X134762277Y-115062865D01*
X134853685Y-114984539D01*
X134900215Y-114940008D01*
X135081483Y-115237271D01*
X135126580Y-115311433D01*
X135167819Y-115379646D01*
X135203735Y-115439459D01*
X135232866Y-115488420D01*
X135253750Y-115524079D01*
X135264924Y-115543984D01*
X135266375Y-115547079D01*
X135258146Y-115556718D01*
X135232567Y-115573999D01*
X135192873Y-115597283D01*
X135142297Y-115624934D01*
X135084074Y-115655315D01*
X135021437Y-115686790D01*
X134957621Y-115717722D01*
X134895860Y-115746473D01*
X134839388Y-115771408D01*
X134791438Y-115790889D01*
X134767986Y-115799318D01*
X134634221Y-115837133D01*
X134496327Y-115862136D01*
X134348622Y-115875140D01*
X134221833Y-115877468D01*
X134153878Y-115876373D01*
X134088277Y-115874275D01*
X134030847Y-115871434D01*
X133987403Y-115868106D01*
X133973298Y-115866422D01*
X133834284Y-115837587D01*
X133692757Y-115792468D01*
X133555275Y-115733750D01*
X133428394Y-115664120D01*
X133350889Y-115611441D01*
X133223481Y-115503239D01*
X133105178Y-115376671D01*
X132998172Y-115234866D01*
X132904652Y-115080951D01*
X132826810Y-114918053D01*
X132782956Y-114800756D01*
X132732708Y-114617128D01*
X132699209Y-114422581D01*
X132682449Y-114221325D01*
X132682416Y-114017568D01*
X132699101Y-113815521D01*
X132732493Y-113619392D01*
X132782580Y-113433391D01*
X132786397Y-113421803D01*
X132849281Y-113259750D01*
X132926028Y-113111832D01*
X133019242Y-112973865D01*
X133131527Y-112841661D01*
X133175392Y-112796399D01*
X133311534Y-112672457D01*
X133451491Y-112569915D01*
X133597411Y-112487656D01*
X133751442Y-112424564D01*
X133915732Y-112379523D01*
X134011289Y-112362033D01*
X134170023Y-112346466D01*
X134328429Y-112349071D01*
G36*
X134230343Y-116669260D02*
G01*
X134306701Y-116670174D01*
X134365217Y-116672311D01*
X134408255Y-116676175D01*
X134438183Y-116682267D01*
X134457368Y-116691090D01*
X134468176Y-116703146D01*
X134472973Y-116718939D01*
X134474127Y-116738970D01*
X134474133Y-116741335D01*
X134473131Y-116763992D01*
X134468396Y-116781503D01*
X134457333Y-116794574D01*
X134437348Y-116803913D01*
X134405846Y-116810227D01*
X134360232Y-116814222D01*
X134297913Y-116816606D01*
X134216293Y-116818086D01*
X134191277Y-116818414D01*
X133949200Y-116821467D01*
X133945814Y-116886378D01*
X133942429Y-116951289D01*
X134110576Y-116951289D01*
X134176266Y-116951531D01*
X134223172Y-116952556D01*
X134255083Y-116954811D01*
X134275791Y-116958742D01*
X134289084Y-116964798D01*
X134298755Y-116973424D01*
X134298817Y-116973493D01*
X134316356Y-117007112D01*
X134315722Y-117043448D01*
X134297314Y-117074423D01*
X134293671Y-117077607D01*
X134280741Y-117085812D01*
X134263024Y-117091521D01*
X134236570Y-117095162D01*
X134197432Y-117097167D01*
X134141662Y-117097964D01*
X134105994Y-117098045D01*
X133943555Y-117098045D01*
X133943555Y-117256089D01*
X134190161Y-117256089D01*
X134271580Y-117256231D01*
X134333410Y-117256814D01*
X134378637Y-117258068D01*
X134410248Y-117260227D01*
X134431231Y-117263523D01*
X134444573Y-117268189D01*
X134453261Y-117274457D01*
X134455450Y-117276733D01*
X134471614Y-117308280D01*
X134472797Y-117344168D01*
X134459536Y-117375285D01*
X134449043Y-117385271D01*
X134438129Y-117390769D01*
X134421217Y-117395022D01*
X134395633Y-117398180D01*
X134358701Y-117400392D01*
X134307746Y-117401806D01*
X134240094Y-117402572D01*
X134153069Y-117402838D01*
X134133394Y-117402845D01*
X134044911Y-117402787D01*
X133976227Y-117402467D01*
X133924564Y-117401667D01*
X133887145Y-117400167D01*
X133861190Y-117397749D01*
X133843922Y-117394194D01*
X133832562Y-117389282D01*
X133824332Y-117382795D01*
X133819817Y-117378138D01*
X133813021Y-117369889D01*
X133807712Y-117359669D01*
X133803706Y-117344800D01*
X133800821Y-117322602D01*
X133798874Y-117290393D01*
X133797681Y-117245496D01*
X133797061Y-117185228D01*
X133796829Y-117106911D01*
X133796800Y-117040994D01*
X133796871Y-116948628D01*
X133797208Y-116876117D01*
X133797998Y-116820737D01*
X133799426Y-116779765D01*
X133801679Y-116750478D01*
X133804943Y-116730153D01*
X133809404Y-116716066D01*
X133815248Y-116705495D01*
X133820197Y-116698811D01*
X133843594Y-116669067D01*
X134133774Y-116669067D01*
X134230343Y-116669260D01*
G37*
X134230343Y-116669260D02*
X134306701Y-116670174D01*
X134365217Y-116672311D01*
X134408255Y-116676175D01*
X134438183Y-116682267D01*
X134457368Y-116691090D01*
X134468176Y-116703146D01*
X134472973Y-116718939D01*
X134474127Y-116738970D01*
X134474133Y-116741335D01*
X134473131Y-116763992D01*
X134468396Y-116781503D01*
X134457333Y-116794574D01*
X134437348Y-116803913D01*
X134405846Y-116810227D01*
X134360232Y-116814222D01*
X134297913Y-116816606D01*
X134216293Y-116818086D01*
X134191277Y-116818414D01*
X133949200Y-116821467D01*
X133945814Y-116886378D01*
X133942429Y-116951289D01*
X134110576Y-116951289D01*
X134176266Y-116951531D01*
X134223172Y-116952556D01*
X134255083Y-116954811D01*
X134275791Y-116958742D01*
X134289084Y-116964798D01*
X134298755Y-116973424D01*
X134298817Y-116973493D01*
X134316356Y-117007112D01*
X134315722Y-117043448D01*
X134297314Y-117074423D01*
X134293671Y-117077607D01*
X134280741Y-117085812D01*
X134263024Y-117091521D01*
X134236570Y-117095162D01*
X134197432Y-117097167D01*
X134141662Y-117097964D01*
X134105994Y-117098045D01*
X133943555Y-117098045D01*
X133943555Y-117256089D01*
X134190161Y-117256089D01*
X134271580Y-117256231D01*
X134333410Y-117256814D01*
X134378637Y-117258068D01*
X134410248Y-117260227D01*
X134431231Y-117263523D01*
X134444573Y-117268189D01*
X134453261Y-117274457D01*
X134455450Y-117276733D01*
X134471614Y-117308280D01*
X134472797Y-117344168D01*
X134459536Y-117375285D01*
X134449043Y-117385271D01*
X134438129Y-117390769D01*
X134421217Y-117395022D01*
X134395633Y-117398180D01*
X134358701Y-117400392D01*
X134307746Y-117401806D01*
X134240094Y-117402572D01*
X134153069Y-117402838D01*
X134133394Y-117402845D01*
X134044911Y-117402787D01*
X133976227Y-117402467D01*
X133924564Y-117401667D01*
X133887145Y-117400167D01*
X133861190Y-117397749D01*
X133843922Y-117394194D01*
X133832562Y-117389282D01*
X133824332Y-117382795D01*
X133819817Y-117378138D01*
X133813021Y-117369889D01*
X133807712Y-117359669D01*
X133803706Y-117344800D01*
X133800821Y-117322602D01*
X133798874Y-117290393D01*
X133797681Y-117245496D01*
X133797061Y-117185228D01*
X133796829Y-117106911D01*
X133796800Y-117040994D01*
X133796871Y-116948628D01*
X133797208Y-116876117D01*
X133797998Y-116820737D01*
X133799426Y-116779765D01*
X133801679Y-116750478D01*
X133804943Y-116730153D01*
X133809404Y-116716066D01*
X133815248Y-116705495D01*
X133820197Y-116698811D01*
X133843594Y-116669067D01*
X134133774Y-116669067D01*
X134230343Y-116669260D01*
G36*
X134813050Y-117174311D02*
G01*
X134812825Y-117095526D01*
X134812800Y-117033920D01*
X134812800Y-116724485D01*
X134840509Y-116696776D01*
X134852806Y-116685544D01*
X134866103Y-116677853D01*
X134884672Y-116673040D01*
X134912786Y-116670446D01*
X134954717Y-116669410D01*
X135014737Y-116669270D01*
X135018309Y-116669275D01*
X135147288Y-116673636D01*
X135256991Y-116686861D01*
X135349226Y-116709741D01*
X135425802Y-116743070D01*
X135488527Y-116787638D01*
X135539212Y-116844236D01*
X135579663Y-116913658D01*
X135580459Y-116915351D01*
X135604601Y-116977483D01*
X135613203Y-117032509D01*
X135606231Y-117087887D01*
X135583654Y-117151073D01*
X135579372Y-117160689D01*
X135550172Y-117216966D01*
X135517356Y-117260451D01*
X135475002Y-117297417D01*
X135417190Y-117334135D01*
X135413831Y-117336052D01*
X135363504Y-117360227D01*
X135306621Y-117378282D01*
X135239527Y-117390839D01*
X135158565Y-117398522D01*
X135060082Y-117401953D01*
X135025286Y-117402251D01*
X134859594Y-117402845D01*
X134836197Y-117373100D01*
X134829257Y-117363319D01*
X134823842Y-117351897D01*
X134819765Y-117336095D01*
X134816837Y-117313175D01*
X134814867Y-117280396D01*
X134814225Y-117256089D01*
X134970844Y-117256089D01*
X135064726Y-117256089D01*
X135119664Y-117254483D01*
X135176060Y-117250255D01*
X135222345Y-117244292D01*
X135225139Y-117243790D01*
X135307348Y-117221736D01*
X135371114Y-117188600D01*
X135418452Y-117142847D01*
X135451382Y-117082939D01*
X135457108Y-117067061D01*
X135462721Y-117042333D01*
X135460291Y-117017902D01*
X135448467Y-116985400D01*
X135441340Y-116969434D01*
X135418000Y-116927006D01*
X135389880Y-116897240D01*
X135358940Y-116876511D01*
X135296966Y-116849537D01*
X135217651Y-116829998D01*
X135125253Y-116818746D01*
X135058333Y-116816270D01*
X134970844Y-116815822D01*
X134970844Y-117256089D01*
X134814225Y-117256089D01*
X134813668Y-117235021D01*
X134813050Y-117174311D01*
G37*
X134813050Y-117174311D02*
X134812825Y-117095526D01*
X134812800Y-117033920D01*
X134812800Y-116724485D01*
X134840509Y-116696776D01*
X134852806Y-116685544D01*
X134866103Y-116677853D01*
X134884672Y-116673040D01*
X134912786Y-116670446D01*
X134954717Y-116669410D01*
X135014737Y-116669270D01*
X135018309Y-116669275D01*
X135147288Y-116673636D01*
X135256991Y-116686861D01*
X135349226Y-116709741D01*
X135425802Y-116743070D01*
X135488527Y-116787638D01*
X135539212Y-116844236D01*
X135579663Y-116913658D01*
X135580459Y-116915351D01*
X135604601Y-116977483D01*
X135613203Y-117032509D01*
X135606231Y-117087887D01*
X135583654Y-117151073D01*
X135579372Y-117160689D01*
X135550172Y-117216966D01*
X135517356Y-117260451D01*
X135475002Y-117297417D01*
X135417190Y-117334135D01*
X135413831Y-117336052D01*
X135363504Y-117360227D01*
X135306621Y-117378282D01*
X135239527Y-117390839D01*
X135158565Y-117398522D01*
X135060082Y-117401953D01*
X135025286Y-117402251D01*
X134859594Y-117402845D01*
X134836197Y-117373100D01*
X134829257Y-117363319D01*
X134823842Y-117351897D01*
X134819765Y-117336095D01*
X134816837Y-117313175D01*
X134814867Y-117280396D01*
X134814225Y-117256089D01*
X134970844Y-117256089D01*
X135064726Y-117256089D01*
X135119664Y-117254483D01*
X135176060Y-117250255D01*
X135222345Y-117244292D01*
X135225139Y-117243790D01*
X135307348Y-117221736D01*
X135371114Y-117188600D01*
X135418452Y-117142847D01*
X135451382Y-117082939D01*
X135457108Y-117067061D01*
X135462721Y-117042333D01*
X135460291Y-117017902D01*
X135448467Y-116985400D01*
X135441340Y-116969434D01*
X135418000Y-116927006D01*
X135389880Y-116897240D01*
X135358940Y-116876511D01*
X135296966Y-116849537D01*
X135217651Y-116829998D01*
X135125253Y-116818746D01*
X135058333Y-116816270D01*
X134970844Y-116815822D01*
X134970844Y-117256089D01*
X134814225Y-117256089D01*
X134813668Y-117235021D01*
X134813050Y-117174311D01*
G36*
X138188614Y-116675877D02*
G01*
X138212327Y-116690647D01*
X138238978Y-116712227D01*
X138238978Y-117033773D01*
X138238893Y-117127830D01*
X138238529Y-117201932D01*
X138237724Y-117258704D01*
X138236313Y-117300768D01*
X138234133Y-117330748D01*
X138231021Y-117351267D01*
X138226814Y-117364949D01*
X138221348Y-117374416D01*
X138217472Y-117379082D01*
X138186034Y-117399575D01*
X138150233Y-117398739D01*
X138118873Y-117381264D01*
X138092222Y-117359684D01*
X138092222Y-116712227D01*
X138118873Y-116690647D01*
X138144594Y-116674949D01*
X138165600Y-116669067D01*
X138188614Y-116675877D01*
G37*
X138188614Y-116675877D02*
X138212327Y-116690647D01*
X138238978Y-116712227D01*
X138238978Y-117033773D01*
X138238893Y-117127830D01*
X138238529Y-117201932D01*
X138237724Y-117258704D01*
X138236313Y-117300768D01*
X138234133Y-117330748D01*
X138231021Y-117351267D01*
X138226814Y-117364949D01*
X138221348Y-117374416D01*
X138217472Y-117379082D01*
X138186034Y-117399575D01*
X138150233Y-117398739D01*
X138118873Y-117381264D01*
X138092222Y-117359684D01*
X138092222Y-116712227D01*
X138118873Y-116690647D01*
X138144594Y-116674949D01*
X138165600Y-116669067D01*
X138188614Y-116675877D01*
G36*
X137843802Y-114234059D02*
G01*
X137879786Y-114055332D01*
X137929759Y-113893845D01*
X137993668Y-113749726D01*
X138071462Y-113623106D01*
X138163089Y-113514115D01*
X138268497Y-113422883D01*
X138313662Y-113391932D01*
X138414611Y-113335785D01*
X138517901Y-113296174D01*
X138627989Y-113272014D01*
X138749330Y-113262219D01*
X138841836Y-113263265D01*
X138971490Y-113274231D01*
X139084084Y-113296046D01*
X139182875Y-113329714D01*
X139271121Y-113376236D01*
X139319986Y-113410448D01*
X139349353Y-113432362D01*
X139371043Y-113447333D01*
X139379253Y-113451733D01*
X139380868Y-113440904D01*
X139382159Y-113410251D01*
X139383138Y-113362526D01*
X139383817Y-113300479D01*
X139384210Y-113226862D01*
X139384330Y-113144427D01*
X139384188Y-113055925D01*
X139383797Y-112964107D01*
X139383171Y-112871724D01*
X139382320Y-112781528D01*
X139381260Y-112696271D01*
X139380001Y-112618703D01*
X139378556Y-112551576D01*
X139376938Y-112497641D01*
X139375161Y-112459650D01*
X139374669Y-112452667D01*
X139367092Y-112382251D01*
X139355531Y-112327102D01*
X139337792Y-112279981D01*
X139311682Y-112233647D01*
X139305415Y-112224067D01*
X139280983Y-112187378D01*
X140186311Y-112187378D01*
X140186507Y-113872245D01*
X140186526Y-114106662D01*
X140186552Y-114319603D01*
X140186625Y-114512168D01*
X140186782Y-114685459D01*
X140187064Y-114840576D01*
X140187509Y-114978620D01*
X140188156Y-115100692D01*
X140189045Y-115207894D01*
X140190213Y-115301326D01*
X140191701Y-115382090D01*
X140193546Y-115451286D01*
X140195789Y-115510015D01*
X140198469Y-115559379D01*
X140201623Y-115600478D01*
X140205292Y-115634413D01*
X140209513Y-115662286D01*
X140214327Y-115685198D01*
X140219773Y-115704249D01*
X140225888Y-115720540D01*
X140232712Y-115735173D01*
X140240285Y-115749249D01*
X140248645Y-115763868D01*
X140253839Y-115772974D01*
X140288104Y-115833689D01*
X139429955Y-115833689D01*
X139429955Y-115737733D01*
X139429224Y-115694370D01*
X139427272Y-115661205D01*
X139424463Y-115643424D01*
X139423221Y-115641778D01*
X139411799Y-115648662D01*
X139389084Y-115666505D01*
X139366385Y-115685879D01*
X139311800Y-115726614D01*
X139242321Y-115767617D01*
X139165270Y-115805123D01*
X139087965Y-115835364D01*
X139057113Y-115845012D01*
X138988616Y-115859578D01*
X138905764Y-115869539D01*
X138816371Y-115874583D01*
X138728248Y-115874396D01*
X138649207Y-115868666D01*
X138611511Y-115862858D01*
X138473414Y-115824797D01*
X138346113Y-115767073D01*
X138230292Y-115690211D01*
X138126637Y-115594739D01*
X138035833Y-115481179D01*
X137969031Y-115370381D01*
X137914164Y-115253625D01*
X137872163Y-115134276D01*
X137842167Y-115008283D01*
X137823311Y-114871594D01*
X137814732Y-114720158D01*
X137814006Y-114642711D01*
X137816100Y-114585934D01*
X138645217Y-114585934D01*
X138645424Y-114679002D01*
X138648337Y-114766692D01*
X138654000Y-114843772D01*
X138662455Y-114905009D01*
X138665038Y-114917350D01*
X138696840Y-115024633D01*
X138738498Y-115111658D01*
X138790363Y-115178642D01*
X138852781Y-115225805D01*
X138926100Y-115253365D01*
X139010669Y-115261541D01*
X139106835Y-115250551D01*
X139170311Y-115234829D01*
X139219454Y-115216639D01*
X139273583Y-115190791D01*
X139314244Y-115167089D01*
X139384800Y-115120721D01*
X139384800Y-113970530D01*
X139317392Y-113926962D01*
X139238867Y-113886040D01*
X139154681Y-113859389D01*
X139069557Y-113847465D01*
X138988216Y-113850722D01*
X138915380Y-113869615D01*
X138883426Y-113885184D01*
X138825501Y-113928181D01*
X138776544Y-113984953D01*
X138735390Y-114057575D01*
X138700874Y-114148121D01*
X138671833Y-114258666D01*
X138670552Y-114264533D01*
X138660381Y-114326788D01*
X138652739Y-114404594D01*
X138647670Y-114492720D01*
X138645217Y-114585934D01*
X137816100Y-114585934D01*
X137821857Y-114429895D01*
X137843802Y-114234059D01*
G37*
X137843802Y-114234059D02*
X137879786Y-114055332D01*
X137929759Y-113893845D01*
X137993668Y-113749726D01*
X138071462Y-113623106D01*
X138163089Y-113514115D01*
X138268497Y-113422883D01*
X138313662Y-113391932D01*
X138414611Y-113335785D01*
X138517901Y-113296174D01*
X138627989Y-113272014D01*
X138749330Y-113262219D01*
X138841836Y-113263265D01*
X138971490Y-113274231D01*
X139084084Y-113296046D01*
X139182875Y-113329714D01*
X139271121Y-113376236D01*
X139319986Y-113410448D01*
X139349353Y-113432362D01*
X139371043Y-113447333D01*
X139379253Y-113451733D01*
X139380868Y-113440904D01*
X139382159Y-113410251D01*
X139383138Y-113362526D01*
X139383817Y-113300479D01*
X139384210Y-113226862D01*
X139384330Y-113144427D01*
X139384188Y-113055925D01*
X139383797Y-112964107D01*
X139383171Y-112871724D01*
X139382320Y-112781528D01*
X139381260Y-112696271D01*
X139380001Y-112618703D01*
X139378556Y-112551576D01*
X139376938Y-112497641D01*
X139375161Y-112459650D01*
X139374669Y-112452667D01*
X139367092Y-112382251D01*
X139355531Y-112327102D01*
X139337792Y-112279981D01*
X139311682Y-112233647D01*
X139305415Y-112224067D01*
X139280983Y-112187378D01*
X140186311Y-112187378D01*
X140186507Y-113872245D01*
X140186526Y-114106662D01*
X140186552Y-114319603D01*
X140186625Y-114512168D01*
X140186782Y-114685459D01*
X140187064Y-114840576D01*
X140187509Y-114978620D01*
X140188156Y-115100692D01*
X140189045Y-115207894D01*
X140190213Y-115301326D01*
X140191701Y-115382090D01*
X140193546Y-115451286D01*
X140195789Y-115510015D01*
X140198469Y-115559379D01*
X140201623Y-115600478D01*
X140205292Y-115634413D01*
X140209513Y-115662286D01*
X140214327Y-115685198D01*
X140219773Y-115704249D01*
X140225888Y-115720540D01*
X140232712Y-115735173D01*
X140240285Y-115749249D01*
X140248645Y-115763868D01*
X140253839Y-115772974D01*
X140288104Y-115833689D01*
X139429955Y-115833689D01*
X139429955Y-115737733D01*
X139429224Y-115694370D01*
X139427272Y-115661205D01*
X139424463Y-115643424D01*
X139423221Y-115641778D01*
X139411799Y-115648662D01*
X139389084Y-115666505D01*
X139366385Y-115685879D01*
X139311800Y-115726614D01*
X139242321Y-115767617D01*
X139165270Y-115805123D01*
X139087965Y-115835364D01*
X139057113Y-115845012D01*
X138988616Y-115859578D01*
X138905764Y-115869539D01*
X138816371Y-115874583D01*
X138728248Y-115874396D01*
X138649207Y-115868666D01*
X138611511Y-115862858D01*
X138473414Y-115824797D01*
X138346113Y-115767073D01*
X138230292Y-115690211D01*
X138126637Y-115594739D01*
X138035833Y-115481179D01*
X137969031Y-115370381D01*
X137914164Y-115253625D01*
X137872163Y-115134276D01*
X137842167Y-115008283D01*
X137823311Y-114871594D01*
X137814732Y-114720158D01*
X137814006Y-114642711D01*
X137816100Y-114585934D01*
X138645217Y-114585934D01*
X138645424Y-114679002D01*
X138648337Y-114766692D01*
X138654000Y-114843772D01*
X138662455Y-114905009D01*
X138665038Y-114917350D01*
X138696840Y-115024633D01*
X138738498Y-115111658D01*
X138790363Y-115178642D01*
X138852781Y-115225805D01*
X138926100Y-115253365D01*
X139010669Y-115261541D01*
X139106835Y-115250551D01*
X139170311Y-115234829D01*
X139219454Y-115216639D01*
X139273583Y-115190791D01*
X139314244Y-115167089D01*
X139384800Y-115120721D01*
X139384800Y-113970530D01*
X139317392Y-113926962D01*
X139238867Y-113886040D01*
X139154681Y-113859389D01*
X139069557Y-113847465D01*
X138988216Y-113850722D01*
X138915380Y-113869615D01*
X138883426Y-113885184D01*
X138825501Y-113928181D01*
X138776544Y-113984953D01*
X138735390Y-114057575D01*
X138700874Y-114148121D01*
X138671833Y-114258666D01*
X138670552Y-114264533D01*
X138660381Y-114326788D01*
X138652739Y-114404594D01*
X138647670Y-114492720D01*
X138645217Y-114585934D01*
X137816100Y-114585934D01*
X137821857Y-114429895D01*
X137843802Y-114234059D01*
G36*
X131053600Y-111889054D02*
G01*
X131064465Y-112002993D01*
X131096082Y-112110616D01*
X131146985Y-112209615D01*
X131215707Y-112297684D01*
X131300781Y-112372516D01*
X131397768Y-112430384D01*
X131504036Y-112470005D01*
X131611050Y-112488573D01*
X131716700Y-112487434D01*
X131818875Y-112467930D01*
X131915466Y-112431406D01*
X132004362Y-112379205D01*
X132083454Y-112312673D01*
X132150631Y-112233152D01*
X132203783Y-112141987D01*
X132240801Y-112040523D01*
X132259573Y-111930102D01*
X132261511Y-111880206D01*
X132261511Y-111792267D01*
X132313440Y-111792267D01*
X132349747Y-111795111D01*
X132376645Y-111806911D01*
X132403751Y-111830649D01*
X132442133Y-111869031D01*
X132442133Y-114060602D01*
X132442124Y-114322739D01*
X132442092Y-114563241D01*
X132442028Y-114783048D01*
X132441924Y-114983101D01*
X132441773Y-115164344D01*
X132441566Y-115327716D01*
X132441294Y-115474160D01*
X132440950Y-115604617D01*
X132440526Y-115720029D01*
X132440013Y-115821338D01*
X132439403Y-115909484D01*
X132438688Y-115985410D01*
X132437860Y-116050057D01*
X132436911Y-116104367D01*
X132435833Y-116149280D01*
X132434617Y-116185740D01*
X132433255Y-116214687D01*
X132431739Y-116237063D01*
X132430062Y-116253809D01*
X132428214Y-116265868D01*
X132426187Y-116274180D01*
X132423975Y-116279687D01*
X132422892Y-116281537D01*
X132418729Y-116288549D01*
X132415195Y-116294996D01*
X132411365Y-116300900D01*
X132406318Y-116306286D01*
X132399129Y-116311178D01*
X132388877Y-116315598D01*
X132374636Y-116319572D01*
X132355486Y-116323121D01*
X132330501Y-116326270D01*
X132298760Y-116329042D01*
X132259338Y-116331461D01*
X132211314Y-116333551D01*
X132153763Y-116335335D01*
X132085763Y-116336837D01*
X132006390Y-116338080D01*
X131914721Y-116339089D01*
X131809834Y-116339885D01*
X131690804Y-116340494D01*
X131556710Y-116340939D01*
X131406627Y-116341243D01*
X131239633Y-116341430D01*
X131054804Y-116341524D01*
X130851217Y-116341548D01*
X130627950Y-116341525D01*
X130384078Y-116341480D01*
X130118679Y-116341437D01*
X130080296Y-116341432D01*
X129813318Y-116341389D01*
X129567998Y-116341318D01*
X129343417Y-116341213D01*
X129138655Y-116341066D01*
X128952794Y-116340869D01*
X128784912Y-116340616D01*
X128634092Y-116340300D01*
X128499413Y-116339913D01*
X128379956Y-116339447D01*
X128274801Y-116338897D01*
X128183029Y-116338253D01*
X128103721Y-116337511D01*
X128035957Y-116336661D01*
X127978818Y-116335697D01*
X127931383Y-116334611D01*
X127892734Y-116333397D01*
X127861951Y-116332047D01*
X127838115Y-116330555D01*
X127820306Y-116328911D01*
X127807605Y-116327111D01*
X127799092Y-116325145D01*
X127794734Y-116323477D01*
X127786272Y-116319906D01*
X127778503Y-116317270D01*
X127771398Y-116314634D01*
X127764927Y-116311062D01*
X127759061Y-116305621D01*
X127753771Y-116297375D01*
X127749026Y-116285390D01*
X127744798Y-116268731D01*
X127741057Y-116246463D01*
X127737773Y-116217652D01*
X127734917Y-116181363D01*
X127732460Y-116136661D01*
X127730371Y-116082611D01*
X127728622Y-116018279D01*
X127727183Y-115942730D01*
X127726024Y-115855030D01*
X127725117Y-115754243D01*
X127724431Y-115639434D01*
X127723937Y-115509670D01*
X127723605Y-115364015D01*
X127723407Y-115201535D01*
X127723313Y-115021295D01*
X127723292Y-114822360D01*
X127723315Y-114603796D01*
X127723354Y-114364668D01*
X127723378Y-114104040D01*
X127723378Y-114061889D01*
X127723364Y-113798992D01*
X127723339Y-113557732D01*
X127723329Y-113337165D01*
X127723358Y-113136352D01*
X127723452Y-112954349D01*
X127723638Y-112790216D01*
X127723941Y-112643011D01*
X127724386Y-112511792D01*
X127724966Y-112401867D01*
X128027803Y-112401867D01*
X128067593Y-112459711D01*
X128078764Y-112475479D01*
X128088834Y-112489441D01*
X128097862Y-112502784D01*
X128105903Y-112516693D01*
X128113014Y-112532356D01*
X128119253Y-112550958D01*
X128124675Y-112573686D01*
X128129338Y-112601727D01*
X128133299Y-112636267D01*
X128136615Y-112678492D01*
X128139341Y-112729589D01*
X128141536Y-112790744D01*
X128143255Y-112863144D01*
X128144556Y-112947975D01*
X128145495Y-113046422D01*
X128146130Y-113159674D01*
X128146516Y-113288916D01*
X128146712Y-113435334D01*
X128146773Y-113600116D01*
X128146757Y-113784447D01*
X128146720Y-113989513D01*
X128146711Y-114112133D01*
X128146735Y-114329082D01*
X128146769Y-114524642D01*
X128146757Y-114699999D01*
X128146642Y-114856341D01*
X128146370Y-114994857D01*
X128145882Y-115116734D01*
X128145124Y-115223160D01*
X128144038Y-115315322D01*
X128142569Y-115394409D01*
X128140660Y-115461608D01*
X128138256Y-115518107D01*
X128135299Y-115565093D01*
X128131734Y-115603755D01*
X128127505Y-115635280D01*
X128122554Y-115660855D01*
X128116827Y-115681670D01*
X128110267Y-115698911D01*
X128102817Y-115713765D01*
X128094421Y-115727422D01*
X128085024Y-115741069D01*
X128074568Y-115755893D01*
X128068477Y-115764783D01*
X128029704Y-115822400D01*
X128561268Y-115822400D01*
X128684517Y-115822365D01*
X128787013Y-115822215D01*
X128870580Y-115821878D01*
X128937044Y-115821286D01*
X128988229Y-115820367D01*
X129025959Y-115819051D01*
X129052060Y-115817269D01*
X129068356Y-115814951D01*
X129076672Y-115812026D01*
X129078832Y-115808424D01*
X129076661Y-115804075D01*
X129075465Y-115802645D01*
X129050315Y-115765573D01*
X129024417Y-115712772D01*
X129000808Y-115650770D01*
X128992539Y-115624357D01*
X128987922Y-115606416D01*
X128984021Y-115585355D01*
X128980752Y-115559089D01*
X128978034Y-115525532D01*
X128975785Y-115482599D01*
X128973923Y-115428204D01*
X128972364Y-115360262D01*
X128971028Y-115276688D01*
X128969831Y-115175395D01*
X128968692Y-115054300D01*
X128968315Y-115009600D01*
X128967298Y-114884449D01*
X128966540Y-114780082D01*
X128966097Y-114694707D01*
X128966030Y-114626533D01*
X128966395Y-114573765D01*
X128967252Y-114534614D01*
X128968659Y-114507285D01*
X128970675Y-114489986D01*
X128973357Y-114480926D01*
X128976764Y-114478312D01*
X128980956Y-114480351D01*
X128985429Y-114484667D01*
X128995784Y-114497602D01*
X129017842Y-114526676D01*
X129050043Y-114569759D01*
X129090826Y-114624718D01*
X129138630Y-114689423D01*
X129191895Y-114761742D01*
X129249060Y-114839544D01*
X129308563Y-114920698D01*
X129368845Y-115003072D01*
X129428345Y-115084536D01*
X129485502Y-115162957D01*
X129538755Y-115236204D01*
X129586543Y-115302147D01*
X129627307Y-115358654D01*
X129659484Y-115403593D01*
X129681515Y-115434834D01*
X129686083Y-115441466D01*
X129709004Y-115478369D01*
X129735812Y-115526359D01*
X129761211Y-115575897D01*
X129764432Y-115582577D01*
X129786110Y-115630772D01*
X129798696Y-115668334D01*
X129804426Y-115704160D01*
X129805544Y-115746200D01*
X129804910Y-115822400D01*
X130959349Y-115822400D01*
X130868185Y-115728669D01*
X130821388Y-115678775D01*
X130771101Y-115622295D01*
X130725056Y-115568026D01*
X130704631Y-115542673D01*
X130674193Y-115503128D01*
X130634138Y-115449916D01*
X130585639Y-115384667D01*
X130529865Y-115309011D01*
X130467989Y-115224577D01*
X130401181Y-115132994D01*
X130330613Y-115035892D01*
X130257455Y-114934901D01*
X130182879Y-114831650D01*
X130108056Y-114727768D01*
X130034157Y-114624885D01*
X129962354Y-114524631D01*
X129893816Y-114428636D01*
X129829716Y-114338527D01*
X129771225Y-114255936D01*
X129719514Y-114182492D01*
X129675753Y-114119824D01*
X129641115Y-114069561D01*
X129616770Y-114033334D01*
X129603889Y-114012771D01*
X129602131Y-114008668D01*
X129610090Y-113997342D01*
X129630885Y-113970162D01*
X129663153Y-113928829D01*
X129705530Y-113875044D01*
X129756653Y-113810506D01*
X129815159Y-113736918D01*
X129879686Y-113655978D01*
X129948869Y-113569388D01*
X130021347Y-113478848D01*
X130095754Y-113386060D01*
X130155483Y-113311702D01*
X131166489Y-113311702D01*
X131172398Y-113324659D01*
X131186728Y-113346908D01*
X131187775Y-113348391D01*
X131206562Y-113378544D01*
X131226209Y-113415375D01*
X131230108Y-113423511D01*
X131233644Y-113431940D01*
X131236770Y-113442059D01*
X131239514Y-113455260D01*
X131241908Y-113472938D01*
X131243981Y-113496484D01*
X131245765Y-113527293D01*
X131247288Y-113566757D01*
X131248581Y-113616269D01*
X131249674Y-113677223D01*
X131250597Y-113751011D01*
X131251381Y-113839028D01*
X131252055Y-113942665D01*
X131252650Y-114063316D01*
X131253195Y-114202374D01*
X131253721Y-114361232D01*
X131254255Y-114540089D01*
X131254794Y-114725207D01*
X131255228Y-114889145D01*
X131255491Y-115033303D01*
X131255516Y-115159079D01*
X131255235Y-115267871D01*
X131254581Y-115361077D01*
X131253486Y-115440097D01*
X131251882Y-115506328D01*
X131249703Y-115561170D01*
X131246881Y-115606021D01*
X131243349Y-115642278D01*
X131239039Y-115671341D01*
X131233883Y-115694609D01*
X131227815Y-115713479D01*
X131220767Y-115729351D01*
X131212671Y-115743622D01*
X131203460Y-115757691D01*
X131194960Y-115770158D01*
X131177824Y-115796452D01*
X131167678Y-115814037D01*
X131166489Y-115817257D01*
X131177396Y-115818334D01*
X131208589Y-115819335D01*
X131257777Y-115820235D01*
X131322667Y-115821010D01*
X131400970Y-115821637D01*
X131490393Y-115822091D01*
X131588644Y-115822349D01*
X131657555Y-115822400D01*
X131762548Y-115822180D01*
X131859390Y-115821548D01*
X131945893Y-115820549D01*
X132019868Y-115819227D01*
X132079126Y-115817626D01*
X132121480Y-115815791D01*
X132144740Y-115813765D01*
X132148622Y-115812493D01*
X132140924Y-115797591D01*
X132132926Y-115789560D01*
X132119754Y-115772434D01*
X132102515Y-115742183D01*
X132090593Y-115717622D01*
X132063955Y-115658711D01*
X132060880Y-114481845D01*
X132057805Y-113304978D01*
X131612147Y-113304978D01*
X131514330Y-113305142D01*
X131423936Y-113305611D01*
X131343370Y-113306347D01*
X131275038Y-113307316D01*
X131221344Y-113308480D01*
X131184695Y-113309803D01*
X131167496Y-113311249D01*
X131166489Y-113311702D01*
X130155483Y-113311702D01*
X130170730Y-113292722D01*
X130244910Y-113200537D01*
X130316931Y-113111204D01*
X130385431Y-113026424D01*
X130449045Y-112947898D01*
X130506412Y-112877326D01*
X130556167Y-112816409D01*
X130596948Y-112766847D01*
X130614112Y-112746178D01*
X130700404Y-112645516D01*
X130777003Y-112562259D01*
X130845817Y-112494438D01*
X130908752Y-112440089D01*
X130918133Y-112432722D01*
X130957644Y-112402117D01*
X129825884Y-112401867D01*
X129831173Y-112449844D01*
X129827870Y-112507188D01*
X129806339Y-112575463D01*
X129766365Y-112655212D01*
X129721057Y-112727495D01*
X129704839Y-112750140D01*
X129676786Y-112787696D01*
X129638570Y-112838021D01*
X129591863Y-112898973D01*
X129538339Y-112968411D01*
X129479669Y-113044194D01*
X129417525Y-113124180D01*
X129353579Y-113206228D01*
X129289505Y-113288196D01*
X129226973Y-113367943D01*
X129167657Y-113443327D01*
X129113229Y-113512207D01*
X129065361Y-113572442D01*
X129025725Y-113621889D01*
X128995994Y-113658408D01*
X128977839Y-113679858D01*
X128974780Y-113683156D01*
X128971921Y-113675149D01*
X128969707Y-113644855D01*
X128968143Y-113592556D01*
X128967233Y-113518531D01*
X128966980Y-113423063D01*
X128967387Y-113306434D01*
X128968296Y-113186445D01*
X128969618Y-113054333D01*
X128971143Y-112942594D01*
X128973119Y-112849025D01*
X128975794Y-112771419D01*
X128979418Y-112707574D01*
X128984239Y-112655283D01*
X128990506Y-112612344D01*
X128998468Y-112576551D01*
X129008373Y-112545700D01*
X129020469Y-112517586D01*
X129035007Y-112490005D01*
X129049689Y-112464966D01*
X129087686Y-112401867D01*
X128027803Y-112401867D01*
X127724966Y-112401867D01*
X127724999Y-112395617D01*
X127725805Y-112293544D01*
X127726830Y-112204633D01*
X127728100Y-112127941D01*
X127729640Y-112062527D01*
X127731476Y-112007449D01*
X127733633Y-111961765D01*
X127736137Y-111924534D01*
X127739013Y-111894813D01*
X127742287Y-111871662D01*
X127745985Y-111854139D01*
X127750131Y-111841301D01*
X127754753Y-111832208D01*
X127759874Y-111825918D01*
X127765522Y-111821488D01*
X127771721Y-111817978D01*
X127778496Y-111814445D01*
X127784492Y-111810876D01*
X127789725Y-111808300D01*
X127797901Y-111805972D01*
X127810114Y-111803878D01*
X127827459Y-111802007D01*
X127851031Y-111800347D01*
X127881923Y-111798884D01*
X127921232Y-111797608D01*
X127970050Y-111796504D01*
X128029473Y-111795561D01*
X128100596Y-111794767D01*
X128184512Y-111794109D01*
X128282317Y-111793575D01*
X128395106Y-111793153D01*
X128523971Y-111792829D01*
X128670009Y-111792592D01*
X128834314Y-111792430D01*
X129017980Y-111792330D01*
X129222103Y-111792280D01*
X129433247Y-111792267D01*
X131053600Y-111792267D01*
X131053600Y-111889054D01*
G37*
X131053600Y-111889054D02*
X131064465Y-112002993D01*
X131096082Y-112110616D01*
X131146985Y-112209615D01*
X131215707Y-112297684D01*
X131300781Y-112372516D01*
X131397768Y-112430384D01*
X131504036Y-112470005D01*
X131611050Y-112488573D01*
X131716700Y-112487434D01*
X131818875Y-112467930D01*
X131915466Y-112431406D01*
X132004362Y-112379205D01*
X132083454Y-112312673D01*
X132150631Y-112233152D01*
X132203783Y-112141987D01*
X132240801Y-112040523D01*
X132259573Y-111930102D01*
X132261511Y-111880206D01*
X132261511Y-111792267D01*
X132313440Y-111792267D01*
X132349747Y-111795111D01*
X132376645Y-111806911D01*
X132403751Y-111830649D01*
X132442133Y-111869031D01*
X132442133Y-114060602D01*
X132442124Y-114322739D01*
X132442092Y-114563241D01*
X132442028Y-114783048D01*
X132441924Y-114983101D01*
X132441773Y-115164344D01*
X132441566Y-115327716D01*
X132441294Y-115474160D01*
X132440950Y-115604617D01*
X132440526Y-115720029D01*
X132440013Y-115821338D01*
X132439403Y-115909484D01*
X132438688Y-115985410D01*
X132437860Y-116050057D01*
X132436911Y-116104367D01*
X132435833Y-116149280D01*
X132434617Y-116185740D01*
X132433255Y-116214687D01*
X132431739Y-116237063D01*
X132430062Y-116253809D01*
X132428214Y-116265868D01*
X132426187Y-116274180D01*
X132423975Y-116279687D01*
X132422892Y-116281537D01*
X132418729Y-116288549D01*
X132415195Y-116294996D01*
X132411365Y-116300900D01*
X132406318Y-116306286D01*
X132399129Y-116311178D01*
X132388877Y-116315598D01*
X132374636Y-116319572D01*
X132355486Y-116323121D01*
X132330501Y-116326270D01*
X132298760Y-116329042D01*
X132259338Y-116331461D01*
X132211314Y-116333551D01*
X132153763Y-116335335D01*
X132085763Y-116336837D01*
X132006390Y-116338080D01*
X131914721Y-116339089D01*
X131809834Y-116339885D01*
X131690804Y-116340494D01*
X131556710Y-116340939D01*
X131406627Y-116341243D01*
X131239633Y-116341430D01*
X131054804Y-116341524D01*
X130851217Y-116341548D01*
X130627950Y-116341525D01*
X130384078Y-116341480D01*
X130118679Y-116341437D01*
X130080296Y-116341432D01*
X129813318Y-116341389D01*
X129567998Y-116341318D01*
X129343417Y-116341213D01*
X129138655Y-116341066D01*
X128952794Y-116340869D01*
X128784912Y-116340616D01*
X128634092Y-116340300D01*
X128499413Y-116339913D01*
X128379956Y-116339447D01*
X128274801Y-116338897D01*
X128183029Y-116338253D01*
X128103721Y-116337511D01*
X128035957Y-116336661D01*
X127978818Y-116335697D01*
X127931383Y-116334611D01*
X127892734Y-116333397D01*
X127861951Y-116332047D01*
X127838115Y-116330555D01*
X127820306Y-116328911D01*
X127807605Y-116327111D01*
X127799092Y-116325145D01*
X127794734Y-116323477D01*
X127786272Y-116319906D01*
X127778503Y-116317270D01*
X127771398Y-116314634D01*
X127764927Y-116311062D01*
X127759061Y-116305621D01*
X127753771Y-116297375D01*
X127749026Y-116285390D01*
X127744798Y-116268731D01*
X127741057Y-116246463D01*
X127737773Y-116217652D01*
X127734917Y-116181363D01*
X127732460Y-116136661D01*
X127730371Y-116082611D01*
X127728622Y-116018279D01*
X127727183Y-115942730D01*
X127726024Y-115855030D01*
X127725117Y-115754243D01*
X127724431Y-115639434D01*
X127723937Y-115509670D01*
X127723605Y-115364015D01*
X127723407Y-115201535D01*
X127723313Y-115021295D01*
X127723292Y-114822360D01*
X127723315Y-114603796D01*
X127723354Y-114364668D01*
X127723378Y-114104040D01*
X127723378Y-114061889D01*
X127723364Y-113798992D01*
X127723339Y-113557732D01*
X127723329Y-113337165D01*
X127723358Y-113136352D01*
X127723452Y-112954349D01*
X127723638Y-112790216D01*
X127723941Y-112643011D01*
X127724386Y-112511792D01*
X127724966Y-112401867D01*
X128027803Y-112401867D01*
X128067593Y-112459711D01*
X128078764Y-112475479D01*
X128088834Y-112489441D01*
X128097862Y-112502784D01*
X128105903Y-112516693D01*
X128113014Y-112532356D01*
X128119253Y-112550958D01*
X128124675Y-112573686D01*
X128129338Y-112601727D01*
X128133299Y-112636267D01*
X128136615Y-112678492D01*
X128139341Y-112729589D01*
X128141536Y-112790744D01*
X128143255Y-112863144D01*
X128144556Y-112947975D01*
X128145495Y-113046422D01*
X128146130Y-113159674D01*
X128146516Y-113288916D01*
X128146712Y-113435334D01*
X128146773Y-113600116D01*
X128146757Y-113784447D01*
X128146720Y-113989513D01*
X128146711Y-114112133D01*
X128146735Y-114329082D01*
X128146769Y-114524642D01*
X128146757Y-114699999D01*
X128146642Y-114856341D01*
X128146370Y-114994857D01*
X128145882Y-115116734D01*
X128145124Y-115223160D01*
X128144038Y-115315322D01*
X128142569Y-115394409D01*
X128140660Y-115461608D01*
X128138256Y-115518107D01*
X128135299Y-115565093D01*
X128131734Y-115603755D01*
X128127505Y-115635280D01*
X128122554Y-115660855D01*
X128116827Y-115681670D01*
X128110267Y-115698911D01*
X128102817Y-115713765D01*
X128094421Y-115727422D01*
X128085024Y-115741069D01*
X128074568Y-115755893D01*
X128068477Y-115764783D01*
X128029704Y-115822400D01*
X128561268Y-115822400D01*
X128684517Y-115822365D01*
X128787013Y-115822215D01*
X128870580Y-115821878D01*
X128937044Y-115821286D01*
X128988229Y-115820367D01*
X129025959Y-115819051D01*
X129052060Y-115817269D01*
X129068356Y-115814951D01*
X129076672Y-115812026D01*
X129078832Y-115808424D01*
X129076661Y-115804075D01*
X129075465Y-115802645D01*
X129050315Y-115765573D01*
X129024417Y-115712772D01*
X129000808Y-115650770D01*
X128992539Y-115624357D01*
X128987922Y-115606416D01*
X128984021Y-115585355D01*
X128980752Y-115559089D01*
X128978034Y-115525532D01*
X128975785Y-115482599D01*
X128973923Y-115428204D01*
X128972364Y-115360262D01*
X128971028Y-115276688D01*
X128969831Y-115175395D01*
X128968692Y-115054300D01*
X128968315Y-115009600D01*
X128967298Y-114884449D01*
X128966540Y-114780082D01*
X128966097Y-114694707D01*
X128966030Y-114626533D01*
X128966395Y-114573765D01*
X128967252Y-114534614D01*
X128968659Y-114507285D01*
X128970675Y-114489986D01*
X128973357Y-114480926D01*
X128976764Y-114478312D01*
X128980956Y-114480351D01*
X128985429Y-114484667D01*
X128995784Y-114497602D01*
X129017842Y-114526676D01*
X129050043Y-114569759D01*
X129090826Y-114624718D01*
X129138630Y-114689423D01*
X129191895Y-114761742D01*
X129249060Y-114839544D01*
X129308563Y-114920698D01*
X129368845Y-115003072D01*
X129428345Y-115084536D01*
X129485502Y-115162957D01*
X129538755Y-115236204D01*
X129586543Y-115302147D01*
X129627307Y-115358654D01*
X129659484Y-115403593D01*
X129681515Y-115434834D01*
X129686083Y-115441466D01*
X129709004Y-115478369D01*
X129735812Y-115526359D01*
X129761211Y-115575897D01*
X129764432Y-115582577D01*
X129786110Y-115630772D01*
X129798696Y-115668334D01*
X129804426Y-115704160D01*
X129805544Y-115746200D01*
X129804910Y-115822400D01*
X130959349Y-115822400D01*
X130868185Y-115728669D01*
X130821388Y-115678775D01*
X130771101Y-115622295D01*
X130725056Y-115568026D01*
X130704631Y-115542673D01*
X130674193Y-115503128D01*
X130634138Y-115449916D01*
X130585639Y-115384667D01*
X130529865Y-115309011D01*
X130467989Y-115224577D01*
X130401181Y-115132994D01*
X130330613Y-115035892D01*
X130257455Y-114934901D01*
X130182879Y-114831650D01*
X130108056Y-114727768D01*
X130034157Y-114624885D01*
X129962354Y-114524631D01*
X129893816Y-114428636D01*
X129829716Y-114338527D01*
X129771225Y-114255936D01*
X129719514Y-114182492D01*
X129675753Y-114119824D01*
X129641115Y-114069561D01*
X129616770Y-114033334D01*
X129603889Y-114012771D01*
X129602131Y-114008668D01*
X129610090Y-113997342D01*
X129630885Y-113970162D01*
X129663153Y-113928829D01*
X129705530Y-113875044D01*
X129756653Y-113810506D01*
X129815159Y-113736918D01*
X129879686Y-113655978D01*
X129948869Y-113569388D01*
X130021347Y-113478848D01*
X130095754Y-113386060D01*
X130155483Y-113311702D01*
X131166489Y-113311702D01*
X131172398Y-113324659D01*
X131186728Y-113346908D01*
X131187775Y-113348391D01*
X131206562Y-113378544D01*
X131226209Y-113415375D01*
X131230108Y-113423511D01*
X131233644Y-113431940D01*
X131236770Y-113442059D01*
X131239514Y-113455260D01*
X131241908Y-113472938D01*
X131243981Y-113496484D01*
X131245765Y-113527293D01*
X131247288Y-113566757D01*
X131248581Y-113616269D01*
X131249674Y-113677223D01*
X131250597Y-113751011D01*
X131251381Y-113839028D01*
X131252055Y-113942665D01*
X131252650Y-114063316D01*
X131253195Y-114202374D01*
X131253721Y-114361232D01*
X131254255Y-114540089D01*
X131254794Y-114725207D01*
X131255228Y-114889145D01*
X131255491Y-115033303D01*
X131255516Y-115159079D01*
X131255235Y-115267871D01*
X131254581Y-115361077D01*
X131253486Y-115440097D01*
X131251882Y-115506328D01*
X131249703Y-115561170D01*
X131246881Y-115606021D01*
X131243349Y-115642278D01*
X131239039Y-115671341D01*
X131233883Y-115694609D01*
X131227815Y-115713479D01*
X131220767Y-115729351D01*
X131212671Y-115743622D01*
X131203460Y-115757691D01*
X131194960Y-115770158D01*
X131177824Y-115796452D01*
X131167678Y-115814037D01*
X131166489Y-115817257D01*
X131177396Y-115818334D01*
X131208589Y-115819335D01*
X131257777Y-115820235D01*
X131322667Y-115821010D01*
X131400970Y-115821637D01*
X131490393Y-115822091D01*
X131588644Y-115822349D01*
X131657555Y-115822400D01*
X131762548Y-115822180D01*
X131859390Y-115821548D01*
X131945893Y-115820549D01*
X132019868Y-115819227D01*
X132079126Y-115817626D01*
X132121480Y-115815791D01*
X132144740Y-115813765D01*
X132148622Y-115812493D01*
X132140924Y-115797591D01*
X132132926Y-115789560D01*
X132119754Y-115772434D01*
X132102515Y-115742183D01*
X132090593Y-115717622D01*
X132063955Y-115658711D01*
X132060880Y-114481845D01*
X132057805Y-113304978D01*
X131612147Y-113304978D01*
X131514330Y-113305142D01*
X131423936Y-113305611D01*
X131343370Y-113306347D01*
X131275038Y-113307316D01*
X131221344Y-113308480D01*
X131184695Y-113309803D01*
X131167496Y-113311249D01*
X131166489Y-113311702D01*
X130155483Y-113311702D01*
X130170730Y-113292722D01*
X130244910Y-113200537D01*
X130316931Y-113111204D01*
X130385431Y-113026424D01*
X130449045Y-112947898D01*
X130506412Y-112877326D01*
X130556167Y-112816409D01*
X130596948Y-112766847D01*
X130614112Y-112746178D01*
X130700404Y-112645516D01*
X130777003Y-112562259D01*
X130845817Y-112494438D01*
X130908752Y-112440089D01*
X130918133Y-112432722D01*
X130957644Y-112402117D01*
X129825884Y-112401867D01*
X129831173Y-112449844D01*
X129827870Y-112507188D01*
X129806339Y-112575463D01*
X129766365Y-112655212D01*
X129721057Y-112727495D01*
X129704839Y-112750140D01*
X129676786Y-112787696D01*
X129638570Y-112838021D01*
X129591863Y-112898973D01*
X129538339Y-112968411D01*
X129479669Y-113044194D01*
X129417525Y-113124180D01*
X129353579Y-113206228D01*
X129289505Y-113288196D01*
X129226973Y-113367943D01*
X129167657Y-113443327D01*
X129113229Y-113512207D01*
X129065361Y-113572442D01*
X129025725Y-113621889D01*
X128995994Y-113658408D01*
X128977839Y-113679858D01*
X128974780Y-113683156D01*
X128971921Y-113675149D01*
X128969707Y-113644855D01*
X128968143Y-113592556D01*
X128967233Y-113518531D01*
X128966980Y-113423063D01*
X128967387Y-113306434D01*
X128968296Y-113186445D01*
X128969618Y-113054333D01*
X128971143Y-112942594D01*
X128973119Y-112849025D01*
X128975794Y-112771419D01*
X128979418Y-112707574D01*
X128984239Y-112655283D01*
X128990506Y-112612344D01*
X128998468Y-112576551D01*
X129008373Y-112545700D01*
X129020469Y-112517586D01*
X129035007Y-112490005D01*
X129049689Y-112464966D01*
X129087686Y-112401867D01*
X128027803Y-112401867D01*
X127724966Y-112401867D01*
X127724999Y-112395617D01*
X127725805Y-112293544D01*
X127726830Y-112204633D01*
X127728100Y-112127941D01*
X127729640Y-112062527D01*
X127731476Y-112007449D01*
X127733633Y-111961765D01*
X127736137Y-111924534D01*
X127739013Y-111894813D01*
X127742287Y-111871662D01*
X127745985Y-111854139D01*
X127750131Y-111841301D01*
X127754753Y-111832208D01*
X127759874Y-111825918D01*
X127765522Y-111821488D01*
X127771721Y-111817978D01*
X127778496Y-111814445D01*
X127784492Y-111810876D01*
X127789725Y-111808300D01*
X127797901Y-111805972D01*
X127810114Y-111803878D01*
X127827459Y-111802007D01*
X127851031Y-111800347D01*
X127881923Y-111798884D01*
X127921232Y-111797608D01*
X127970050Y-111796504D01*
X128029473Y-111795561D01*
X128100596Y-111794767D01*
X128184512Y-111794109D01*
X128282317Y-111793575D01*
X128395106Y-111793153D01*
X128523971Y-111792829D01*
X128670009Y-111792592D01*
X128834314Y-111792430D01*
X129017980Y-111792330D01*
X129222103Y-111792280D01*
X129433247Y-111792267D01*
X131053600Y-111792267D01*
X131053600Y-111889054D01*
G36*
X130308297Y-116670351D02*
G01*
X130383112Y-116675581D01*
X130452694Y-116683750D01*
X130512998Y-116694550D01*
X130559980Y-116707673D01*
X130589594Y-116722813D01*
X130594140Y-116727269D01*
X130609946Y-116761850D01*
X130605153Y-116797351D01*
X130580636Y-116827725D01*
X130579466Y-116828596D01*
X130565046Y-116837954D01*
X130549992Y-116842876D01*
X130528995Y-116843473D01*
X130496743Y-116839861D01*
X130447927Y-116832154D01*
X130444000Y-116831505D01*
X130371261Y-116822569D01*
X130292783Y-116818161D01*
X130214073Y-116818119D01*
X130140639Y-116822279D01*
X130077989Y-116830479D01*
X130031630Y-116842557D01*
X130028584Y-116843771D01*
X129994952Y-116862615D01*
X129983136Y-116881685D01*
X129992386Y-116900439D01*
X130021953Y-116918337D01*
X130071089Y-116934837D01*
X130139043Y-116949396D01*
X130184355Y-116956406D01*
X130278544Y-116969889D01*
X130353456Y-116982214D01*
X130412283Y-116994449D01*
X130458215Y-117007661D01*
X130494445Y-117022917D01*
X130524162Y-117041285D01*
X130550558Y-117063831D01*
X130571770Y-117085971D01*
X130596935Y-117116819D01*
X130609319Y-117143345D01*
X130613192Y-117176026D01*
X130613333Y-117187995D01*
X130610424Y-117227712D01*
X130598798Y-117257259D01*
X130578677Y-117283486D01*
X130537784Y-117323576D01*
X130492183Y-117354149D01*
X130438487Y-117376203D01*
X130373308Y-117390735D01*
X130293256Y-117398741D01*
X130194943Y-117401218D01*
X130178711Y-117401177D01*
X130113151Y-117399818D01*
X130048134Y-117396730D01*
X129990748Y-117392356D01*
X129948078Y-117387140D01*
X129944628Y-117386541D01*
X129902204Y-117376491D01*
X129866220Y-117363796D01*
X129845850Y-117352190D01*
X129826893Y-117321572D01*
X129825573Y-117285918D01*
X129841915Y-117254144D01*
X129845571Y-117250551D01*
X129860685Y-117239876D01*
X129879585Y-117235276D01*
X129908838Y-117236059D01*
X129944349Y-117240127D01*
X129984030Y-117243762D01*
X130039655Y-117246828D01*
X130104594Y-117249053D01*
X130172215Y-117250164D01*
X130190000Y-117250237D01*
X130257872Y-117249964D01*
X130307546Y-117248646D01*
X130343390Y-117245827D01*
X130369776Y-117241050D01*
X130391074Y-117233857D01*
X130403874Y-117227867D01*
X130432000Y-117211233D01*
X130449932Y-117196168D01*
X130452553Y-117191897D01*
X130447024Y-117174263D01*
X130420740Y-117157192D01*
X130375522Y-117141458D01*
X130313192Y-117127838D01*
X130294829Y-117124804D01*
X130198910Y-117109738D01*
X130122359Y-117097146D01*
X130062220Y-117086111D01*
X130015540Y-117075720D01*
X129979363Y-117065056D01*
X129950735Y-117053205D01*
X129926702Y-117039251D01*
X129904308Y-117022281D01*
X129880598Y-117001378D01*
X129872620Y-116994049D01*
X129844647Y-116966699D01*
X129829840Y-116945029D01*
X129824048Y-116920232D01*
X129823111Y-116888983D01*
X129833425Y-116827705D01*
X129864248Y-116775640D01*
X129915405Y-116732958D01*
X129986717Y-116699825D01*
X130037600Y-116684964D01*
X130092900Y-116675366D01*
X130159147Y-116669936D01*
X130232294Y-116668367D01*
X130308297Y-116670351D01*
G37*
X130308297Y-116670351D02*
X130383112Y-116675581D01*
X130452694Y-116683750D01*
X130512998Y-116694550D01*
X130559980Y-116707673D01*
X130589594Y-116722813D01*
X130594140Y-116727269D01*
X130609946Y-116761850D01*
X130605153Y-116797351D01*
X130580636Y-116827725D01*
X130579466Y-116828596D01*
X130565046Y-116837954D01*
X130549992Y-116842876D01*
X130528995Y-116843473D01*
X130496743Y-116839861D01*
X130447927Y-116832154D01*
X130444000Y-116831505D01*
X130371261Y-116822569D01*
X130292783Y-116818161D01*
X130214073Y-116818119D01*
X130140639Y-116822279D01*
X130077989Y-116830479D01*
X130031630Y-116842557D01*
X130028584Y-116843771D01*
X129994952Y-116862615D01*
X129983136Y-116881685D01*
X129992386Y-116900439D01*
X130021953Y-116918337D01*
X130071089Y-116934837D01*
X130139043Y-116949396D01*
X130184355Y-116956406D01*
X130278544Y-116969889D01*
X130353456Y-116982214D01*
X130412283Y-116994449D01*
X130458215Y-117007661D01*
X130494445Y-117022917D01*
X130524162Y-117041285D01*
X130550558Y-117063831D01*
X130571770Y-117085971D01*
X130596935Y-117116819D01*
X130609319Y-117143345D01*
X130613192Y-117176026D01*
X130613333Y-117187995D01*
X130610424Y-117227712D01*
X130598798Y-117257259D01*
X130578677Y-117283486D01*
X130537784Y-117323576D01*
X130492183Y-117354149D01*
X130438487Y-117376203D01*
X130373308Y-117390735D01*
X130293256Y-117398741D01*
X130194943Y-117401218D01*
X130178711Y-117401177D01*
X130113151Y-117399818D01*
X130048134Y-117396730D01*
X129990748Y-117392356D01*
X129948078Y-117387140D01*
X129944628Y-117386541D01*
X129902204Y-117376491D01*
X129866220Y-117363796D01*
X129845850Y-117352190D01*
X129826893Y-117321572D01*
X129825573Y-117285918D01*
X129841915Y-117254144D01*
X129845571Y-117250551D01*
X129860685Y-117239876D01*
X129879585Y-117235276D01*
X129908838Y-117236059D01*
X129944349Y-117240127D01*
X129984030Y-117243762D01*
X130039655Y-117246828D01*
X130104594Y-117249053D01*
X130172215Y-117250164D01*
X130190000Y-117250237D01*
X130257872Y-117249964D01*
X130307546Y-117248646D01*
X130343390Y-117245827D01*
X130369776Y-117241050D01*
X130391074Y-117233857D01*
X130403874Y-117227867D01*
X130432000Y-117211233D01*
X130449932Y-117196168D01*
X130452553Y-117191897D01*
X130447024Y-117174263D01*
X130420740Y-117157192D01*
X130375522Y-117141458D01*
X130313192Y-117127838D01*
X130294829Y-117124804D01*
X130198910Y-117109738D01*
X130122359Y-117097146D01*
X130062220Y-117086111D01*
X130015540Y-117075720D01*
X129979363Y-117065056D01*
X129950735Y-117053205D01*
X129926702Y-117039251D01*
X129904308Y-117022281D01*
X129880598Y-117001378D01*
X129872620Y-116994049D01*
X129844647Y-116966699D01*
X129829840Y-116945029D01*
X129824048Y-116920232D01*
X129823111Y-116888983D01*
X129833425Y-116827705D01*
X129864248Y-116775640D01*
X129915405Y-116732958D01*
X129986717Y-116699825D01*
X130037600Y-116684964D01*
X130092900Y-116675366D01*
X130159147Y-116669936D01*
X130232294Y-116668367D01*
X130308297Y-116670351D01*
G36*
X131076178Y-116691645D02*
G01*
X131082758Y-116699218D01*
X131087921Y-116708987D01*
X131091836Y-116723571D01*
X131094676Y-116745585D01*
X131096613Y-116777648D01*
X131097817Y-116822375D01*
X131098461Y-116882385D01*
X131098716Y-116960294D01*
X131098755Y-117035956D01*
X131098686Y-117129802D01*
X131098362Y-117203689D01*
X131097614Y-117260232D01*
X131096268Y-117302049D01*
X131094154Y-117331757D01*
X131091100Y-117351973D01*
X131086934Y-117365314D01*
X131081484Y-117374398D01*
X131076178Y-117380267D01*
X131043174Y-117399947D01*
X131008009Y-117398181D01*
X130976545Y-117376717D01*
X130969316Y-117368337D01*
X130963666Y-117358614D01*
X130959401Y-117344861D01*
X130956327Y-117324389D01*
X130954248Y-117294512D01*
X130952970Y-117252541D01*
X130952299Y-117195789D01*
X130952041Y-117121567D01*
X130952000Y-117037537D01*
X130952000Y-116724485D01*
X130979709Y-116696776D01*
X131013863Y-116673463D01*
X131046994Y-116672623D01*
X131076178Y-116691645D01*
G37*
X131076178Y-116691645D02*
X131082758Y-116699218D01*
X131087921Y-116708987D01*
X131091836Y-116723571D01*
X131094676Y-116745585D01*
X131096613Y-116777648D01*
X131097817Y-116822375D01*
X131098461Y-116882385D01*
X131098716Y-116960294D01*
X131098755Y-117035956D01*
X131098686Y-117129802D01*
X131098362Y-117203689D01*
X131097614Y-117260232D01*
X131096268Y-117302049D01*
X131094154Y-117331757D01*
X131091100Y-117351973D01*
X131086934Y-117365314D01*
X131081484Y-117374398D01*
X131076178Y-117380267D01*
X131043174Y-117399947D01*
X131008009Y-117398181D01*
X130976545Y-117376717D01*
X130969316Y-117368337D01*
X130963666Y-117358614D01*
X130959401Y-117344861D01*
X130956327Y-117324389D01*
X130954248Y-117294512D01*
X130952970Y-117252541D01*
X130952299Y-117195789D01*
X130952041Y-117121567D01*
X130952000Y-117037537D01*
X130952000Y-116724485D01*
X130979709Y-116696776D01*
X131013863Y-116673463D01*
X131046994Y-116672623D01*
X131076178Y-116691645D01*
G36*
X132049919Y-116674599D02*
G01*
X132118435Y-116686095D01*
X132171057Y-116703967D01*
X132205292Y-116727499D01*
X132214621Y-116740924D01*
X132224107Y-116772148D01*
X132217723Y-116800395D01*
X132197570Y-116827182D01*
X132166255Y-116839713D01*
X132120817Y-116838696D01*
X132085674Y-116831906D01*
X132007581Y-116818971D01*
X131927774Y-116817742D01*
X131838445Y-116828241D01*
X131813771Y-116832690D01*
X131730709Y-116856108D01*
X131665727Y-116890945D01*
X131619539Y-116936604D01*
X131592855Y-116992494D01*
X131587337Y-117021388D01*
X131590949Y-117080012D01*
X131614271Y-117131879D01*
X131655176Y-117175978D01*
X131711541Y-117211299D01*
X131781240Y-117236829D01*
X131862148Y-117251559D01*
X131952140Y-117254478D01*
X132049090Y-117244575D01*
X132054564Y-117243641D01*
X132093125Y-117236459D01*
X132114506Y-117229521D01*
X132123773Y-117219227D01*
X132125994Y-117201976D01*
X132126044Y-117192841D01*
X132126044Y-117154489D01*
X132057569Y-117154489D01*
X131997100Y-117150347D01*
X131955835Y-117137147D01*
X131931825Y-117113730D01*
X131923123Y-117078936D01*
X131923017Y-117074394D01*
X131928108Y-117044654D01*
X131945567Y-117023419D01*
X131978061Y-117009366D01*
X132028257Y-117001173D01*
X132076877Y-116998161D01*
X132147544Y-116996433D01*
X132198802Y-116999070D01*
X132233761Y-117008800D01*
X132255530Y-117028353D01*
X132267220Y-117060456D01*
X132271940Y-117107838D01*
X132272800Y-117170071D01*
X132271391Y-117239535D01*
X132267152Y-117286786D01*
X132260064Y-117312012D01*
X132258689Y-117313988D01*
X132219772Y-117345508D01*
X132162714Y-117370470D01*
X132091131Y-117388340D01*
X132008642Y-117398586D01*
X131918861Y-117400673D01*
X131825408Y-117394068D01*
X131770444Y-117385956D01*
X131684234Y-117361554D01*
X131604108Y-117321662D01*
X131537023Y-117269887D01*
X131526827Y-117259539D01*
X131493698Y-117216035D01*
X131463806Y-117162118D01*
X131440643Y-117105592D01*
X131427702Y-117054259D01*
X131426142Y-117034544D01*
X131432782Y-116993419D01*
X131450432Y-116942252D01*
X131475703Y-116888394D01*
X131505211Y-116839195D01*
X131531281Y-116806334D01*
X131592235Y-116757452D01*
X131671031Y-116718545D01*
X131764843Y-116690494D01*
X131870850Y-116674179D01*
X131968000Y-116670192D01*
X132049919Y-116674599D01*
G37*
X132049919Y-116674599D02*
X132118435Y-116686095D01*
X132171057Y-116703967D01*
X132205292Y-116727499D01*
X132214621Y-116740924D01*
X132224107Y-116772148D01*
X132217723Y-116800395D01*
X132197570Y-116827182D01*
X132166255Y-116839713D01*
X132120817Y-116838696D01*
X132085674Y-116831906D01*
X132007581Y-116818971D01*
X131927774Y-116817742D01*
X131838445Y-116828241D01*
X131813771Y-116832690D01*
X131730709Y-116856108D01*
X131665727Y-116890945D01*
X131619539Y-116936604D01*
X131592855Y-116992494D01*
X131587337Y-117021388D01*
X131590949Y-117080012D01*
X131614271Y-117131879D01*
X131655176Y-117175978D01*
X131711541Y-117211299D01*
X131781240Y-117236829D01*
X131862148Y-117251559D01*
X131952140Y-117254478D01*
X132049090Y-117244575D01*
X132054564Y-117243641D01*
X132093125Y-117236459D01*
X132114506Y-117229521D01*
X132123773Y-117219227D01*
X132125994Y-117201976D01*
X132126044Y-117192841D01*
X132126044Y-117154489D01*
X132057569Y-117154489D01*
X131997100Y-117150347D01*
X131955835Y-117137147D01*
X131931825Y-117113730D01*
X131923123Y-117078936D01*
X131923017Y-117074394D01*
X131928108Y-117044654D01*
X131945567Y-117023419D01*
X131978061Y-117009366D01*
X132028257Y-117001173D01*
X132076877Y-116998161D01*
X132147544Y-116996433D01*
X132198802Y-116999070D01*
X132233761Y-117008800D01*
X132255530Y-117028353D01*
X132267220Y-117060456D01*
X132271940Y-117107838D01*
X132272800Y-117170071D01*
X132271391Y-117239535D01*
X132267152Y-117286786D01*
X132260064Y-117312012D01*
X132258689Y-117313988D01*
X132219772Y-117345508D01*
X132162714Y-117370470D01*
X132091131Y-117388340D01*
X132008642Y-117398586D01*
X131918861Y-117400673D01*
X131825408Y-117394068D01*
X131770444Y-117385956D01*
X131684234Y-117361554D01*
X131604108Y-117321662D01*
X131537023Y-117269887D01*
X131526827Y-117259539D01*
X131493698Y-117216035D01*
X131463806Y-117162118D01*
X131440643Y-117105592D01*
X131427702Y-117054259D01*
X131426142Y-117034544D01*
X131432782Y-116993419D01*
X131450432Y-116942252D01*
X131475703Y-116888394D01*
X131505211Y-116839195D01*
X131531281Y-116806334D01*
X131592235Y-116757452D01*
X131671031Y-116718545D01*
X131764843Y-116690494D01*
X131870850Y-116674179D01*
X131968000Y-116670192D01*
X132049919Y-116674599D01*
G36*
X129287206Y-116669146D02*
G01*
X129356614Y-116669518D01*
X129409003Y-116670385D01*
X129447153Y-116671946D01*
X129473841Y-116674403D01*
X129491847Y-116677957D01*
X129503951Y-116682810D01*
X129512931Y-116689161D01*
X129516182Y-116692084D01*
X129535957Y-116723142D01*
X129539518Y-116758828D01*
X129526509Y-116790510D01*
X129520494Y-116796913D01*
X129510765Y-116803121D01*
X129495099Y-116807910D01*
X129470592Y-116811514D01*
X129434339Y-116814164D01*
X129383435Y-116816095D01*
X129314974Y-116817539D01*
X129252383Y-116818418D01*
X129004666Y-116821467D01*
X129001281Y-116886378D01*
X128997895Y-116951289D01*
X129166042Y-116951289D01*
X129239041Y-116951919D01*
X129292483Y-116954553D01*
X129329372Y-116960309D01*
X129352712Y-116970304D01*
X129365506Y-116985656D01*
X129370758Y-117007482D01*
X129371555Y-117027738D01*
X129369077Y-117052592D01*
X129359723Y-117070906D01*
X129340617Y-117083637D01*
X129308882Y-117091741D01*
X129261641Y-117096176D01*
X129196017Y-117097899D01*
X129160199Y-117098045D01*
X128999022Y-117098045D01*
X128999022Y-117256089D01*
X129247378Y-117256089D01*
X129328787Y-117256202D01*
X129390658Y-117256712D01*
X129436032Y-117257870D01*
X129467946Y-117259930D01*
X129489441Y-117263146D01*
X129503557Y-117267772D01*
X129513332Y-117274059D01*
X129518311Y-117278667D01*
X129535390Y-117305560D01*
X129540889Y-117329467D01*
X129533037Y-117358667D01*
X129518311Y-117380267D01*
X129510454Y-117387066D01*
X129500312Y-117392346D01*
X129485156Y-117396298D01*
X129462259Y-117399113D01*
X129428891Y-117400982D01*
X129382325Y-117402098D01*
X129319833Y-117402651D01*
X129238686Y-117402833D01*
X129196578Y-117402845D01*
X129106402Y-117402765D01*
X129036076Y-117402398D01*
X128982871Y-117401552D01*
X128944060Y-117400036D01*
X128916913Y-117397659D01*
X128898702Y-117394229D01*
X128886700Y-117389554D01*
X128878178Y-117383444D01*
X128874844Y-117380267D01*
X128868245Y-117372670D01*
X128863073Y-117362870D01*
X128859154Y-117348239D01*
X128856316Y-117326152D01*
X128854385Y-117293982D01*
X128853188Y-117249103D01*
X128852552Y-117188889D01*
X128852303Y-117110713D01*
X128852266Y-117037923D01*
X128852300Y-116944707D01*
X128852535Y-116871431D01*
X128853170Y-116815458D01*
X128854406Y-116774151D01*
X128856444Y-116744872D01*
X128859483Y-116724984D01*
X128863723Y-116711850D01*
X128869365Y-116702832D01*
X128876609Y-116695293D01*
X128878394Y-116693612D01*
X128887055Y-116686172D01*
X128897118Y-116680409D01*
X128911375Y-116676112D01*
X128932617Y-116673064D01*
X128963636Y-116671051D01*
X129007223Y-116669860D01*
X129066169Y-116669275D01*
X129143266Y-116669083D01*
X129197999Y-116669067D01*
X129287206Y-116669146D01*
G37*
X129287206Y-116669146D02*
X129356614Y-116669518D01*
X129409003Y-116670385D01*
X129447153Y-116671946D01*
X129473841Y-116674403D01*
X129491847Y-116677957D01*
X129503951Y-116682810D01*
X129512931Y-116689161D01*
X129516182Y-116692084D01*
X129535957Y-116723142D01*
X129539518Y-116758828D01*
X129526509Y-116790510D01*
X129520494Y-116796913D01*
X129510765Y-116803121D01*
X129495099Y-116807910D01*
X129470592Y-116811514D01*
X129434339Y-116814164D01*
X129383435Y-116816095D01*
X129314974Y-116817539D01*
X129252383Y-116818418D01*
X129004666Y-116821467D01*
X129001281Y-116886378D01*
X128997895Y-116951289D01*
X129166042Y-116951289D01*
X129239041Y-116951919D01*
X129292483Y-116954553D01*
X129329372Y-116960309D01*
X129352712Y-116970304D01*
X129365506Y-116985656D01*
X129370758Y-117007482D01*
X129371555Y-117027738D01*
X129369077Y-117052592D01*
X129359723Y-117070906D01*
X129340617Y-117083637D01*
X129308882Y-117091741D01*
X129261641Y-117096176D01*
X129196017Y-117097899D01*
X129160199Y-117098045D01*
X128999022Y-117098045D01*
X128999022Y-117256089D01*
X129247378Y-117256089D01*
X129328787Y-117256202D01*
X129390658Y-117256712D01*
X129436032Y-117257870D01*
X129467946Y-117259930D01*
X129489441Y-117263146D01*
X129503557Y-117267772D01*
X129513332Y-117274059D01*
X129518311Y-117278667D01*
X129535390Y-117305560D01*
X129540889Y-117329467D01*
X129533037Y-117358667D01*
X129518311Y-117380267D01*
X129510454Y-117387066D01*
X129500312Y-117392346D01*
X129485156Y-117396298D01*
X129462259Y-117399113D01*
X129428891Y-117400982D01*
X129382325Y-117402098D01*
X129319833Y-117402651D01*
X129238686Y-117402833D01*
X129196578Y-117402845D01*
X129106402Y-117402765D01*
X129036076Y-117402398D01*
X128982871Y-117401552D01*
X128944060Y-117400036D01*
X128916913Y-117397659D01*
X128898702Y-117394229D01*
X128886700Y-117389554D01*
X128878178Y-117383444D01*
X128874844Y-117380267D01*
X128868245Y-117372670D01*
X128863073Y-117362870D01*
X128859154Y-117348239D01*
X128856316Y-117326152D01*
X128854385Y-117293982D01*
X128853188Y-117249103D01*
X128852552Y-117188889D01*
X128852303Y-117110713D01*
X128852266Y-117037923D01*
X128852300Y-116944707D01*
X128852535Y-116871431D01*
X128853170Y-116815458D01*
X128854406Y-116774151D01*
X128856444Y-116744872D01*
X128859483Y-116724984D01*
X128863723Y-116711850D01*
X128869365Y-116702832D01*
X128876609Y-116695293D01*
X128878394Y-116693612D01*
X128887055Y-116686172D01*
X128897118Y-116680409D01*
X128911375Y-116676112D01*
X128932617Y-116673064D01*
X128963636Y-116671051D01*
X129007223Y-116669860D01*
X129066169Y-116669275D01*
X129143266Y-116669083D01*
X129197999Y-116669067D01*
X129287206Y-116669146D01*
G36*
X140228823Y-116674533D02*
G01*
X140260202Y-116696776D01*
X140287911Y-116724485D01*
X140287911Y-117033920D01*
X140287838Y-117125799D01*
X140287495Y-117197840D01*
X140286692Y-117252780D01*
X140285241Y-117293360D01*
X140282952Y-117322317D01*
X140279636Y-117342391D01*
X140275105Y-117356321D01*
X140269169Y-117366845D01*
X140264514Y-117373100D01*
X140233783Y-117397673D01*
X140198496Y-117400341D01*
X140166245Y-117385271D01*
X140155588Y-117376374D01*
X140148464Y-117364557D01*
X140144167Y-117345526D01*
X140141991Y-117314992D01*
X140141228Y-117268662D01*
X140141155Y-117232871D01*
X140141155Y-117098045D01*
X139644444Y-117098045D01*
X139644444Y-117220700D01*
X139643931Y-117276787D01*
X139641876Y-117315333D01*
X139637508Y-117341361D01*
X139630056Y-117359897D01*
X139621047Y-117373100D01*
X139590144Y-117397604D01*
X139555196Y-117400506D01*
X139521738Y-117383089D01*
X139512604Y-117373959D01*
X139506152Y-117361855D01*
X139501897Y-117343001D01*
X139499352Y-117313620D01*
X139498029Y-117269937D01*
X139497443Y-117208175D01*
X139497375Y-117194000D01*
X139496891Y-117077631D01*
X139496641Y-116981727D01*
X139496723Y-116904177D01*
X139497231Y-116842869D01*
X139498262Y-116795690D01*
X139499913Y-116760530D01*
X139502279Y-116735276D01*
X139505457Y-116717817D01*
X139509544Y-116706041D01*
X139514634Y-116697835D01*
X139520266Y-116691645D01*
X139552128Y-116671844D01*
X139585357Y-116674533D01*
X139616735Y-116696776D01*
X139629433Y-116711126D01*
X139637526Y-116726978D01*
X139642042Y-116749554D01*
X139644006Y-116784078D01*
X139644444Y-116835776D01*
X139644444Y-116951289D01*
X140141155Y-116951289D01*
X140141155Y-116832756D01*
X140141662Y-116778148D01*
X140143698Y-116741275D01*
X140148035Y-116717307D01*
X140155447Y-116701415D01*
X140163733Y-116691645D01*
X140195594Y-116671844D01*
X140228823Y-116674533D01*
G37*
X140228823Y-116674533D02*
X140260202Y-116696776D01*
X140287911Y-116724485D01*
X140287911Y-117033920D01*
X140287838Y-117125799D01*
X140287495Y-117197840D01*
X140286692Y-117252780D01*
X140285241Y-117293360D01*
X140282952Y-117322317D01*
X140279636Y-117342391D01*
X140275105Y-117356321D01*
X140269169Y-117366845D01*
X140264514Y-117373100D01*
X140233783Y-117397673D01*
X140198496Y-117400341D01*
X140166245Y-117385271D01*
X140155588Y-117376374D01*
X140148464Y-117364557D01*
X140144167Y-117345526D01*
X140141991Y-117314992D01*
X140141228Y-117268662D01*
X140141155Y-117232871D01*
X140141155Y-117098045D01*
X139644444Y-117098045D01*
X139644444Y-117220700D01*
X139643931Y-117276787D01*
X139641876Y-117315333D01*
X139637508Y-117341361D01*
X139630056Y-117359897D01*
X139621047Y-117373100D01*
X139590144Y-117397604D01*
X139555196Y-117400506D01*
X139521738Y-117383089D01*
X139512604Y-117373959D01*
X139506152Y-117361855D01*
X139501897Y-117343001D01*
X139499352Y-117313620D01*
X139498029Y-117269937D01*
X139497443Y-117208175D01*
X139497375Y-117194000D01*
X139496891Y-117077631D01*
X139496641Y-116981727D01*
X139496723Y-116904177D01*
X139497231Y-116842869D01*
X139498262Y-116795690D01*
X139499913Y-116760530D01*
X139502279Y-116735276D01*
X139505457Y-116717817D01*
X139509544Y-116706041D01*
X139514634Y-116697835D01*
X139520266Y-116691645D01*
X139552128Y-116671844D01*
X139585357Y-116674533D01*
X139616735Y-116696776D01*
X139629433Y-116711126D01*
X139637526Y-116726978D01*
X139642042Y-116749554D01*
X139644006Y-116784078D01*
X139644444Y-116835776D01*
X139644444Y-116951289D01*
X140141155Y-116951289D01*
X140141155Y-116832756D01*
X140141662Y-116778148D01*
X140143698Y-116741275D01*
X140148035Y-116717307D01*
X140155447Y-116701415D01*
X140163733Y-116691645D01*
X140195594Y-116671844D01*
X140228823Y-116674533D01*
G36*
X127729002Y-116745055D02*
G01*
X127737170Y-116711778D01*
X127750444Y-116689759D01*
X127770026Y-116676739D01*
X127797117Y-116670457D01*
X127832918Y-116668653D01*
X127878629Y-116669066D01*
X127918111Y-116669467D01*
X128033800Y-116672259D01*
X128130689Y-116680550D01*
X128212081Y-116695232D01*
X128281277Y-116717193D01*
X128341580Y-116747322D01*
X128396292Y-116786510D01*
X128415833Y-116803532D01*
X128448250Y-116843363D01*
X128477480Y-116897413D01*
X128500009Y-116957323D01*
X128512321Y-117014739D01*
X128513600Y-117035956D01*
X128505583Y-117094769D01*
X128484101Y-117159013D01*
X128453001Y-117219821D01*
X128416134Y-117268330D01*
X128410146Y-117274182D01*
X128359421Y-117315321D01*
X128303875Y-117347435D01*
X128240304Y-117371365D01*
X128165506Y-117387953D01*
X128076278Y-117398041D01*
X127969418Y-117402469D01*
X127920472Y-117402845D01*
X127858238Y-117402545D01*
X127814472Y-117401292D01*
X127785069Y-117398554D01*
X127765921Y-117393801D01*
X127752923Y-117386501D01*
X127745955Y-117380267D01*
X127739374Y-117372694D01*
X127734212Y-117362924D01*
X127730297Y-117348340D01*
X127727457Y-117326326D01*
X127725520Y-117294264D01*
X127724492Y-117256089D01*
X127870133Y-117256089D01*
X127963266Y-117256004D01*
X128019307Y-117254396D01*
X128078001Y-117250256D01*
X128126972Y-117244464D01*
X128128462Y-117244226D01*
X128207608Y-117225090D01*
X128268998Y-117195287D01*
X128315695Y-117152878D01*
X128345365Y-117106961D01*
X128363647Y-117056026D01*
X128362229Y-117008200D01*
X128341012Y-116956933D01*
X128299511Y-116903899D01*
X128242002Y-116864600D01*
X128167250Y-116838331D01*
X128117292Y-116829035D01*
X128060584Y-116822507D01*
X128000481Y-116817782D01*
X127949361Y-116815817D01*
X127946333Y-116815808D01*
X127870133Y-116815822D01*
X127870133Y-117256089D01*
X127724492Y-117256089D01*
X127724316Y-117249536D01*
X127723672Y-117189526D01*
X127723417Y-117111617D01*
X127723378Y-117035956D01*
X127723130Y-116935041D01*
X127723183Y-116854427D01*
X127724143Y-116815822D01*
X127724740Y-116791851D01*
X127729002Y-116745055D01*
G37*
X127729002Y-116745055D02*
X127737170Y-116711778D01*
X127750444Y-116689759D01*
X127770026Y-116676739D01*
X127797117Y-116670457D01*
X127832918Y-116668653D01*
X127878629Y-116669066D01*
X127918111Y-116669467D01*
X128033800Y-116672259D01*
X128130689Y-116680550D01*
X128212081Y-116695232D01*
X128281277Y-116717193D01*
X128341580Y-116747322D01*
X128396292Y-116786510D01*
X128415833Y-116803532D01*
X128448250Y-116843363D01*
X128477480Y-116897413D01*
X128500009Y-116957323D01*
X128512321Y-117014739D01*
X128513600Y-117035956D01*
X128505583Y-117094769D01*
X128484101Y-117159013D01*
X128453001Y-117219821D01*
X128416134Y-117268330D01*
X128410146Y-117274182D01*
X128359421Y-117315321D01*
X128303875Y-117347435D01*
X128240304Y-117371365D01*
X128165506Y-117387953D01*
X128076278Y-117398041D01*
X127969418Y-117402469D01*
X127920472Y-117402845D01*
X127858238Y-117402545D01*
X127814472Y-117401292D01*
X127785069Y-117398554D01*
X127765921Y-117393801D01*
X127752923Y-117386501D01*
X127745955Y-117380267D01*
X127739374Y-117372694D01*
X127734212Y-117362924D01*
X127730297Y-117348340D01*
X127727457Y-117326326D01*
X127725520Y-117294264D01*
X127724492Y-117256089D01*
X127870133Y-117256089D01*
X127963266Y-117256004D01*
X128019307Y-117254396D01*
X128078001Y-117250256D01*
X128126972Y-117244464D01*
X128128462Y-117244226D01*
X128207608Y-117225090D01*
X128268998Y-117195287D01*
X128315695Y-117152878D01*
X128345365Y-117106961D01*
X128363647Y-117056026D01*
X128362229Y-117008200D01*
X128341012Y-116956933D01*
X128299511Y-116903899D01*
X128242002Y-116864600D01*
X128167250Y-116838331D01*
X128117292Y-116829035D01*
X128060584Y-116822507D01*
X128000481Y-116817782D01*
X127949361Y-116815817D01*
X127946333Y-116815808D01*
X127870133Y-116815822D01*
X127870133Y-117256089D01*
X127724492Y-117256089D01*
X127724316Y-117249536D01*
X127723672Y-117189526D01*
X127723417Y-117111617D01*
X127723378Y-117035956D01*
X127723130Y-116935041D01*
X127723183Y-116854427D01*
X127724143Y-116815822D01*
X127724740Y-116791851D01*
X127729002Y-116745055D01*
G36*
X132699886Y-116673448D02*
G01*
X132723452Y-116687273D01*
X132754265Y-116709881D01*
X132793922Y-116742338D01*
X132844020Y-116785708D01*
X132906157Y-116841058D01*
X132981928Y-116909451D01*
X133068666Y-116988084D01*
X133249289Y-117151878D01*
X133254933Y-116932029D01*
X133256971Y-116856351D01*
X133258937Y-116799994D01*
X133261266Y-116759706D01*
X133264394Y-116732235D01*
X133268755Y-116714329D01*
X133274784Y-116702737D01*
X133282916Y-116694208D01*
X133287228Y-116690623D01*
X133321759Y-116671670D01*
X133354617Y-116674441D01*
X133380682Y-116690633D01*
X133407333Y-116712199D01*
X133410648Y-117027151D01*
X133411565Y-117119779D01*
X133412032Y-117192544D01*
X133411887Y-117248161D01*
X133410968Y-117289342D01*
X133409113Y-117318803D01*
X133406161Y-117339255D01*
X133401950Y-117353413D01*
X133396318Y-117363991D01*
X133390073Y-117372474D01*
X133376561Y-117388207D01*
X133363117Y-117398636D01*
X133347876Y-117402639D01*
X133328974Y-117399094D01*
X133304545Y-117386879D01*
X133272727Y-117364871D01*
X133231652Y-117331949D01*
X133179458Y-117286991D01*
X133114278Y-117228875D01*
X133040444Y-117162099D01*
X132775155Y-116921458D01*
X132769511Y-117140589D01*
X132767469Y-117216128D01*
X132765498Y-117272354D01*
X132763161Y-117312524D01*
X132760019Y-117339896D01*
X132755636Y-117357728D01*
X132749576Y-117369279D01*
X132741400Y-117377807D01*
X132737216Y-117381282D01*
X132700235Y-117400372D01*
X132665292Y-117397493D01*
X132634864Y-117373100D01*
X132627903Y-117363286D01*
X132622477Y-117351826D01*
X132618397Y-117335968D01*
X132615471Y-117312963D01*
X132613508Y-117280062D01*
X132612317Y-117234516D01*
X132611708Y-117173573D01*
X132611489Y-117094486D01*
X132611466Y-117035956D01*
X132611540Y-116944407D01*
X132611887Y-116872687D01*
X132612699Y-116818045D01*
X132614167Y-116777732D01*
X132616481Y-116748998D01*
X132619833Y-116729093D01*
X132624412Y-116715268D01*
X132630411Y-116704772D01*
X132634864Y-116698811D01*
X132646150Y-116684691D01*
X132656699Y-116674029D01*
X132668107Y-116667892D01*
X132681970Y-116667343D01*
X132699886Y-116673448D01*
G37*
X132699886Y-116673448D02*
X132723452Y-116687273D01*
X132754265Y-116709881D01*
X132793922Y-116742338D01*
X132844020Y-116785708D01*
X132906157Y-116841058D01*
X132981928Y-116909451D01*
X133068666Y-116988084D01*
X133249289Y-117151878D01*
X133254933Y-116932029D01*
X133256971Y-116856351D01*
X133258937Y-116799994D01*
X133261266Y-116759706D01*
X133264394Y-116732235D01*
X133268755Y-116714329D01*
X133274784Y-116702737D01*
X133282916Y-116694208D01*
X133287228Y-116690623D01*
X133321759Y-116671670D01*
X133354617Y-116674441D01*
X133380682Y-116690633D01*
X133407333Y-116712199D01*
X133410648Y-117027151D01*
X133411565Y-117119779D01*
X133412032Y-117192544D01*
X133411887Y-117248161D01*
X133410968Y-117289342D01*
X133409113Y-117318803D01*
X133406161Y-117339255D01*
X133401950Y-117353413D01*
X133396318Y-117363991D01*
X133390073Y-117372474D01*
X133376561Y-117388207D01*
X133363117Y-117398636D01*
X133347876Y-117402639D01*
X133328974Y-117399094D01*
X133304545Y-117386879D01*
X133272727Y-117364871D01*
X133231652Y-117331949D01*
X133179458Y-117286991D01*
X133114278Y-117228875D01*
X133040444Y-117162099D01*
X132775155Y-116921458D01*
X132769511Y-117140589D01*
X132767469Y-117216128D01*
X132765498Y-117272354D01*
X132763161Y-117312524D01*
X132760019Y-117339896D01*
X132755636Y-117357728D01*
X132749576Y-117369279D01*
X132741400Y-117377807D01*
X132737216Y-117381282D01*
X132700235Y-117400372D01*
X132665292Y-117397493D01*
X132634864Y-117373100D01*
X132627903Y-117363286D01*
X132622477Y-117351826D01*
X132618397Y-117335968D01*
X132615471Y-117312963D01*
X132613508Y-117280062D01*
X132612317Y-117234516D01*
X132611708Y-117173573D01*
X132611489Y-117094486D01*
X132611466Y-117035956D01*
X132611540Y-116944407D01*
X132611887Y-116872687D01*
X132612699Y-116818045D01*
X132614167Y-116777732D01*
X132616481Y-116748998D01*
X132619833Y-116729093D01*
X132624412Y-116715268D01*
X132630411Y-116704772D01*
X132634864Y-116698811D01*
X132646150Y-116684691D01*
X132656699Y-116674029D01*
X132668107Y-116667892D01*
X132681970Y-116667343D01*
X132699886Y-116673448D01*
G36*
X138963065Y-116669163D02*
G01*
X139041772Y-116669542D01*
X139102863Y-116670333D01*
X139148817Y-116671670D01*
X139182114Y-116673683D01*
X139205236Y-116676506D01*
X139220662Y-116680269D01*
X139230871Y-116685105D01*
X139235813Y-116688822D01*
X139261457Y-116721358D01*
X139264559Y-116755138D01*
X139248711Y-116785826D01*
X139238348Y-116798089D01*
X139227196Y-116806450D01*
X139211035Y-116811657D01*
X139185642Y-116814457D01*
X139146798Y-116815596D01*
X139090280Y-116815821D01*
X139079180Y-116815822D01*
X138933244Y-116815822D01*
X138933244Y-117086756D01*
X138933148Y-117172154D01*
X138932711Y-117237864D01*
X138931712Y-117286774D01*
X138929928Y-117321773D01*
X138927137Y-117345749D01*
X138923117Y-117361593D01*
X138917645Y-117372191D01*
X138910666Y-117380267D01*
X138877734Y-117400112D01*
X138843354Y-117398548D01*
X138812176Y-117375906D01*
X138809886Y-117373100D01*
X138802429Y-117362492D01*
X138796747Y-117350081D01*
X138792601Y-117332850D01*
X138789750Y-117307784D01*
X138787954Y-117271867D01*
X138786972Y-117222083D01*
X138786564Y-117155417D01*
X138786489Y-117079589D01*
X138786489Y-116815822D01*
X138647127Y-116815822D01*
X138587322Y-116815418D01*
X138545918Y-116813840D01*
X138518748Y-116810547D01*
X138501646Y-116804992D01*
X138490443Y-116796631D01*
X138489083Y-116795178D01*
X138472725Y-116761939D01*
X138474172Y-116724362D01*
X138492978Y-116691645D01*
X138500250Y-116685298D01*
X138509627Y-116680266D01*
X138523609Y-116676396D01*
X138544696Y-116673537D01*
X138575389Y-116671535D01*
X138618189Y-116670239D01*
X138675595Y-116669498D01*
X138750110Y-116669158D01*
X138844233Y-116669068D01*
X138864260Y-116669067D01*
X138963065Y-116669163D01*
G37*
X138963065Y-116669163D02*
X139041772Y-116669542D01*
X139102863Y-116670333D01*
X139148817Y-116671670D01*
X139182114Y-116673683D01*
X139205236Y-116676506D01*
X139220662Y-116680269D01*
X139230871Y-116685105D01*
X139235813Y-116688822D01*
X139261457Y-116721358D01*
X139264559Y-116755138D01*
X139248711Y-116785826D01*
X139238348Y-116798089D01*
X139227196Y-116806450D01*
X139211035Y-116811657D01*
X139185642Y-116814457D01*
X139146798Y-116815596D01*
X139090280Y-116815821D01*
X139079180Y-116815822D01*
X138933244Y-116815822D01*
X138933244Y-117086756D01*
X138933148Y-117172154D01*
X138932711Y-117237864D01*
X138931712Y-117286774D01*
X138929928Y-117321773D01*
X138927137Y-117345749D01*
X138923117Y-117361593D01*
X138917645Y-117372191D01*
X138910666Y-117380267D01*
X138877734Y-117400112D01*
X138843354Y-117398548D01*
X138812176Y-117375906D01*
X138809886Y-117373100D01*
X138802429Y-117362492D01*
X138796747Y-117350081D01*
X138792601Y-117332850D01*
X138789750Y-117307784D01*
X138787954Y-117271867D01*
X138786972Y-117222083D01*
X138786564Y-117155417D01*
X138786489Y-117079589D01*
X138786489Y-116815822D01*
X138647127Y-116815822D01*
X138587322Y-116815418D01*
X138545918Y-116813840D01*
X138518748Y-116810547D01*
X138501646Y-116804992D01*
X138490443Y-116796631D01*
X138489083Y-116795178D01*
X138472725Y-116761939D01*
X138474172Y-116724362D01*
X138492978Y-116691645D01*
X138500250Y-116685298D01*
X138509627Y-116680266D01*
X138523609Y-116676396D01*
X138544696Y-116673537D01*
X138575389Y-116671535D01*
X138618189Y-116670239D01*
X138675595Y-116669498D01*
X138750110Y-116669158D01*
X138844233Y-116669068D01*
X138864260Y-116669067D01*
X138963065Y-116669163D01*
G36*
X131726957Y-111426571D02*
G01*
X131823232Y-111450809D01*
X131909816Y-111493641D01*
X131984627Y-111553419D01*
X132045582Y-111628494D01*
X132090601Y-111717220D01*
X132116864Y-111813530D01*
X132122714Y-111910795D01*
X132107860Y-112004654D01*
X132074160Y-112092511D01*
X132023472Y-112171770D01*
X131957655Y-112239836D01*
X131878566Y-112294112D01*
X131788066Y-112332002D01*
X131736800Y-112344426D01*
X131692302Y-112351947D01*
X131658001Y-112354919D01*
X131625040Y-112353094D01*
X131584566Y-112346225D01*
X131551469Y-112339250D01*
X131458053Y-112307741D01*
X131374381Y-112256617D01*
X131302335Y-112187429D01*
X131243800Y-112101728D01*
X131229852Y-112074489D01*
X131213414Y-112038122D01*
X131203106Y-112007582D01*
X131197540Y-111975450D01*
X131195331Y-111934307D01*
X131195052Y-111888222D01*
X131199139Y-111803865D01*
X131212554Y-111734586D01*
X131237744Y-111673961D01*
X131277154Y-111615567D01*
X131315702Y-111571302D01*
X131387594Y-111505484D01*
X131462687Y-111460053D01*
X131545438Y-111432850D01*
X131623072Y-111422576D01*
X131726957Y-111426571D01*
G37*
X131726957Y-111426571D02*
X131823232Y-111450809D01*
X131909816Y-111493641D01*
X131984627Y-111553419D01*
X132045582Y-111628494D01*
X132090601Y-111717220D01*
X132116864Y-111813530D01*
X132122714Y-111910795D01*
X132107860Y-112004654D01*
X132074160Y-112092511D01*
X132023472Y-112171770D01*
X131957655Y-112239836D01*
X131878566Y-112294112D01*
X131788066Y-112332002D01*
X131736800Y-112344426D01*
X131692302Y-112351947D01*
X131658001Y-112354919D01*
X131625040Y-112353094D01*
X131584566Y-112346225D01*
X131551469Y-112339250D01*
X131458053Y-112307741D01*
X131374381Y-112256617D01*
X131302335Y-112187429D01*
X131243800Y-112101728D01*
X131229852Y-112074489D01*
X131213414Y-112038122D01*
X131203106Y-112007582D01*
X131197540Y-111975450D01*
X131195331Y-111934307D01*
X131195052Y-111888222D01*
X131199139Y-111803865D01*
X131212554Y-111734586D01*
X131237744Y-111673961D01*
X131277154Y-111615567D01*
X131315702Y-111571302D01*
X131387594Y-111505484D01*
X131462687Y-111460053D01*
X131545438Y-111432850D01*
X131623072Y-111422576D01*
X131726957Y-111426571D01*
G36*
X137744665Y-116671034D02*
G01*
X137764255Y-116678035D01*
X137765010Y-116678377D01*
X137791613Y-116698678D01*
X137806270Y-116719561D01*
X137809138Y-116729352D01*
X137808996Y-116742361D01*
X137804961Y-116760895D01*
X137796146Y-116787257D01*
X137781669Y-116823752D01*
X137760645Y-116872687D01*
X137732188Y-116936365D01*
X137695415Y-117017093D01*
X137675175Y-117061216D01*
X137638625Y-117139985D01*
X137604315Y-117212423D01*
X137573552Y-117275880D01*
X137547648Y-117327708D01*
X137527910Y-117365259D01*
X137515650Y-117385884D01*
X137513224Y-117388733D01*
X137482183Y-117401302D01*
X137447121Y-117399619D01*
X137419000Y-117384332D01*
X137417854Y-117383089D01*
X137406668Y-117366154D01*
X137387904Y-117333170D01*
X137363875Y-117288380D01*
X137336897Y-117236032D01*
X137327201Y-117216742D01*
X137254014Y-117070150D01*
X137174240Y-117229393D01*
X137145767Y-117284415D01*
X137119350Y-117332132D01*
X137097148Y-117368893D01*
X137081319Y-117391044D01*
X137075954Y-117395741D01*
X137034257Y-117402102D01*
X136999849Y-117388733D01*
X136989728Y-117374446D01*
X136972214Y-117342692D01*
X136948735Y-117296597D01*
X136920720Y-117239285D01*
X136889599Y-117173880D01*
X136856799Y-117103507D01*
X136823750Y-117031291D01*
X136791881Y-116960355D01*
X136762619Y-116893825D01*
X136737395Y-116834826D01*
X136717636Y-116786481D01*
X136704772Y-116751915D01*
X136700231Y-116734253D01*
X136700277Y-116733613D01*
X136711326Y-116711388D01*
X136733410Y-116688753D01*
X136734710Y-116687768D01*
X136761853Y-116672425D01*
X136786958Y-116672574D01*
X136796368Y-116675466D01*
X136807834Y-116681718D01*
X136820010Y-116694014D01*
X136834357Y-116714908D01*
X136852336Y-116746949D01*
X136875407Y-116792688D01*
X136905030Y-116854677D01*
X136931745Y-116911898D01*
X136962480Y-116978226D01*
X136990021Y-117037874D01*
X137012938Y-117087725D01*
X137029798Y-117124664D01*
X137039173Y-117145573D01*
X137040540Y-117148845D01*
X137046689Y-117143497D01*
X137060822Y-117121109D01*
X137081057Y-117084946D01*
X137105515Y-117038277D01*
X137115248Y-117019022D01*
X137148217Y-116954004D01*
X137173643Y-116906654D01*
X137193612Y-116874219D01*
X137210210Y-116853946D01*
X137225524Y-116843082D01*
X137241640Y-116838875D01*
X137252143Y-116838400D01*
X137270670Y-116840042D01*
X137286904Y-116846831D01*
X137303035Y-116861566D01*
X137321251Y-116887044D01*
X137343739Y-116926061D01*
X137372689Y-116981414D01*
X137388662Y-117012903D01*
X137414570Y-117063087D01*
X137437167Y-117104704D01*
X137454458Y-117134242D01*
X137464450Y-117148189D01*
X137465809Y-117148770D01*
X137472261Y-117137793D01*
X137486708Y-117109290D01*
X137507703Y-117066244D01*
X137533797Y-117011638D01*
X137563546Y-116948454D01*
X137578180Y-116917071D01*
X137616250Y-116836078D01*
X137646905Y-116773756D01*
X137671737Y-116728071D01*
X137692337Y-116696989D01*
X137710298Y-116678478D01*
X137727210Y-116670504D01*
X137744665Y-116671034D01*
G37*
X137744665Y-116671034D02*
X137764255Y-116678035D01*
X137765010Y-116678377D01*
X137791613Y-116698678D01*
X137806270Y-116719561D01*
X137809138Y-116729352D01*
X137808996Y-116742361D01*
X137804961Y-116760895D01*
X137796146Y-116787257D01*
X137781669Y-116823752D01*
X137760645Y-116872687D01*
X137732188Y-116936365D01*
X137695415Y-117017093D01*
X137675175Y-117061216D01*
X137638625Y-117139985D01*
X137604315Y-117212423D01*
X137573552Y-117275880D01*
X137547648Y-117327708D01*
X137527910Y-117365259D01*
X137515650Y-117385884D01*
X137513224Y-117388733D01*
X137482183Y-117401302D01*
X137447121Y-117399619D01*
X137419000Y-117384332D01*
X137417854Y-117383089D01*
X137406668Y-117366154D01*
X137387904Y-117333170D01*
X137363875Y-117288380D01*
X137336897Y-117236032D01*
X137327201Y-117216742D01*
X137254014Y-117070150D01*
X137174240Y-117229393D01*
X137145767Y-117284415D01*
X137119350Y-117332132D01*
X137097148Y-117368893D01*
X137081319Y-117391044D01*
X137075954Y-117395741D01*
X137034257Y-117402102D01*
X136999849Y-117388733D01*
X136989728Y-117374446D01*
X136972214Y-117342692D01*
X136948735Y-117296597D01*
X136920720Y-117239285D01*
X136889599Y-117173880D01*
X136856799Y-117103507D01*
X136823750Y-117031291D01*
X136791881Y-116960355D01*
X136762619Y-116893825D01*
X136737395Y-116834826D01*
X136717636Y-116786481D01*
X136704772Y-116751915D01*
X136700231Y-116734253D01*
X136700277Y-116733613D01*
X136711326Y-116711388D01*
X136733410Y-116688753D01*
X136734710Y-116687768D01*
X136761853Y-116672425D01*
X136786958Y-116672574D01*
X136796368Y-116675466D01*
X136807834Y-116681718D01*
X136820010Y-116694014D01*
X136834357Y-116714908D01*
X136852336Y-116746949D01*
X136875407Y-116792688D01*
X136905030Y-116854677D01*
X136931745Y-116911898D01*
X136962480Y-116978226D01*
X136990021Y-117037874D01*
X137012938Y-117087725D01*
X137029798Y-117124664D01*
X137039173Y-117145573D01*
X137040540Y-117148845D01*
X137046689Y-117143497D01*
X137060822Y-117121109D01*
X137081057Y-117084946D01*
X137105515Y-117038277D01*
X137115248Y-117019022D01*
X137148217Y-116954004D01*
X137173643Y-116906654D01*
X137193612Y-116874219D01*
X137210210Y-116853946D01*
X137225524Y-116843082D01*
X137241640Y-116838875D01*
X137252143Y-116838400D01*
X137270670Y-116840042D01*
X137286904Y-116846831D01*
X137303035Y-116861566D01*
X137321251Y-116887044D01*
X137343739Y-116926061D01*
X137372689Y-116981414D01*
X137388662Y-117012903D01*
X137414570Y-117063087D01*
X137437167Y-117104704D01*
X137454458Y-117134242D01*
X137464450Y-117148189D01*
X137465809Y-117148770D01*
X137472261Y-117137793D01*
X137486708Y-117109290D01*
X137507703Y-117066244D01*
X137533797Y-117011638D01*
X137563546Y-116948454D01*
X137578180Y-116917071D01*
X137616250Y-116836078D01*
X137646905Y-116773756D01*
X137671737Y-116728071D01*
X137692337Y-116696989D01*
X137710298Y-116678478D01*
X137727210Y-116670504D01*
X137744665Y-116671034D01*
G36*
X135282522Y-114870812D02*
G01*
X135298768Y-114799590D01*
X135324405Y-114728864D01*
X135348401Y-114676493D01*
X135407020Y-114581196D01*
X135485117Y-114493170D01*
X135580315Y-114414017D01*
X135690238Y-114345340D01*
X135812510Y-114288741D01*
X135944755Y-114245821D01*
X136009422Y-114230882D01*
X136145604Y-114208777D01*
X136294049Y-114194194D01*
X136445505Y-114187813D01*
X136572064Y-114189445D01*
X136733950Y-114196224D01*
X136726530Y-114137245D01*
X136707238Y-114038092D01*
X136676104Y-113957372D01*
X136632269Y-113894466D01*
X136574871Y-113848756D01*
X136503048Y-113819622D01*
X136415941Y-113806447D01*
X136312686Y-113808611D01*
X136274711Y-113812612D01*
X136133520Y-113837780D01*
X135996707Y-113878814D01*
X135902178Y-113916815D01*
X135857018Y-113936190D01*
X135818585Y-113951760D01*
X135792234Y-113961405D01*
X135784546Y-113963452D01*
X135774802Y-113954374D01*
X135758083Y-113925405D01*
X135734232Y-113876217D01*
X135703093Y-113806484D01*
X135664507Y-113715879D01*
X135657910Y-113700089D01*
X135627853Y-113627772D01*
X135600874Y-113562425D01*
X135578136Y-113506906D01*
X135560806Y-113464072D01*
X135550048Y-113436781D01*
X135546941Y-113427942D01*
X135556940Y-113423187D01*
X135583217Y-113417910D01*
X135611489Y-113414231D01*
X135641646Y-113409474D01*
X135689433Y-113400028D01*
X135750612Y-113386820D01*
X135820946Y-113370776D01*
X135896194Y-113352820D01*
X135924755Y-113345797D01*
X136029816Y-113320209D01*
X136117480Y-113300147D01*
X136192068Y-113284969D01*
X136257903Y-113274035D01*
X136319307Y-113266704D01*
X136380602Y-113262335D01*
X136446110Y-113260287D01*
X136504128Y-113259889D01*
X136673574Y-113266552D01*
X136825492Y-113286567D01*
X136960756Y-113320202D01*
X137080239Y-113367725D01*
X137184815Y-113429405D01*
X137262424Y-113492965D01*
X137331265Y-113567099D01*
X137385006Y-113646871D01*
X137427910Y-113739091D01*
X137443384Y-113782161D01*
X137456244Y-113821142D01*
X137467446Y-113857289D01*
X137477120Y-113892434D01*
X137485396Y-113928410D01*
X137492403Y-113967050D01*
X137498272Y-114010185D01*
X137503131Y-114059649D01*
X137507110Y-114117273D01*
X137510340Y-114184891D01*
X137512949Y-114264334D01*
X137515067Y-114357436D01*
X137516824Y-114466027D01*
X137518349Y-114591942D01*
X137519772Y-114737012D01*
X137521025Y-114879778D01*
X137522351Y-115035968D01*
X137523556Y-115171239D01*
X137524766Y-115287246D01*
X137526106Y-115385645D01*
X137527700Y-115468093D01*
X137529675Y-115536246D01*
X137532156Y-115591760D01*
X137535269Y-115636292D01*
X137539138Y-115671498D01*
X137543889Y-115699034D01*
X137549648Y-115720556D01*
X137556539Y-115737722D01*
X137564689Y-115752186D01*
X137574223Y-115765606D01*
X137585266Y-115779638D01*
X137589566Y-115785071D01*
X137605386Y-115807910D01*
X137612422Y-115823463D01*
X137612444Y-115823922D01*
X137601567Y-115826121D01*
X137570582Y-115828147D01*
X137521957Y-115829942D01*
X137458163Y-115831451D01*
X137381669Y-115832616D01*
X137294944Y-115833380D01*
X137200457Y-115833686D01*
X137189550Y-115833689D01*
X136766657Y-115833689D01*
X136763395Y-115737622D01*
X136760133Y-115641556D01*
X136698044Y-115692543D01*
X136600714Y-115760057D01*
X136490813Y-115814749D01*
X136404349Y-115844978D01*
X136335278Y-115859666D01*
X136251925Y-115869659D01*
X136162159Y-115874646D01*
X136073845Y-115874313D01*
X135994851Y-115868351D01*
X135958622Y-115862638D01*
X135818603Y-115824776D01*
X135692178Y-115769932D01*
X135580260Y-115698924D01*
X135483762Y-115612568D01*
X135403600Y-115511679D01*
X135340687Y-115397076D01*
X135296312Y-115270984D01*
X135283978Y-115214401D01*
X135276368Y-115152202D01*
X135272739Y-115077363D01*
X135272245Y-115043467D01*
X135272310Y-115040282D01*
X136032248Y-115040282D01*
X136041541Y-115115333D01*
X136069728Y-115179160D01*
X136118197Y-115234798D01*
X136123254Y-115239211D01*
X136171548Y-115274037D01*
X136223257Y-115296620D01*
X136283989Y-115308540D01*
X136359352Y-115311383D01*
X136377459Y-115310978D01*
X136431278Y-115308325D01*
X136471308Y-115302909D01*
X136506324Y-115292745D01*
X136545103Y-115275850D01*
X136555745Y-115270672D01*
X136616396Y-115234844D01*
X136663215Y-115192212D01*
X136675952Y-115176973D01*
X136720622Y-115120462D01*
X136720622Y-114924586D01*
X136720086Y-114845939D01*
X136718396Y-114787988D01*
X136715428Y-114748875D01*
X136711057Y-114726741D01*
X136706972Y-114720274D01*
X136691047Y-114717111D01*
X136657264Y-114714488D01*
X136610340Y-114712655D01*
X136554993Y-114711857D01*
X136546106Y-114711842D01*
X136425330Y-114717096D01*
X136322660Y-114733263D01*
X136236106Y-114760961D01*
X136163681Y-114800808D01*
X136108751Y-114847758D01*
X136064204Y-114905645D01*
X136039480Y-114968693D01*
X136032248Y-115040282D01*
X135272310Y-115040282D01*
X135274178Y-114949712D01*
X135282522Y-114870812D01*
G37*
X135282522Y-114870812D02*
X135298768Y-114799590D01*
X135324405Y-114728864D01*
X135348401Y-114676493D01*
X135407020Y-114581196D01*
X135485117Y-114493170D01*
X135580315Y-114414017D01*
X135690238Y-114345340D01*
X135812510Y-114288741D01*
X135944755Y-114245821D01*
X136009422Y-114230882D01*
X136145604Y-114208777D01*
X136294049Y-114194194D01*
X136445505Y-114187813D01*
X136572064Y-114189445D01*
X136733950Y-114196224D01*
X136726530Y-114137245D01*
X136707238Y-114038092D01*
X136676104Y-113957372D01*
X136632269Y-113894466D01*
X136574871Y-113848756D01*
X136503048Y-113819622D01*
X136415941Y-113806447D01*
X136312686Y-113808611D01*
X136274711Y-113812612D01*
X136133520Y-113837780D01*
X135996707Y-113878814D01*
X135902178Y-113916815D01*
X135857018Y-113936190D01*
X135818585Y-113951760D01*
X135792234Y-113961405D01*
X135784546Y-113963452D01*
X135774802Y-113954374D01*
X135758083Y-113925405D01*
X135734232Y-113876217D01*
X135703093Y-113806484D01*
X135664507Y-113715879D01*
X135657910Y-113700089D01*
X135627853Y-113627772D01*
X135600874Y-113562425D01*
X135578136Y-113506906D01*
X135560806Y-113464072D01*
X135550048Y-113436781D01*
X135546941Y-113427942D01*
X135556940Y-113423187D01*
X135583217Y-113417910D01*
X135611489Y-113414231D01*
X135641646Y-113409474D01*
X135689433Y-113400028D01*
X135750612Y-113386820D01*
X135820946Y-113370776D01*
X135896194Y-113352820D01*
X135924755Y-113345797D01*
X136029816Y-113320209D01*
X136117480Y-113300147D01*
X136192068Y-113284969D01*
X136257903Y-113274035D01*
X136319307Y-113266704D01*
X136380602Y-113262335D01*
X136446110Y-113260287D01*
X136504128Y-113259889D01*
X136673574Y-113266552D01*
X136825492Y-113286567D01*
X136960756Y-113320202D01*
X137080239Y-113367725D01*
X137184815Y-113429405D01*
X137262424Y-113492965D01*
X137331265Y-113567099D01*
X137385006Y-113646871D01*
X137427910Y-113739091D01*
X137443384Y-113782161D01*
X137456244Y-113821142D01*
X137467446Y-113857289D01*
X137477120Y-113892434D01*
X137485396Y-113928410D01*
X137492403Y-113967050D01*
X137498272Y-114010185D01*
X137503131Y-114059649D01*
X137507110Y-114117273D01*
X137510340Y-114184891D01*
X137512949Y-114264334D01*
X137515067Y-114357436D01*
X137516824Y-114466027D01*
X137518349Y-114591942D01*
X137519772Y-114737012D01*
X137521025Y-114879778D01*
X137522351Y-115035968D01*
X137523556Y-115171239D01*
X137524766Y-115287246D01*
X137526106Y-115385645D01*
X137527700Y-115468093D01*
X137529675Y-115536246D01*
X137532156Y-115591760D01*
X137535269Y-115636292D01*
X137539138Y-115671498D01*
X137543889Y-115699034D01*
X137549648Y-115720556D01*
X137556539Y-115737722D01*
X137564689Y-115752186D01*
X137574223Y-115765606D01*
X137585266Y-115779638D01*
X137589566Y-115785071D01*
X137605386Y-115807910D01*
X137612422Y-115823463D01*
X137612444Y-115823922D01*
X137601567Y-115826121D01*
X137570582Y-115828147D01*
X137521957Y-115829942D01*
X137458163Y-115831451D01*
X137381669Y-115832616D01*
X137294944Y-115833380D01*
X137200457Y-115833686D01*
X137189550Y-115833689D01*
X136766657Y-115833689D01*
X136763395Y-115737622D01*
X136760133Y-115641556D01*
X136698044Y-115692543D01*
X136600714Y-115760057D01*
X136490813Y-115814749D01*
X136404349Y-115844978D01*
X136335278Y-115859666D01*
X136251925Y-115869659D01*
X136162159Y-115874646D01*
X136073845Y-115874313D01*
X135994851Y-115868351D01*
X135958622Y-115862638D01*
X135818603Y-115824776D01*
X135692178Y-115769932D01*
X135580260Y-115698924D01*
X135483762Y-115612568D01*
X135403600Y-115511679D01*
X135340687Y-115397076D01*
X135296312Y-115270984D01*
X135283978Y-115214401D01*
X135276368Y-115152202D01*
X135272739Y-115077363D01*
X135272245Y-115043467D01*
X135272310Y-115040282D01*
X136032248Y-115040282D01*
X136041541Y-115115333D01*
X136069728Y-115179160D01*
X136118197Y-115234798D01*
X136123254Y-115239211D01*
X136171548Y-115274037D01*
X136223257Y-115296620D01*
X136283989Y-115308540D01*
X136359352Y-115311383D01*
X136377459Y-115310978D01*
X136431278Y-115308325D01*
X136471308Y-115302909D01*
X136506324Y-115292745D01*
X136545103Y-115275850D01*
X136555745Y-115270672D01*
X136616396Y-115234844D01*
X136663215Y-115192212D01*
X136675952Y-115176973D01*
X136720622Y-115120462D01*
X136720622Y-114924586D01*
X136720086Y-114845939D01*
X136718396Y-114787988D01*
X136715428Y-114748875D01*
X136711057Y-114726741D01*
X136706972Y-114720274D01*
X136691047Y-114717111D01*
X136657264Y-114714488D01*
X136610340Y-114712655D01*
X136554993Y-114711857D01*
X136546106Y-114711842D01*
X136425330Y-114717096D01*
X136322660Y-114733263D01*
X136236106Y-114760961D01*
X136163681Y-114800808D01*
X136108751Y-114847758D01*
X136064204Y-114905645D01*
X136039480Y-114968693D01*
X136032248Y-115040282D01*
X135272310Y-115040282D01*
X135274178Y-114949712D01*
X135282522Y-114870812D01*
D12*
%TO.C,SW1*%
X154550000Y-107015000D02*
X154050000Y-107015000D01*
X158360000Y-105615000D02*
X158360000Y-105315000D01*
X156850000Y-109975000D02*
X156850000Y-109365000D01*
X153440000Y-109975000D02*
X158160000Y-109975000D01*
X154050000Y-109365000D02*
X157550000Y-109365000D01*
X154050000Y-104465000D02*
X154050000Y-109365000D01*
X158160000Y-105615000D02*
X158360000Y-105615000D01*
X153440000Y-103855000D02*
X153440000Y-109975000D01*
X157550000Y-104465000D02*
X154050000Y-104465000D01*
X158160000Y-106415000D02*
X157550000Y-106415000D01*
X157550000Y-107415000D02*
X158160000Y-107415000D01*
X158160000Y-109975000D02*
X158160000Y-103855000D01*
X158460000Y-104805000D02*
X158460000Y-103555000D01*
X156850000Y-103855000D02*
X156850000Y-104465000D01*
X157550000Y-106415000D02*
X157550000Y-104465000D01*
X154050000Y-106915000D02*
X154550000Y-106915000D01*
X155550000Y-109975000D02*
X155550000Y-109365000D01*
X158160000Y-103855000D02*
X153440000Y-103855000D01*
X158260000Y-105615000D02*
X158260000Y-105315000D01*
X154050000Y-106815000D02*
X154550000Y-106815000D01*
X155550000Y-103855000D02*
X155550000Y-104465000D01*
X158360000Y-105315000D02*
X158160000Y-105315000D01*
X158460000Y-103555000D02*
X157210000Y-103555000D01*
X154550000Y-106815000D02*
X154550000Y-107015000D01*
X157550000Y-109365000D02*
X157550000Y-107415000D01*
%TO.C,R3*%
X135910000Y-91587936D02*
X135910000Y-93042064D01*
X134090000Y-91587936D02*
X134090000Y-93042064D01*
%TO.C,U1*%
X148235000Y-108265000D02*
X148235000Y-97985000D01*
X148235000Y-97985000D02*
X146985000Y-97985000D01*
X143735000Y-108265000D02*
X148235000Y-108265000D01*
X143735000Y-97985000D02*
X143735000Y-108265000D01*
X144985000Y-97985000D02*
X143735000Y-97985000D01*
X144985000Y-97985000D02*
G75*
G03*
X146985000Y-97985000I1000000J0D01*
G01*
%TO.C,M1*%
X125700000Y-96865000D02*
X122200000Y-96865000D01*
X125700000Y-101765000D02*
X125700000Y-96865000D01*
X121290000Y-101425000D02*
X121290000Y-102675000D01*
X122200000Y-98815000D02*
X121590000Y-98815000D01*
X121590000Y-96255000D02*
X121590000Y-102375000D01*
X125700000Y-99415000D02*
X125200000Y-99415000D01*
X121590000Y-100615000D02*
X121390000Y-100615000D01*
X121390000Y-100615000D02*
X121390000Y-100915000D01*
X121590000Y-102375000D02*
X126310000Y-102375000D01*
X125200000Y-99215000D02*
X125700000Y-99215000D01*
X121290000Y-102675000D02*
X122540000Y-102675000D01*
X121590000Y-99815000D02*
X122200000Y-99815000D01*
X126310000Y-96255000D02*
X121590000Y-96255000D01*
X122900000Y-102375000D02*
X122900000Y-101765000D01*
X122900000Y-96255000D02*
X122900000Y-96865000D01*
X124200000Y-102375000D02*
X124200000Y-101765000D01*
X126310000Y-102375000D02*
X126310000Y-96255000D01*
X122200000Y-101765000D02*
X125700000Y-101765000D01*
X121390000Y-100915000D02*
X121590000Y-100915000D01*
X124200000Y-96255000D02*
X124200000Y-96865000D01*
X122200000Y-96865000D02*
X122200000Y-98815000D01*
X121490000Y-100615000D02*
X121490000Y-100915000D01*
X125200000Y-99415000D02*
X125200000Y-99215000D01*
X125700000Y-99315000D02*
X125200000Y-99315000D01*
X122200000Y-99815000D02*
X122200000Y-101765000D01*
%TO.C,R4*%
X139110000Y-91587936D02*
X139110000Y-93042064D01*
X137290000Y-91587936D02*
X137290000Y-93042064D01*
%TO.C,C2*%
X132710000Y-93026252D02*
X132710000Y-91603748D01*
X130890000Y-93026252D02*
X130890000Y-91603748D01*
%TO.C,U2*%
X132585000Y-97985000D02*
X131335000Y-97985000D01*
X135835000Y-97985000D02*
X134585000Y-97985000D01*
X131335000Y-108265000D02*
X135835000Y-108265000D01*
X131335000Y-97985000D02*
X131335000Y-108265000D01*
X135835000Y-108265000D02*
X135835000Y-97985000D01*
X132585000Y-97985000D02*
G75*
G03*
X134585000Y-97985000I1000000J0D01*
G01*
%TO.C,R2*%
X142310000Y-91587936D02*
X142310000Y-93042064D01*
X140490000Y-91587936D02*
X140490000Y-93042064D01*
%TO.C,SW2*%
X153440000Y-102375000D02*
X158160000Y-102375000D01*
X158360000Y-98015000D02*
X158360000Y-97715000D01*
X158460000Y-95955000D02*
X157210000Y-95955000D01*
X155550000Y-102375000D02*
X155550000Y-101765000D01*
X154050000Y-99315000D02*
X154550000Y-99315000D01*
X158160000Y-102375000D02*
X158160000Y-96255000D01*
X158360000Y-97715000D02*
X158160000Y-97715000D01*
X157550000Y-99815000D02*
X158160000Y-99815000D01*
X154050000Y-101765000D02*
X157550000Y-101765000D01*
X153440000Y-96255000D02*
X153440000Y-102375000D01*
X155550000Y-96255000D02*
X155550000Y-96865000D01*
X158460000Y-97205000D02*
X158460000Y-95955000D01*
X157550000Y-96865000D02*
X154050000Y-96865000D01*
X157550000Y-101765000D02*
X157550000Y-99815000D01*
X154550000Y-99415000D02*
X154050000Y-99415000D01*
X156850000Y-102375000D02*
X156850000Y-101765000D01*
X157550000Y-98815000D02*
X157550000Y-96865000D01*
X158160000Y-98015000D02*
X158360000Y-98015000D01*
X154050000Y-99215000D02*
X154550000Y-99215000D01*
X154050000Y-96865000D02*
X154050000Y-101765000D01*
X158260000Y-98015000D02*
X158260000Y-97715000D01*
X156850000Y-96255000D02*
X156850000Y-96865000D01*
X158160000Y-96255000D02*
X153440000Y-96255000D01*
X158160000Y-98815000D02*
X157550000Y-98815000D01*
X154550000Y-99215000D02*
X154550000Y-99415000D01*
%TO.C,C1*%
X146890000Y-93026252D02*
X146890000Y-91603748D01*
X148710000Y-93026252D02*
X148710000Y-91603748D01*
%TO.C,J1*%
X125200000Y-107015000D02*
X125200000Y-106815000D01*
X121290000Y-109025000D02*
X121290000Y-110275000D01*
X122200000Y-104465000D02*
X122200000Y-106415000D01*
X121590000Y-107415000D02*
X122200000Y-107415000D01*
X125700000Y-109365000D02*
X125700000Y-104465000D01*
X121390000Y-108215000D02*
X121390000Y-108515000D01*
X121590000Y-108215000D02*
X121390000Y-108215000D01*
X122200000Y-106415000D02*
X121590000Y-106415000D01*
X122200000Y-107415000D02*
X122200000Y-109365000D01*
X122900000Y-109975000D02*
X122900000Y-109365000D01*
X126310000Y-109975000D02*
X126310000Y-103855000D01*
X125700000Y-106915000D02*
X125200000Y-106915000D01*
X121590000Y-103855000D02*
X121590000Y-109975000D01*
X126310000Y-103855000D02*
X121590000Y-103855000D01*
X121290000Y-110275000D02*
X122540000Y-110275000D01*
X125700000Y-107015000D02*
X125200000Y-107015000D01*
X125700000Y-104465000D02*
X122200000Y-104465000D01*
X124200000Y-109975000D02*
X124200000Y-109365000D01*
X121590000Y-109975000D02*
X126310000Y-109975000D01*
X121490000Y-108215000D02*
X121490000Y-108515000D01*
X121390000Y-108515000D02*
X121590000Y-108515000D01*
X125200000Y-106815000D02*
X125700000Y-106815000D01*
X124200000Y-103855000D02*
X124200000Y-104465000D01*
X122200000Y-109365000D02*
X125700000Y-109365000D01*
X122900000Y-103855000D02*
X122900000Y-104465000D01*
%TO.C,R1*%
X143690000Y-91587936D02*
X143690000Y-93042064D01*
X145510000Y-91587936D02*
X145510000Y-93042064D01*
%TD*%
%LPC*%
D13*
%TO.C,SW1*%
X156350000Y-105915000D03*
D14*
X156350000Y-107915000D03*
%TD*%
D15*
%TO.C,R3*%
X135000000Y-90852500D03*
X135000000Y-93777500D03*
%TD*%
D16*
%TO.C,U1*%
X142175000Y-99315000D03*
D17*
X142175000Y-101855000D03*
X142175000Y-104395000D03*
X142175000Y-106935000D03*
X149795000Y-106935000D03*
X149795000Y-104395000D03*
X149795000Y-101855000D03*
X149795000Y-99315000D03*
%TD*%
D18*
%TO.C,H3*%
X158800000Y-114515000D03*
D19*
X156400000Y-114515000D03*
D18*
X158097056Y-112817944D03*
X154000000Y-114515000D03*
X156400000Y-116915000D03*
X154702944Y-116212056D03*
X154702944Y-112817944D03*
X156400000Y-112115000D03*
X158097056Y-116212056D03*
%TD*%
D20*
%TO.C,M1*%
X123400000Y-100315000D03*
D14*
X123400000Y-98315000D03*
%TD*%
D18*
%TO.C,H4*%
X158097056Y-93412056D03*
X156400000Y-89315000D03*
X154702944Y-90017944D03*
X154000000Y-91715000D03*
X154702944Y-93412056D03*
D19*
X156400000Y-91715000D03*
D18*
X156400000Y-94115000D03*
X158097056Y-90017944D03*
X158800000Y-91715000D03*
%TD*%
D15*
%TO.C,R4*%
X138200000Y-90852500D03*
X138200000Y-93777500D03*
%TD*%
D21*
%TO.C,C2*%
X131800000Y-93790000D03*
X131800000Y-90840000D03*
%TD*%
D16*
%TO.C,U2*%
X129775000Y-99315000D03*
D17*
X129775000Y-101855000D03*
X129775000Y-104395000D03*
X129775000Y-106935000D03*
X137395000Y-106935000D03*
X137395000Y-104395000D03*
X137395000Y-101855000D03*
X137395000Y-99315000D03*
%TD*%
D15*
%TO.C,R2*%
X141400000Y-90852500D03*
X141400000Y-93777500D03*
%TD*%
D13*
%TO.C,SW2*%
X156350000Y-98315000D03*
D14*
X156350000Y-100315000D03*
%TD*%
D18*
%TO.C,H2*%
X123400000Y-116915000D03*
X121000000Y-114515000D03*
X125097056Y-116212056D03*
X125800000Y-114515000D03*
X123400000Y-112115000D03*
X121702944Y-116212056D03*
X125097056Y-112817944D03*
D19*
X123400000Y-114515000D03*
D18*
X121702944Y-112817944D03*
%TD*%
D21*
%TO.C,C1*%
X147800000Y-93790000D03*
X147800000Y-90840000D03*
%TD*%
D20*
%TO.C,J1*%
X123400000Y-107915000D03*
D14*
X123400000Y-105915000D03*
%TD*%
D15*
%TO.C,R1*%
X144600000Y-90852500D03*
X144600000Y-93777500D03*
%TD*%
D18*
%TO.C,H1*%
X125097056Y-93412056D03*
X121702944Y-93412056D03*
D19*
X123400000Y-91715000D03*
D18*
X121702944Y-90017944D03*
X125097056Y-90017944D03*
X123400000Y-94115000D03*
X125800000Y-91715000D03*
X123400000Y-89315000D03*
X121000000Y-91715000D03*
%TD*%
M02*
