M48
; DRILL file {KiCad 6.0.11-2627ca5db0~126~ubuntu22.04.1} date Do 23 Feb 2023 11:24:38 CET
; FORMAT={-:-/ absolute / metric / decimal}
; #@! TF.CreationDate,2023-02-23T11:24:38+01:00
; #@! TF.GenerationSoftware,Kicad,Pcbnew,6.0.11-2627ca5db0~126~ubuntu22.04.1
; #@! TF.FileFunction,Plated,1,2,PTH
FMAT,2
METRIC
; #@! TA.AperFunction,Plated,PTH,ViaDrill
T1C0.400
; #@! TA.AperFunction,Plated,PTH,ComponentDrill
T2C0.500
; #@! TA.AperFunction,Plated,PTH,ComponentDrill
T3C0.750
; #@! TA.AperFunction,Plated,PTH,ComponentDrill
T4C0.800
; #@! TA.AperFunction,Plated,PTH,ComponentDrill
T5C3.200
%
G90
G05
T1
X127.6Y-100.915
X127.8Y-109.315
X127.8Y-110.515
X129.0Y-109.315
X129.0Y-110.515
X129.8Y-90.715
X130.2Y-109.315
X130.2Y-110.515
X131.4Y-109.315
X131.4Y-110.515
X132.6Y-109.315
X132.6Y-110.515
X133.8Y-109.315
X133.8Y-110.515
X135.0Y-109.315
X135.0Y-110.515
X136.2Y-109.315
X136.2Y-110.515
X137.4Y-109.315
X137.4Y-110.515
X138.6Y-109.315
X138.6Y-110.515
X139.8Y-109.315
X139.8Y-110.515
X141.0Y-109.315
X141.0Y-110.515
X142.2Y-109.315
X142.2Y-110.515
X143.4Y-109.315
X143.4Y-110.515
X144.6Y-109.315
X144.6Y-110.515
X145.8Y-109.315
X145.8Y-110.515
X146.4Y-96.8
X147.0Y-109.315
X147.0Y-110.515
X147.2Y-99.8
X148.2Y-109.315
X148.2Y-110.515
X149.4Y-109.315
X149.4Y-110.515
X149.8Y-90.715
X150.6Y-109.315
X150.6Y-110.515
X151.8Y-109.315
X151.8Y-110.515
T2
X121.0Y-91.715
X121.0Y-114.515
X121.703Y-90.018
X121.703Y-93.412
X121.703Y-112.818
X121.703Y-116.212
X123.4Y-89.315
X123.4Y-94.115
X123.4Y-112.115
X123.4Y-116.915
X125.097Y-90.018
X125.097Y-93.412
X125.097Y-112.818
X125.097Y-116.212
X125.8Y-91.715
X125.8Y-114.515
X154.0Y-91.715
X154.0Y-114.515
X154.703Y-90.018
X154.703Y-93.412
X154.703Y-112.818
X154.703Y-116.212
X156.4Y-89.315
X156.4Y-94.115
X156.4Y-112.115
X156.4Y-116.915
X158.097Y-90.018
X158.097Y-93.412
X158.097Y-112.818
X158.097Y-116.212
X158.8Y-91.715
X158.8Y-114.515
T3
X123.4Y-98.315
X123.4Y-100.315
X123.4Y-105.915
X123.4Y-107.915
X156.35Y-98.315
X156.35Y-100.315
X156.35Y-105.915
X156.35Y-107.915
T4
X129.775Y-99.315
X129.775Y-101.855
X129.775Y-104.395
X129.775Y-106.935
X137.395Y-99.315
X137.395Y-101.855
X137.395Y-104.395
X137.395Y-106.935
X142.175Y-99.315
X142.175Y-101.855
X142.175Y-104.395
X142.175Y-106.935
X149.795Y-99.315
X149.795Y-101.855
X149.795Y-104.395
X149.795Y-106.935
T5
X123.4Y-91.715
X123.4Y-114.515
X156.4Y-91.715
X156.4Y-114.515
T0
M30
