%TF.GenerationSoftware,KiCad,Pcbnew,6.0.11-2627ca5db0~126~ubuntu22.04.1*%
%TF.CreationDate,2023-02-23T11:24:01+01:00*%
%TF.ProjectId,motordriver,6d6f746f-7264-4726-9976-65722e6b6963,rev?*%
%TF.SameCoordinates,Original*%
%TF.FileFunction,Legend,Bot*%
%TF.FilePolarity,Positive*%
%FSLAX46Y46*%
G04 Gerber Fmt 4.6, Leading zero omitted, Abs format (unit mm)*
G04 Created by KiCad (PCBNEW 6.0.11-2627ca5db0~126~ubuntu22.04.1) date 2023-02-23 11:24:01*
%MOMM*%
%LPD*%
G01*
G04 APERTURE LIST*
G04 Aperture macros list*
%AMRoundRect*
0 Rectangle with rounded corners*
0 $1 Rounding radius*
0 $2 $3 $4 $5 $6 $7 $8 $9 X,Y pos of 4 corners*
0 Add a 4 corners polygon primitive as box body*
4,1,4,$2,$3,$4,$5,$6,$7,$8,$9,$2,$3,0*
0 Add four circle primitives for the rounded corners*
1,1,$1+$1,$2,$3*
1,1,$1+$1,$4,$5*
1,1,$1+$1,$6,$7*
1,1,$1+$1,$8,$9*
0 Add four rect primitives between the rounded corners*
20,1,$1+$1,$2,$3,$4,$5,0*
20,1,$1+$1,$4,$5,$6,$7,0*
20,1,$1+$1,$6,$7,$8,$9,0*
20,1,$1+$1,$8,$9,$2,$3,0*%
G04 Aperture macros list end*
%ADD10C,0.300000*%
%ADD11C,0.200000*%
%ADD12RoundRect,0.250000X-0.625000X0.350000X-0.625000X-0.350000X0.625000X-0.350000X0.625000X0.350000X0*%
%ADD13O,1.750000X1.200000*%
%ADD14R,2.400000X1.600000*%
%ADD15O,2.400000X1.600000*%
%ADD16C,0.800000*%
%ADD17C,6.400000*%
%ADD18RoundRect,0.250000X0.625000X-0.350000X0.625000X0.350000X-0.625000X0.350000X-0.625000X-0.350000X0*%
G04 APERTURE END LIST*
D10*
X146728571Y-115778571D02*
X146728571Y-116850000D01*
X146800000Y-117064285D01*
X146942857Y-117207142D01*
X147157142Y-117278571D01*
X147300000Y-117278571D01*
X145300000Y-117278571D02*
X146014285Y-117278571D01*
X146014285Y-115778571D01*
X143942857Y-117135714D02*
X144014285Y-117207142D01*
X144228571Y-117278571D01*
X144371428Y-117278571D01*
X144585714Y-117207142D01*
X144728571Y-117064285D01*
X144800000Y-116921428D01*
X144871428Y-116635714D01*
X144871428Y-116421428D01*
X144800000Y-116135714D01*
X144728571Y-115992857D01*
X144585714Y-115850000D01*
X144371428Y-115778571D01*
X144228571Y-115778571D01*
X144014285Y-115850000D01*
X143942857Y-115921428D01*
X142871428Y-115778571D02*
X142871428Y-116850000D01*
X142942857Y-117064285D01*
X143085714Y-117207142D01*
X143300000Y-117278571D01*
X143442857Y-117278571D01*
X141442857Y-117278571D02*
X142157142Y-117278571D01*
X142157142Y-115778571D01*
X140085714Y-117135714D02*
X140157142Y-117207142D01*
X140371428Y-117278571D01*
X140514285Y-117278571D01*
X140728571Y-117207142D01*
X140871428Y-117064285D01*
X140942857Y-116921428D01*
X141014285Y-116635714D01*
X141014285Y-116421428D01*
X140942857Y-116135714D01*
X140871428Y-115992857D01*
X140728571Y-115850000D01*
X140514285Y-115778571D01*
X140371428Y-115778571D01*
X140157142Y-115850000D01*
X140085714Y-115921428D01*
X139014285Y-115778571D02*
X139014285Y-116850000D01*
X139085714Y-117064285D01*
X139228571Y-117207142D01*
X139442857Y-117278571D01*
X139585714Y-117278571D01*
X137585714Y-117278571D02*
X138300000Y-117278571D01*
X138300000Y-115778571D01*
X136228571Y-117135714D02*
X136300000Y-117207142D01*
X136514285Y-117278571D01*
X136657142Y-117278571D01*
X136871428Y-117207142D01*
X137014285Y-117064285D01*
X137085714Y-116921428D01*
X137157142Y-116635714D01*
X137157142Y-116421428D01*
X137085714Y-116135714D01*
X137014285Y-115992857D01*
X136871428Y-115850000D01*
X136657142Y-115778571D01*
X136514285Y-115778571D01*
X136300000Y-115850000D01*
X136228571Y-115921428D01*
X135157142Y-115778571D02*
X135157142Y-116850000D01*
X135228571Y-117064285D01*
X135371428Y-117207142D01*
X135585714Y-117278571D01*
X135728571Y-117278571D01*
X133728571Y-117278571D02*
X134442857Y-117278571D01*
X134442857Y-115778571D01*
X132371428Y-117135714D02*
X132442857Y-117207142D01*
X132657142Y-117278571D01*
X132800000Y-117278571D01*
X133014285Y-117207142D01*
X133157142Y-117064285D01*
X133228571Y-116921428D01*
X133300000Y-116635714D01*
X133300000Y-116421428D01*
X133228571Y-116135714D01*
X133157142Y-115992857D01*
X133014285Y-115850000D01*
X132800000Y-115778571D01*
X132657142Y-115778571D01*
X132442857Y-115850000D01*
X132371428Y-115921428D01*
D11*
X154419047Y-96052380D02*
X154419047Y-95052380D01*
X153990476Y-96052380D02*
X153990476Y-95528571D01*
X154038095Y-95433333D01*
X154133333Y-95385714D01*
X154276190Y-95385714D01*
X154371428Y-95433333D01*
X154419047Y-95480952D01*
X153657142Y-95385714D02*
X153276190Y-95385714D01*
X153514285Y-95052380D02*
X153514285Y-95909523D01*
X153466666Y-96004761D01*
X153371428Y-96052380D01*
X153276190Y-96052380D01*
X153085714Y-95385714D02*
X152704761Y-95385714D01*
X152942857Y-95052380D02*
X152942857Y-95909523D01*
X152895238Y-96004761D01*
X152800000Y-96052380D01*
X152704761Y-96052380D01*
X152371428Y-95385714D02*
X152371428Y-96385714D01*
X152371428Y-95433333D02*
X152276190Y-95385714D01*
X152085714Y-95385714D01*
X151990476Y-95433333D01*
X151942857Y-95480952D01*
X151895238Y-95576190D01*
X151895238Y-95861904D01*
X151942857Y-95957142D01*
X151990476Y-96004761D01*
X152085714Y-96052380D01*
X152276190Y-96052380D01*
X152371428Y-96004761D01*
X151514285Y-96004761D02*
X151419047Y-96052380D01*
X151228571Y-96052380D01*
X151133333Y-96004761D01*
X151085714Y-95909523D01*
X151085714Y-95861904D01*
X151133333Y-95766666D01*
X151228571Y-95719047D01*
X151371428Y-95719047D01*
X151466666Y-95671428D01*
X151514285Y-95576190D01*
X151514285Y-95528571D01*
X151466666Y-95433333D01*
X151371428Y-95385714D01*
X151228571Y-95385714D01*
X151133333Y-95433333D01*
X150657142Y-95957142D02*
X150609523Y-96004761D01*
X150657142Y-96052380D01*
X150704761Y-96004761D01*
X150657142Y-95957142D01*
X150657142Y-96052380D01*
X150657142Y-95433333D02*
X150609523Y-95480952D01*
X150657142Y-95528571D01*
X150704761Y-95480952D01*
X150657142Y-95433333D01*
X150657142Y-95528571D01*
X149466666Y-95004761D02*
X150323809Y-96290476D01*
X148419047Y-95004761D02*
X149276190Y-96290476D01*
X147657142Y-95385714D02*
X147657142Y-96195238D01*
X147704761Y-96290476D01*
X147752380Y-96338095D01*
X147847619Y-96385714D01*
X147990476Y-96385714D01*
X148085714Y-96338095D01*
X147657142Y-96004761D02*
X147752380Y-96052380D01*
X147942857Y-96052380D01*
X148038095Y-96004761D01*
X148085714Y-95957142D01*
X148133333Y-95861904D01*
X148133333Y-95576190D01*
X148085714Y-95480952D01*
X148038095Y-95433333D01*
X147942857Y-95385714D01*
X147752380Y-95385714D01*
X147657142Y-95433333D01*
X147180952Y-96052380D02*
X147180952Y-95385714D01*
X147180952Y-95052380D02*
X147228571Y-95100000D01*
X147180952Y-95147619D01*
X147133333Y-95100000D01*
X147180952Y-95052380D01*
X147180952Y-95147619D01*
X146847619Y-95385714D02*
X146466666Y-95385714D01*
X146704761Y-95052380D02*
X146704761Y-95909523D01*
X146657142Y-96004761D01*
X146561904Y-96052380D01*
X146466666Y-96052380D01*
X146133333Y-96052380D02*
X146133333Y-95052380D01*
X145704761Y-96052380D02*
X145704761Y-95528571D01*
X145752380Y-95433333D01*
X145847619Y-95385714D01*
X145990476Y-95385714D01*
X146085714Y-95433333D01*
X146133333Y-95480952D01*
X144800000Y-95385714D02*
X144800000Y-96052380D01*
X145228571Y-95385714D02*
X145228571Y-95909523D01*
X145180952Y-96004761D01*
X145085714Y-96052380D01*
X144942857Y-96052380D01*
X144847619Y-96004761D01*
X144800000Y-95957142D01*
X144323809Y-96052380D02*
X144323809Y-95052380D01*
X144323809Y-95433333D02*
X144228571Y-95385714D01*
X144038095Y-95385714D01*
X143942857Y-95433333D01*
X143895238Y-95480952D01*
X143847619Y-95576190D01*
X143847619Y-95861904D01*
X143895238Y-95957142D01*
X143942857Y-96004761D01*
X144038095Y-96052380D01*
X144228571Y-96052380D01*
X144323809Y-96004761D01*
X143419047Y-95957142D02*
X143371428Y-96004761D01*
X143419047Y-96052380D01*
X143466666Y-96004761D01*
X143419047Y-95957142D01*
X143419047Y-96052380D01*
X142514285Y-96004761D02*
X142609523Y-96052380D01*
X142800000Y-96052380D01*
X142895238Y-96004761D01*
X142942857Y-95957142D01*
X142990476Y-95861904D01*
X142990476Y-95576190D01*
X142942857Y-95480952D01*
X142895238Y-95433333D01*
X142800000Y-95385714D01*
X142609523Y-95385714D01*
X142514285Y-95433333D01*
X141942857Y-96052380D02*
X142038095Y-96004761D01*
X142085714Y-95957142D01*
X142133333Y-95861904D01*
X142133333Y-95576190D01*
X142085714Y-95480952D01*
X142038095Y-95433333D01*
X141942857Y-95385714D01*
X141800000Y-95385714D01*
X141704761Y-95433333D01*
X141657142Y-95480952D01*
X141609523Y-95576190D01*
X141609523Y-95861904D01*
X141657142Y-95957142D01*
X141704761Y-96004761D01*
X141800000Y-96052380D01*
X141942857Y-96052380D01*
X141180952Y-96052380D02*
X141180952Y-95385714D01*
X141180952Y-95480952D02*
X141133333Y-95433333D01*
X141038095Y-95385714D01*
X140895238Y-95385714D01*
X140800000Y-95433333D01*
X140752380Y-95528571D01*
X140752380Y-96052380D01*
X140752380Y-95528571D02*
X140704761Y-95433333D01*
X140609523Y-95385714D01*
X140466666Y-95385714D01*
X140371428Y-95433333D01*
X140323809Y-95528571D01*
X140323809Y-96052380D01*
X139133333Y-95004761D02*
X139990476Y-96290476D01*
X138800000Y-95385714D02*
X138800000Y-96385714D01*
X138800000Y-95433333D02*
X138704761Y-95385714D01*
X138514285Y-95385714D01*
X138419047Y-95433333D01*
X138371428Y-95480952D01*
X138323809Y-95576190D01*
X138323809Y-95861904D01*
X138371428Y-95957142D01*
X138419047Y-96004761D01*
X138514285Y-96052380D01*
X138704761Y-96052380D01*
X138800000Y-96004761D01*
X137514285Y-96004761D02*
X137609523Y-96052380D01*
X137800000Y-96052380D01*
X137895238Y-96004761D01*
X137942857Y-95909523D01*
X137942857Y-95528571D01*
X137895238Y-95433333D01*
X137800000Y-95385714D01*
X137609523Y-95385714D01*
X137514285Y-95433333D01*
X137466666Y-95528571D01*
X137466666Y-95623809D01*
X137942857Y-95719047D01*
X136609523Y-96052380D02*
X136609523Y-95052380D01*
X136609523Y-96004761D02*
X136704761Y-96052380D01*
X136895238Y-96052380D01*
X136990476Y-96004761D01*
X137038095Y-95957142D01*
X137085714Y-95861904D01*
X137085714Y-95576190D01*
X137038095Y-95480952D01*
X136990476Y-95433333D01*
X136895238Y-95385714D01*
X136704761Y-95385714D01*
X136609523Y-95433333D01*
X135704761Y-96052380D02*
X135704761Y-95052380D01*
X135704761Y-96004761D02*
X135800000Y-96052380D01*
X135990476Y-96052380D01*
X136085714Y-96004761D01*
X136133333Y-95957142D01*
X136180952Y-95861904D01*
X136180952Y-95576190D01*
X136133333Y-95480952D01*
X136085714Y-95433333D01*
X135990476Y-95385714D01*
X135800000Y-95385714D01*
X135704761Y-95433333D01*
X135228571Y-95385714D02*
X135228571Y-96052380D01*
X135228571Y-95480952D02*
X135180952Y-95433333D01*
X135085714Y-95385714D01*
X134942857Y-95385714D01*
X134847619Y-95433333D01*
X134800000Y-95528571D01*
X134800000Y-96052380D01*
X133609523Y-95004761D02*
X134466666Y-96290476D01*
X133276190Y-96052380D02*
X133276190Y-95385714D01*
X133276190Y-95480952D02*
X133228571Y-95433333D01*
X133133333Y-95385714D01*
X132990476Y-95385714D01*
X132895238Y-95433333D01*
X132847619Y-95528571D01*
X132847619Y-96052380D01*
X132847619Y-95528571D02*
X132800000Y-95433333D01*
X132704761Y-95385714D01*
X132561904Y-95385714D01*
X132466666Y-95433333D01*
X132419047Y-95528571D01*
X132419047Y-96052380D01*
X131800000Y-96052380D02*
X131895238Y-96004761D01*
X131942857Y-95957142D01*
X131990476Y-95861904D01*
X131990476Y-95576190D01*
X131942857Y-95480952D01*
X131895238Y-95433333D01*
X131800000Y-95385714D01*
X131657142Y-95385714D01*
X131561904Y-95433333D01*
X131514285Y-95480952D01*
X131466666Y-95576190D01*
X131466666Y-95861904D01*
X131514285Y-95957142D01*
X131561904Y-96004761D01*
X131657142Y-96052380D01*
X131800000Y-96052380D01*
X131180952Y-95385714D02*
X130800000Y-95385714D01*
X131038095Y-95052380D02*
X131038095Y-95909523D01*
X130990476Y-96004761D01*
X130895238Y-96052380D01*
X130800000Y-96052380D01*
X130323809Y-96052380D02*
X130419047Y-96004761D01*
X130466666Y-95957142D01*
X130514285Y-95861904D01*
X130514285Y-95576190D01*
X130466666Y-95480952D01*
X130419047Y-95433333D01*
X130323809Y-95385714D01*
X130180952Y-95385714D01*
X130085714Y-95433333D01*
X130038095Y-95480952D01*
X129990476Y-95576190D01*
X129990476Y-95861904D01*
X130038095Y-95957142D01*
X130085714Y-96004761D01*
X130180952Y-96052380D01*
X130323809Y-96052380D01*
X129561904Y-96052380D02*
X129561904Y-95385714D01*
X129561904Y-95576190D02*
X129514285Y-95480952D01*
X129466666Y-95433333D01*
X129371428Y-95385714D01*
X129276190Y-95385714D01*
X128514285Y-96052380D02*
X128514285Y-95052380D01*
X128514285Y-96004761D02*
X128609523Y-96052380D01*
X128800000Y-96052380D01*
X128895238Y-96004761D01*
X128942857Y-95957142D01*
X128990476Y-95861904D01*
X128990476Y-95576190D01*
X128942857Y-95480952D01*
X128895238Y-95433333D01*
X128800000Y-95385714D01*
X128609523Y-95385714D01*
X128514285Y-95433333D01*
X128038095Y-96052380D02*
X128038095Y-95385714D01*
X128038095Y-95576190D02*
X127990476Y-95480952D01*
X127942857Y-95433333D01*
X127847619Y-95385714D01*
X127752380Y-95385714D01*
X127419047Y-96052380D02*
X127419047Y-95385714D01*
X127419047Y-95052380D02*
X127466666Y-95100000D01*
X127419047Y-95147619D01*
X127371428Y-95100000D01*
X127419047Y-95052380D01*
X127419047Y-95147619D01*
X127038095Y-95385714D02*
X126800000Y-96052380D01*
X126561904Y-95385714D01*
X125800000Y-96004761D02*
X125895238Y-96052380D01*
X126085714Y-96052380D01*
X126180952Y-96004761D01*
X126228571Y-95909523D01*
X126228571Y-95528571D01*
X126180952Y-95433333D01*
X126085714Y-95385714D01*
X125895238Y-95385714D01*
X125800000Y-95433333D01*
X125752380Y-95528571D01*
X125752380Y-95623809D01*
X126228571Y-95719047D01*
X125323809Y-96052380D02*
X125323809Y-95385714D01*
X125323809Y-95576190D02*
X125276190Y-95480952D01*
X125228571Y-95433333D01*
X125133333Y-95385714D01*
X125038095Y-95385714D01*
%LPC*%
D12*
%TO.C,SW1*%
X156350000Y-105915000D03*
D13*
X156350000Y-107915000D03*
%TD*%
D14*
%TO.C,U1*%
X142175000Y-99315000D03*
D15*
X142175000Y-101855000D03*
X142175000Y-104395000D03*
X142175000Y-106935000D03*
X149795000Y-106935000D03*
X149795000Y-104395000D03*
X149795000Y-101855000D03*
X149795000Y-99315000D03*
%TD*%
D16*
%TO.C,H3*%
X158800000Y-114515000D03*
D17*
X156400000Y-114515000D03*
D16*
X158097056Y-112817944D03*
X154000000Y-114515000D03*
X156400000Y-116915000D03*
X154702944Y-116212056D03*
X154702944Y-112817944D03*
X156400000Y-112115000D03*
X158097056Y-116212056D03*
%TD*%
D18*
%TO.C,M1*%
X123400000Y-100315000D03*
D13*
X123400000Y-98315000D03*
%TD*%
D16*
%TO.C,H4*%
X158097056Y-93412056D03*
X156400000Y-89315000D03*
X154702944Y-90017944D03*
X154000000Y-91715000D03*
X154702944Y-93412056D03*
D17*
X156400000Y-91715000D03*
D16*
X156400000Y-94115000D03*
X158097056Y-90017944D03*
X158800000Y-91715000D03*
%TD*%
D14*
%TO.C,U2*%
X129775000Y-99315000D03*
D15*
X129775000Y-101855000D03*
X129775000Y-104395000D03*
X129775000Y-106935000D03*
X137395000Y-106935000D03*
X137395000Y-104395000D03*
X137395000Y-101855000D03*
X137395000Y-99315000D03*
%TD*%
D12*
%TO.C,SW2*%
X156350000Y-98315000D03*
D13*
X156350000Y-100315000D03*
%TD*%
D16*
%TO.C,H2*%
X123400000Y-116915000D03*
X121000000Y-114515000D03*
X125097056Y-116212056D03*
X125800000Y-114515000D03*
X123400000Y-112115000D03*
X121702944Y-116212056D03*
X125097056Y-112817944D03*
D17*
X123400000Y-114515000D03*
D16*
X121702944Y-112817944D03*
%TD*%
D18*
%TO.C,J1*%
X123400000Y-107915000D03*
D13*
X123400000Y-105915000D03*
%TD*%
D16*
%TO.C,H1*%
X125097056Y-93412056D03*
X121702944Y-93412056D03*
D17*
X123400000Y-91715000D03*
D16*
X121702944Y-90017944D03*
X125097056Y-90017944D03*
X123400000Y-94115000D03*
X125800000Y-91715000D03*
X123400000Y-89315000D03*
X121000000Y-91715000D03*
%TD*%
M02*
